<svg xmlns="http://www.w3.org/2000/svg" width="256.912" height="207.3" viewBox="0 0 256.912 207.3">
  <g id="cabinet-illustration" transform="translate(25.969 0.008)">
    <ellipse id="Ellipse_398" data-name="Ellipse 398" cx="88.452" cy="3.153" rx="88.452" ry="3.153" transform="translate(10.387 200.985)" fill="#6c63ff" opacity="0.1"/>
    <path id="Path_1153" data-name="Path 1153" d="M207.624,50.076c8.717-8.625,22.4-10.383,34.854-9.7C281.6,42.533,316.914,63.506,347.46,87.23c11.057,8.588,21.944,17.844,29.124,29.67,14.611,24.077,10.276,57.427-10.036,77.271-6.912,6.745-15.288,11.92-23.9,16.5-15.288,8.155-31.8,14.7-49.162,16.564-12.383,1.328-24.914.246-37.224-1.607-34.406-5.187-68.149-16.64-96.443-36.233-12.408-8.594-24.1-19.278-29.211-33.18s-1.845-31.519,10.822-39.747c5.242-3.4,11.507-4.941,17.641-6.384,9.028-2.122,18.2-4.217,26.35-8.537C193.84,97.092,203.8,88.464,202.14,78.59,200.351,68,198.926,58.691,207.624,50.076Z" transform="translate(-154.27 -40.25)" fill="#6c63ff" opacity="0.1"/>
    <rect id="Rectangle_1881" data-name="Rectangle 1881" width="70.098" height="15.487" transform="translate(65.899 43.729)" fill="#464a5f"/>
    <rect id="Rectangle_1882" data-name="Rectangle 1882" width="70.098" height="0.401" transform="translate(65.899 43.729)" opacity="0.1"/>
    <rect id="Rectangle_1883" data-name="Rectangle 1883" width="77.24" height="34.294" transform="translate(62.481 9.432)" fill="#65617d"/>
    <path id="Path_1154" data-name="Path 1154" d="M125,34.57h29.9v72.514H119.7V39.874a5.3,5.3,0,0,1,5.3-5.3Z" transform="translate(-91.213 -25.138)" fill="#65617d"/>
    <rect id="Rectangle_1884" data-name="Rectangle 1884" width="25.444" height="64.166" transform="translate(33.767 14.007)" opacity="0.1"/>
    <rect id="Rectangle_1885" data-name="Rectangle 1885" width="25.444" height="64.166" transform="translate(33.366 13.606)" fill="#d1d9ec"/>
    <circle id="Ellipse_401" data-name="Ellipse 401" cx="2.591" cy="2.591" r="2.591" transform="translate(56.219 71.914)" opacity="0.1"/>
    <circle id="Ellipse_402" data-name="Ellipse 402" cx="2.591" cy="2.591" r="2.591" transform="translate(56.219 71.509)" fill="#464a5f"/>
    <path id="Path_1155" data-name="Path 1155" d="M520.15,34.57h29.634a5.569,5.569,0,0,1,5.566,5.577v66.937h-35.2Z" transform="translate(-382.34 -25.138)" fill="#65617d"/>
    <rect id="Rectangle_1886" data-name="Rectangle 1886" width="25.444" height="64.166" transform="translate(143.09 14.007)" opacity="0.1"/>
    <rect id="Rectangle_1887" data-name="Rectangle 1887" width="25.444" height="64.166" transform="translate(142.689 13.606)" fill="#d1d9ec"/>
    <circle id="Ellipse_403" data-name="Ellipse 403" cx="2.591" cy="2.591" r="2.591" transform="translate(165.544 71.914)" opacity="0.1"/>
    <circle id="Ellipse_404" data-name="Ellipse 404" cx="2.591" cy="2.591" r="2.591" transform="translate(165.544 71.509)" fill="#464a5f"/>
    <rect id="Rectangle_1888" data-name="Rectangle 1888" width="27.48" height="27.48" transform="translate(68.716 14.007)" opacity="0.1"/>
    <rect id="Rectangle_1889" data-name="Rectangle 1889" width="27.48" height="27.48" transform="translate(68.315 13.606)" fill="#d1d9ec"/>
    <circle id="Ellipse_405" data-name="Ellipse 405" cx="1.66" cy="1.66" r="1.66" transform="translate(94.136 39.83)" opacity="0.1"/>
    <circle id="Ellipse_406" data-name="Ellipse 406" cx="1.66" cy="1.66" r="1.66" transform="translate(94.136 39.429)" fill="#464a5f"/>
    <rect id="Rectangle_1890" data-name="Rectangle 1890" width="27.48" height="27.48" transform="translate(132.279 41.49) rotate(180)" opacity="0.1"/>
    <rect id="Rectangle_1891" data-name="Rectangle 1891" width="27.48" height="27.48" transform="translate(132.68 41.089) rotate(180)" fill="#d1d9ec"/>
    <circle id="Ellipse_407" data-name="Ellipse 407" cx="1.66" cy="1.66" r="1.66" transform="translate(103.54 39.83)" opacity="0.1"/>
    <circle id="Ellipse_408" data-name="Ellipse 408" cx="1.66" cy="1.66" r="1.66" transform="translate(103.54 39.429)" fill="#464a5f"/>
    <rect id="Rectangle_1892" data-name="Rectangle 1892" width="1.106" height="34.294" transform="translate(99.994 9.432)" opacity="0.1"/>
    <rect id="Rectangle_1893" data-name="Rectangle 1893" width="4.627" height="1.409" transform="translate(68.315 56.803)" opacity="0.1"/>
    <rect id="Rectangle_1894" data-name="Rectangle 1894" width="4.627" height="1.409" transform="translate(68.315 56.399)" fill="#53526b"/>
    <rect id="Rectangle_1895" data-name="Rectangle 1895" width="24.237" height="3.118" transform="translate(102.309 55.091)" opacity="0.1"/>
    <rect id="Rectangle_1896" data-name="Rectangle 1896" width="24.237" height="3.118" transform="translate(102.309 54.69)" fill="#53526b"/>
    <circle id="Ellipse_409" data-name="Ellipse 409" cx="0.603" cy="0.603" r="0.603" transform="translate(115.55 56.047)" opacity="0.1"/>
    <circle id="Ellipse_410" data-name="Ellipse 410" cx="0.603" cy="0.603" r="0.603" transform="translate(115.55 55.645)" fill="#b65256"/>
    <circle id="Ellipse_411" data-name="Ellipse 411" cx="0.603" cy="0.603" r="0.603" transform="translate(119.003 56.047)" opacity="0.1"/>
    <circle id="Ellipse_412" data-name="Ellipse 412" cx="0.603" cy="0.603" r="0.603" transform="translate(119.003 55.645)" fill="#ffd77c"/>
    <rect id="Rectangle_1897" data-name="Rectangle 1897" width="160.513" height="68.389" transform="translate(20.494 128.392)" fill="#65617d"/>
    <rect id="Rectangle_1898" data-name="Rectangle 1898" width="160.513" height="1.409" transform="translate(20.494 128.392)" opacity="0.1"/>
    <rect id="Rectangle_1899" data-name="Rectangle 1899" width="164.739" height="3.62" transform="translate(18.381 125.777)" fill="#65617d"/>
    <rect id="Rectangle_1900" data-name="Rectangle 1900" width="164.739" height="0.603" transform="translate(18.381 125.777)" opacity="0.1"/>
    <rect id="Rectangle_1901" data-name="Rectangle 1901" width="170.841" height="1.207" transform="translate(15.328 124.772)" fill="#65617d"/>
    <rect id="Rectangle_1902" data-name="Rectangle 1902" width="35.201" height="10.863" transform="translate(25.621 130.805)" opacity="0.1"/>
    <rect id="Rectangle_1903" data-name="Rectangle 1903" width="35.201" height="10.863" transform="translate(26.025 130.404)" fill="#d1d9ec"/>
    <rect id="Rectangle_1904" data-name="Rectangle 1904" width="35.201" height="22.026" transform="translate(25.621 146.596)" opacity="0.1"/>
    <rect id="Rectangle_1905" data-name="Rectangle 1905" width="35.201" height="22.026" transform="translate(26.025 146.191)" fill="#d1d9ec"/>
    <rect id="Rectangle_1906" data-name="Rectangle 1906" width="35.201" height="22.026" transform="translate(25.621 171.938)" opacity="0.1"/>
    <rect id="Rectangle_1907" data-name="Rectangle 1907" width="35.201" height="22.026" transform="translate(26.025 171.537)" fill="#d1d9ec"/>
    <rect id="Rectangle_1908" data-name="Rectangle 1908" width="10.057" height="2.012" transform="translate(38.192 135.231)" opacity="0.1"/>
    <rect id="Rectangle_1909" data-name="Rectangle 1909" width="10.057" height="2.012" transform="translate(38.192 134.829)" fill="#464a5f"/>
    <rect id="Rectangle_1910" data-name="Rectangle 1910" width="35.201" height="10.863" transform="translate(144.097 130.805)" opacity="0.1"/>
    <rect id="Rectangle_1911" data-name="Rectangle 1911" width="35.201" height="10.863" transform="translate(144.499 130.404)" fill="#d1d9ec"/>
    <rect id="Rectangle_1912" data-name="Rectangle 1912" width="35.201" height="47.27" transform="translate(144.499 144.887)" fill="#d1d9ec"/>
    <rect id="Rectangle_1913" data-name="Rectangle 1913" width="10.057" height="2.012" transform="translate(156.669 134.829)" fill="#464a5f"/>
    <rect id="Rectangle_1914" data-name="Rectangle 1914" width="10.057" height="2.012" transform="translate(38.192 157.054)" opacity="0.1"/>
    <rect id="Rectangle_1915" data-name="Rectangle 1915" width="10.057" height="2.012" transform="translate(38.192 156.653)" fill="#464a5f"/>
    <rect id="Rectangle_1916" data-name="Rectangle 1916" width="10.057" height="2.012" transform="translate(38.192 180.388)" opacity="0.1"/>
    <rect id="Rectangle_1917" data-name="Rectangle 1917" width="10.057" height="2.012" transform="translate(38.192 179.986)" fill="#464a5f"/>
    <rect id="Rectangle_1918" data-name="Rectangle 1918" width="25.646" height="38.116" transform="translate(149.678 149.863)" opacity="0.1"/>
    <rect id="Rectangle_1919" data-name="Rectangle 1919" width="25.646" height="38.116" transform="translate(149.276 149.462)" fill="#ff9981" opacity="0.3"/>
    <rect id="Rectangle_1920" data-name="Rectangle 1920" width="164.739" height="6.839" transform="translate(18.381 196.107)" opacity="0.1"/>
    <rect id="Rectangle_1921" data-name="Rectangle 1921" width="164.739" height="6.839" transform="translate(18.381 196.38)" fill="#65617d"/>
    <rect id="Rectangle_1922" data-name="Rectangle 1922" width="77.24" height="49.784" transform="translate(64.242 133.939)" fill="#464a5f"/>
    <path id="Path_1156" data-name="Path 1156" d="M382.25,545.63s43.347,4.425,75.127.2v3.923s-32.487,4.024-75.127-.7Z" transform="translate(-317.104 -407.667)" opacity="0.1"/>
    <path id="Path_1157" data-name="Path 1157" d="M382.25,544.15s43.347,4.425,75.127.2v3.923s-32.487,4.021-75.127-.7Z" transform="translate(-317.104 -406.591)" fill="#d1d9ec"/>
    <rect id="Rectangle_1923" data-name="Rectangle 1923" width="59.842" height="28.463" transform="translate(72.94 147.114)" fill="#ff9981" opacity="0.3"/>
    <rect id="Rectangle_1924" data-name="Rectangle 1924" width="77.24" height="1.51" transform="translate(64.242 133.939)" opacity="0.1"/>
    <rect id="Rectangle_1925" data-name="Rectangle 1925" width="79.653" height="11.466" transform="translate(63.035 123.582)" fill="#464a5f"/>
    <circle id="Ellipse_413" data-name="Ellipse 413" cx="2.916" cy="2.916" r="2.916" transform="translate(66.655 125.894)" opacity="0.1"/>
    <circle id="Ellipse_414" data-name="Ellipse 414" cx="2.916" cy="2.916" r="2.916" transform="translate(66.655 125.493)" fill="#d1d9ec"/>
    <circle id="Ellipse_415" data-name="Ellipse 415" cx="2.916" cy="2.916" r="2.916" transform="translate(73.797 125.894)" opacity="0.1"/>
    <circle id="Ellipse_416" data-name="Ellipse 416" cx="2.916" cy="2.916" r="2.916" transform="translate(73.797 125.493)" fill="#d1d9ec"/>
    <circle id="Ellipse_417" data-name="Ellipse 417" cx="2.916" cy="2.916" r="2.916" transform="translate(126.295 125.894)" opacity="0.1"/>
    <circle id="Ellipse_418" data-name="Ellipse 418" cx="2.916" cy="2.916" r="2.916" transform="translate(126.295 125.493)" fill="#d1d9ec"/>
    <circle id="Ellipse_419" data-name="Ellipse 419" cx="2.916" cy="2.916" r="2.916" transform="translate(133.437 125.894)" opacity="0.1"/>
    <circle id="Ellipse_420" data-name="Ellipse 420" cx="2.916" cy="2.916" r="2.916" transform="translate(133.437 125.493)" fill="#d1d9ec"/>
    <rect id="Rectangle_1926" data-name="Rectangle 1926" width="22.228" height="6.94" transform="translate(91.397 125.591)" opacity="0.1"/>
    <rect id="Rectangle_1927" data-name="Rectangle 1927" width="21.523" height="6.94" transform="translate(91.799 125.19)" fill="#53526b"/>
    <rect id="Rectangle_1928" data-name="Rectangle 1928" width="0.805" height="7.09" transform="translate(69.571 124.862)" opacity="0.1"/>
    <rect id="Rectangle_1929" data-name="Rectangle 1929" width="0.805" height="7.09" transform="translate(69.17 124.862)" fill="#53526b"/>
    <rect id="Rectangle_1930" data-name="Rectangle 1930" width="0.805" height="7.09" transform="translate(136.352 124.862)" opacity="0.1"/>
    <rect id="Rectangle_1931" data-name="Rectangle 1931" width="0.805" height="7.09" transform="translate(135.951 124.862)" fill="#53526b"/>
    <rect id="Rectangle_1932" data-name="Rectangle 1932" width="0.805" height="7.09" transform="translate(131.435 126.02) rotate(45)" opacity="0.1"/>
    <rect id="Rectangle_1933" data-name="Rectangle 1933" width="0.805" height="7.09" transform="translate(131.434 125.617) rotate(45)" fill="#53526b"/>
    <rect id="Rectangle_1934" data-name="Rectangle 1934" width="0.805" height="7.09" transform="translate(80.256 128.408) rotate(90)" opacity="0.1"/>
    <rect id="Rectangle_1935" data-name="Rectangle 1935" width="0.805" height="7.09" transform="translate(80.259 128.004) rotate(90)" fill="#53526b"/>
    <rect id="Rectangle_1936" data-name="Rectangle 1936" width="77.24" height="1.174" transform="translate(64.242 182.547)" opacity="0.1"/>
    <rect id="Rectangle_1937" data-name="Rectangle 1937" width="79.653" height="20.483" transform="translate(63.035 182.951)" fill="#464a5f"/>
    <circle id="Ellipse_430" data-name="Ellipse 430" cx="0.636" cy="0.636" r="0.636" transform="translate(36.999 128.244)" opacity="0.1"/>
    <circle id="Ellipse_431" data-name="Ellipse 431" cx="0.636" cy="0.636" r="0.636" transform="translate(28.624 128.244)" opacity="0.1"/>
    <circle id="Ellipse_432" data-name="Ellipse 432" cx="0.636" cy="0.636" r="0.636" transform="translate(36.999 128.032)" fill="#fff"/>
    <circle id="Ellipse_433" data-name="Ellipse 433" cx="0.636" cy="0.636" r="0.636" transform="translate(29.26 138.897)" opacity="0.1"/>
    <circle id="Ellipse_434" data-name="Ellipse 434" cx="0.636" cy="0.636" r="0.636" transform="translate(37.264 138.261)" opacity="0.1"/>
    <circle id="Ellipse_435" data-name="Ellipse 435" cx="0.636" cy="0.636" r="0.636" transform="translate(29.26 138.687)" fill="#fff"/>
    <circle id="Ellipse_436" data-name="Ellipse 436" cx="0.636" cy="0.636" r="0.636" transform="translate(28.624 128.032)" fill="#fff"/>
    <circle id="Ellipse_437" data-name="Ellipse 437" cx="0.636" cy="0.636" r="0.636" transform="translate(37.264 138.048)" fill="#fff"/>
  </g>
</svg>
