<svg xmlns="http://www.w3.org/2000/svg" xmlns:xlink="http://www.w3.org/1999/xlink" width="258.787" height="183.109" viewBox="0 0 258.787 183.109">
  <defs>
    <linearGradient id="linear-gradient" x1="0.5" y1="1" x2="0.5" gradientUnits="objectBoundingBox">
      <stop offset="0" stop-color="gray" stop-opacity="0.251"/>
      <stop offset="0.54" stop-color="gray" stop-opacity="0.122"/>
      <stop offset="1" stop-color="gray" stop-opacity="0.102"/>
    </linearGradient>
    <linearGradient id="linear-gradient-2" y2="0" xlink:href="#linear-gradient"/>
  </defs>
  <g id="chat-illustration" transform="translate(48.713 54.172)">
    <g id="Group_877" data-name="Group 877" transform="translate(8.659 26.774)" opacity="0.8">
      <path id="Path_1133" data-name="Path 1133" d="M339.875,341.974H196.52v-92.72a2.924,2.924,0,0,1,2.924-2.924H336.951a2.924,2.924,0,0,1,2.924,2.924Z" transform="translate(-196.52 -246.33)" fill="url(#linear-gradient)"/>
    </g>
    <path id="Path_1134" data-name="Path 1134" d="M60.157,153.77H193.72a2.924,2.924,0,0,1,2.924,2.924V247.73H57.24V156.7A2.924,2.924,0,0,1,60.157,153.77Z" transform="translate(-46.606 -125.312)" fill="#fff"/>
    <rect id="Rectangle_1868" data-name="Rectangle 1868" width="130.428" height="85.549" transform="translate(15.121 33.925)" fill="#f5f5f5"/>
    <rect id="Rectangle_1869" data-name="Rectangle 1869" width="129.875" height="76.967" transform="translate(15.621 38.078)" fill="#e0e0e0" opacity="0.8"/>
    <rect id="Rectangle_1870" data-name="Rectangle 1870" width="129.875" height="4.09" transform="translate(15.621 33.988)" fill="#f5f5f5"/>
    <g id="Group_878" data-name="Group 878" transform="translate(0.049 113.38)" opacity="0.8">
      <path id="Path_1135" data-name="Path 1135" d="M305.975,729.477c-7.98.605-145.025.37-149.812,0C149.885,726.451,150,714.71,150,714.71l62.85-.42.211,3.574h26.894l1.051-3.146h69.649S312.039,725.481,305.975,729.477Z" transform="translate(-149.999 -714.29)" fill="url(#linear-gradient-2)"/>
    </g>
    <path id="Path_1136" data-name="Path 1136" d="M313.759,721.67H245.468a2.1,2.1,0,0,1-1.592,3.468H217.8a2.1,2.1,0,0,1-1.592-3.468H155.06s-.105,10.2,6.1,12.831c4.729.315,140.1.526,147.98,0C315.134,731.023,313.759,721.67,313.759,721.67Z" transform="translate(-154.074 -606.925)" fill="#f5f5f5"/>
    <circle id="Ellipse_391" data-name="Ellipse 391" cx="0.84" cy="0.84" r="0.84" transform="translate(14.335 116.113)" fill="#e0e0e0"/>
    <circle id="Ellipse_392" data-name="Ellipse 392" cx="0.84" cy="0.84" r="0.84" transform="translate(16.857 116.113)" fill="#e0e0e0"/>
    <circle id="Ellipse_393" data-name="Ellipse 393" cx="0.84" cy="0.84" r="0.84" transform="translate(19.378 116.113)" fill="#e0e0e0"/>
    <path id="Path_1137" data-name="Path 1137" d="M306.2,375.85h5.957a25.817,25.817,0,0,1,25.817,25.817v18.768H280.38V401.667A25.817,25.817,0,0,1,306.2,375.85Z" transform="translate(-228.45 -306.291)" fill="#ff9981"/>
    <circle id="Ellipse_394" data-name="Ellipse 394" cx="26.321" cy="26.321" r="26.321" transform="translate(54.462 6.879)" fill="#333"/>
    <path id="Path_1138" data-name="Path 1138" d="M391.674,334.43h7.612a5.367,5.367,0,0,1,5.367,5.367v5.23a8.206,8.206,0,0,1-8.206,8.206h-1.941a8.206,8.206,0,0,1-8.206-8.206V339.8a5.367,5.367,0,0,1,5.367-5.367Z" transform="translate(-314.767 -272.537)" opacity="0.1"/>
    <path id="Path_1139" data-name="Path 1139" d="M386.3,331.53h18.363v10.6a8.206,8.206,0,0,1-8.206,8.206h-1.951a8.206,8.206,0,0,1-8.206-8.206Z" transform="translate(-314.767 -270.174)" fill="#fdb797"/>
    <path id="Path_1140" data-name="Path 1140" d="M536.43,437.794a26.428,26.428,0,0,0,18.363.05V435.59H536.43Z" transform="translate(-464.864 -373.79)" opacity="0.1"/>
    <circle id="Ellipse_395" data-name="Ellipse 395" cx="26.321" cy="26.321" r="26.321" transform="translate(54.462 12.592)" fill="#fdb797"/>
    <path id="Path_1141" data-name="Path 1141" d="M450.26,177.727h50.191s-4.284-20.267-23.26-18.984S450.26,177.727,450.26,177.727Z" transform="translate(-394.641 -148.131)" opacity="0.1"/>
    <path id="Path_1142" data-name="Path 1142" d="M450.26,174.084h50.191s-4.284-20.267-23.26-18.975S450.26,174.084,450.26,174.084Z" transform="translate(-394.641 -145.169)" fill="#333"/>
    <ellipse id="Ellipse_396" data-name="Ellipse 396" cx="2.448" cy="4.592" rx="2.448" ry="4.592" transform="translate(52.557 33.2)" fill="#fdb797"/>
    <ellipse id="Ellipse_397" data-name="Ellipse 397" cx="2.448" cy="4.592" rx="2.448" ry="4.592" transform="translate(103.974 33.2)" fill="#fdb797"/>
    <path id="Path_1143" data-name="Path 1143" d="M467.858,120.9a9.325,9.325,0,0,1,3.383-5.015,17.655,17.655,0,0,1,4.288-1.84,32.771,32.771,0,0,0,6.233-2.981c2.232-1.375,4.329-3.031,6.786-3.94,4.229-1.564,8.939-.718,13.3.4a11.164,11.164,0,0,1,3.111,1.157,11.782,11.782,0,0,1,2.761,2.672l6.929,8.358a13.2,13.2,0,0,1,1.721,2.426,8.347,8.347,0,0,1,.788,2.737,7.194,7.194,0,0,1-.74,4.492,7.083,7.083,0,0,1-5.9,3.1,21.488,21.488,0,0,1-6.812-1.231,133.538,133.538,0,0,0-21.875-4.93,61.7,61.7,0,0,0-11.132-.361c-1.166.076-2.706.611-3.415-.577C466.676,124.341,467.542,121.936,467.858,120.9Z" transform="translate(-408.344 -105.417)" fill="#333"/>
    <line id="Line_15" data-name="Line 15" y2="20.435" transform="translate(63.205 93.708)" fill="none" stroke="#000" stroke-miterlimit="10" stroke-width="4" opacity="0.05"/>
    <line id="Line_16" data-name="Line 16" y2="20.435" transform="translate(98.708 93.708)" fill="none" stroke="#000" stroke-miterlimit="10" stroke-width="4" opacity="0.05"/>
    <g id="Group_879" data-name="Group 879" transform="translate(115.017)" opacity="0.8">
      <path id="Path_1144" data-name="Path 1144" d="M672.865,36.731H639.837l-11.147,9.294V36.731H621.26V0h51.6Z" transform="translate(-621.26)" fill="url(#linear-gradient)"/>
    </g>
    <rect id="Rectangle_1871" data-name="Rectangle 1871" width="50.206" height="35.124" transform="translate(115.716 0.437)" fill="#fff"/>
    <rect id="Rectangle_1872" data-name="Rectangle 1872" width="39.781" height="1.044" transform="translate(121.37 5.6)" fill="#e0e0e0"/>
    <rect id="Rectangle_1873" data-name="Rectangle 1873" width="27.35" height="1.044" transform="translate(121.37 10.301)" fill="#e0e0e0"/>
    <rect id="Rectangle_1874" data-name="Rectangle 1874" width="32.82" height="1.044" transform="translate(121.37 15)" fill="#e0e0e0"/>
    <rect id="Rectangle_1875" data-name="Rectangle 1875" width="26.356" height="1.044" transform="translate(121.37 19.701)" fill="#8674de"/>
    <rect id="Rectangle_1876" data-name="Rectangle 1876" width="39.781" height="1.044" transform="translate(121.37 24.4)" fill="#8674de"/>
    <rect id="Rectangle_1877" data-name="Rectangle 1877" width="39.781" height="1.044" transform="translate(121.37 29.1)" fill="#e0e0e0"/>
    <path id="Path_1145" data-name="Path 1145" d="M671.45,184.369v9.291l10.218-10.22Z" transform="translate(-547.145 -149.491)" fill="#fff"/>
    <path id="Path_1053" data-name="Path 1053" d="M286.519,130.344c-9.1,12.484-6.1,30.3-.837,44.5,1.762,4.753,3.762,9.779,2.849,14.95-1.115,6.321-6.358,11.057-11.808,13.637a31.29,31.29,0,0,1-30.558-1.973c-7.669-5.113-13.068-13.609-20.885-18.478-13.084-8.145-30.07-4.506-44.632,1.713-10.3,4.4-21.587,10.065-31.627,6-7.065-2.858-11.822-10.135-14.325-17.913-1.208-3.756-19.054-11.832-21.462-14.772a16.472,16.472,0,0,0-5.268-3.983c-17.753-9.3-23.588.514-40.8-9.858-11.62-7-18.852-20.6-21.857-34.887s-2.261-29.375-1.064-44.2c.851-10.537,2.2-21.8,8.531-30.077,6.7-8.754,17.929-12.233,27.971-10.862s19.045,6.949,26.921,13.607c9.851,8.306,18.915,18.733,31.167,21.887,8.345,2.147,17.211.627,25.887-.044,14.5-1.12,28.952.17,43.314,1.627,13.749,1.394,27.592,2.951,40.614,7.523,9.215,3.235,16.519,9.349,25.194,13.528,5.654,2.724,11.875,3.356,17.2,6.874,6.568,4.334,12.5,12.013,10.576,21.227C299.8,119.131,291.353,123.719,286.519,130.344Z" transform="translate(-91.913 -78.026)" fill="#6c63ff" opacity="0.1"/>
  </g>
</svg>
