<svg xmlns="http://www.w3.org/2000/svg" width="256.912" height="187.586" viewBox="0 0 256.912 187.586">
  <g id="free-design-illustration" transform="translate(13 5.5)">
    <path id="Path_1180" data-name="Path 1180" d="M207.624,50.076c8.717-8.625,22.4-10.383,34.854-9.7C281.6,42.533,316.914,63.506,347.46,87.23c11.057,8.588,21.944,17.844,29.124,29.67,14.611,24.077,10.276,57.427-10.036,77.271-6.912,6.745-15.288,11.92-23.9,16.5-15.288,8.155-31.8,14.7-49.162,16.564-12.383,1.328-24.914.246-37.224-1.607-34.406-5.187-68.149-16.64-96.443-36.233-12.408-8.594-24.1-19.278-29.211-33.18s-1.845-31.519,10.822-39.747c5.242-3.4,11.507-4.941,17.641-6.384,9.028-2.122,18.2-4.217,26.35-8.537C193.84,97.092,203.8,88.464,202.14,78.59,200.351,68,198.926,58.691,207.624,50.076Z" transform="translate(-141.301 -45.742)" fill="#6c63ff" opacity="0.1"/>
    <circle id="Ellipse_438" data-name="Ellipse 438" cx="7.31" cy="7.31" r="7.31" transform="translate(136.573 45.699)" fill="#2f2e41"/>
    <path id="Path_1159" data-name="Path 1159" d="M762.2,308.717a7.31,7.31,0,0,1-10.326,10.326A7.31,7.31,0,1,0,762.2,308.717Z" transform="translate(-613.394 -261.114)" opacity="0.1"/>
    <circle id="Ellipse_439" data-name="Ellipse 439" cx="5.117" cy="5.117" r="5.117" transform="translate(146.32 40.095)" fill="#2f2e41"/>
    <path id="Path_1160" data-name="Path 1160" d="M789.177,302.157a5.113,5.113,0,0,1-5.1-4.751c-.009.121-.018.242-.018.365a5.117,5.117,0,1,0,10.234,0c0-.123-.01-.244-.018-.365A5.113,5.113,0,0,1,789.177,302.157Z" transform="translate(-637.74 -252.559)" opacity="0.1"/>
    <path id="Path_1161" data-name="Path 1161" d="M780.79,278.262a5.1,5.1,0,0,1,6.4-4.949,5.115,5.115,0,1,0-3.293,9.654,5.117,5.117,0,0,1-3.105-4.705Z" transform="translate(-634.714 -234.024)" fill="#2f2e41"/>
    <path id="Path_1162" data-name="Path 1162" d="M798.873,292.635a5.1,5.1,0,0,1,4.595-6.657,5.115,5.115,0,1,0-.209,10.2A5.118,5.118,0,0,1,798.873,292.635Z" transform="translate(-648.178 -243.898)" fill="#2f2e41"/>
    <path id="Path_1163" data-name="Path 1163" d="M801.581,290a5.1,5.1,0,0,1,.715-8.057,5.115,5.115,0,1,0,4.847,8.975A5.118,5.118,0,0,1,801.58,290Z" transform="translate(-649.239 -240.864)" fill="#2f2e41"/>
    <path id="Path_1164" data-name="Path 1164" d="M766.037,345.422s-7.8,5.361-7.31,2.924c.273-1.369-.763-4.281-1.723-6.567-.746-1.779-1.445-3.18-1.445-3.18l8.528-2.193a13.537,13.537,0,0,0,.032,3.911A12.521,12.521,0,0,0,766.037,345.422Z" transform="translate(-616.185 -282.057)" fill="#ffc1c7"/>
    <path id="Path_1165" data-name="Path 1165" d="M565.487,349.475,565,353.617l6.823-.731,1.218-4.386Z" transform="translate(-427.33 -263.205)" fill="#ffc1c7"/>
    <path id="Path_1166" data-name="Path 1166" d="M703.983,367.314l-1.462,1.706s-4.142.244-1.949-5.117a164.109,164.109,0,0,1,7.554-14.62s3.411-8.285,4.63-5.117-2.437,7.31-2.437,7.31-4.63,8.285-4.142,11.94Z" transform="translate(-574.111 -287.38)" fill="#ffc1c7"/>
    <path id="Path_1167" data-name="Path 1167" d="M703.983,367.314l-1.462,1.706s-4.142.244-1.949-5.117a164.109,164.109,0,0,1,7.554-14.62s3.411-8.285,4.63-5.117-2.437,7.31-2.437,7.31-4.63,8.285-4.142,11.94Z" transform="translate(-574.111 -287.38)" opacity="0.1"/>
    <path id="Path_1168" data-name="Path 1168" d="M812.56,666.33s10.965,11.7,12.183,15.107-1.949,8.772-3.168,9.016-1.462,1.706,0,1.949,6.335-1.949,7.8-4.386,2.437-4.142,3.168-4.63a2.926,2.926,0,0,0,0-3.9c-1.218-1.218-11.208-10.478-12.427-16.082Z" transform="translate(-659.296 -529.379)" fill="#ffc1c7"/>
    <path id="Path_1169" data-name="Path 1169" d="M851.443,725.283s-.487,4.873-4.873,2.68c0,0-1.949-2.193-1.949.487s-.975,7.31-4.142,9.016,2.193,2.437,2.924,2.193,5.6-1.949,6.335-3.411a55.271,55.271,0,0,1,4.386-6.092C855.1,728.938,853.88,724.8,851.443,725.283Z" transform="translate(-679.661 -576.149)" fill="#2f2e41"/>
    <path id="Path_1170" data-name="Path 1170" d="M767.576,512.406s3.411,1.462,2.193,11.452a7.626,7.626,0,0,0,1.706,6.579c2.68,3.411,9.99,14.376,9.99,19.006,0,0-7.066,4.873-9.747,4.63S758.56,535.8,758.56,535.8Z" transform="translate(-618.454 -415.172)" fill="#2f2e41"/>
    <path id="Path_1171" data-name="Path 1171" d="M767.576,512.406s3.411,1.462,2.193,11.452a7.626,7.626,0,0,0,1.706,6.579c2.68,3.411,9.99,14.376,9.99,19.006,0,0-7.066,4.873-9.747,4.63S758.56,535.8,758.56,535.8Z" transform="translate(-618.454 -415.172)" opacity="0.1"/>
    <path id="Path_1172" data-name="Path 1172" d="M654.522,665.406s.487,17.544-2.437,19.493c0,0-3.9,5.6-6.335,5.6s-2.193,1.949-.975,2.193,1.462.975,6.335-.975,7.31-2.437,8.041-2.437,1.462-.975,0-3.9,4.142-17.787,4.142-17.787Z" transform="translate(-531.715 -530.891)" fill="#ffc1c7"/>
    <path id="Path_1173" data-name="Path 1173" d="M655.376,737.751a17.528,17.528,0,0,1-4.142,1.462c-1.706.244-2.665-1.482-2.307-2.081s-1.1-.112-2.079,2.081c0,0-4.142,4.873-6.579,5.117s-2.456,3.542-1.218,3.655c1.34.122,3.655.975,6.579,0s5.6-3.655,6.823-3.655,5.361-1.949,4.142-2.924S655.376,737.751,655.376,737.751Z" transform="translate(-527.453 -584.962)" fill="#2f2e41"/>
    <path id="Path_1174" data-name="Path 1174" d="M725.423,388.013s-10.234,7.649-11.7,8.38-3.168,6.335-3.168,6.335,8.772-2.437,10.234-4.142S725.423,388.013,725.423,388.013Z" transform="translate(-582.15 -321.089)" fill="#ffc1c7"/>
    <path id="Path_1175" data-name="Path 1175" d="M725.423,388.013s-10.234,7.649-11.7,8.38-3.168,6.335-3.168,6.335,8.772-2.437,10.234-4.142S725.423,388.013,725.423,388.013Z" transform="translate(-582.15 -321.089)" opacity="0.1"/>
    <circle id="Ellipse_440" data-name="Ellipse 440" cx="6.579" cy="6.579" r="6.579" transform="translate(135.842 47.649)" fill="#ffc1c7"/>
    <path id="Path_1176" data-name="Path 1176" d="M694.129,476.029s-4.386,11.452-4.63,12.427-8.528,18.031-9.99,25.1a73.757,73.757,0,0,1-1.949,8.285s7.31,3.168,12.67,4.873,7.8,1.706,7.8,1.706-1.218-2.924.731-8.041,5.848-21.442,5.848-21.442,3.117-9.625,2.437-16.569a25.941,25.941,0,0,1-.058-5.388,2.107,2.107,0,0,0-2.232-2.353C701.138,474.871,695.29,475.365,694.129,476.029Z" transform="translate(-557.191 -386.592)" fill="#2f2e41"/>
    <path id="Path_1177" data-name="Path 1177" d="M753.266,366.912s-3.168-.487-4.63.244-3.9.487-3.655.975,1.462,3.168.487,4.142-1.949,5.361-3.9,6.579-4.873,5.361-.975,9.016c0,0,1.218,4.63,0,5.6s3.9-.975,3.9-.975a10.614,10.614,0,0,1,3.168,1.218c1.706.975,5.6.731,5.6.731s1.706-7.554,2.68-9.259S759.113,370.08,753.266,366.912Z" transform="translate(-603.413 -305.009)" fill="#ff9981"/>
    <path id="Path_1178" data-name="Path 1178" d="M745.4,383.306s-5.6.975-1.949,6.579a97.783,97.783,0,0,1,6.823,13.158s.731,1.218-1.706,2.193-11.94,5.6-11.94,5.6-6.335.975-6.092,1.462,2.68,0,2.68,0-1.706,4.63,1.218,4.63,4.386-2.924,4.386-2.924,15.838-5.6,16.813-6.335a2.544,2.544,0,0,0,.707-1.423,7.223,7.223,0,0,0-.227-3.969C754.471,397.433,749.08,382.489,745.4,383.306Z" transform="translate(-597.255 -317.504)" fill="#ffc1c7"/>
    <path id="Path_1179" data-name="Path 1179" d="M756.306,307.061a5.361,5.361,0,1,0,3.1,5.641,5.36,5.36,0,0,0-3.1-5.641Z" transform="translate(-608.999 -257.475)" fill="#2f2e41"/>
    <ellipse id="Ellipse_441" data-name="Ellipse 441" cx="0.609" cy="1.584" rx="0.609" ry="1.584" transform="translate(139.984 54.959)" fill="#ffc1c7"/>
    <circle id="Ellipse_442" data-name="Ellipse 442" cx="5.361" cy="5.361" r="5.361" transform="translate(76.51 7.323)" fill="#b09a51"/>
    <rect id="Rectangle_1938" data-name="Rectangle 1938" width="7.797" height="7.797" transform="translate(9.99 75.061)" fill="#b09a51"/>
    <rect id="Rectangle_1939" data-name="Rectangle 1939" width="55.555" height="32.407" rx="16.004" transform="translate(44.103 38.024)" fill="#f2f2f2"/>
    <circle id="Ellipse_443" data-name="Ellipse 443" cx="21.93" cy="21.93" r="21.93" transform="translate(6.457 16.216)" fill="#f2f2f2"/>
    <circle id="Ellipse_444" data-name="Ellipse 444" cx="21.93" cy="21.93" r="21.93" transform="translate(10.112 14.023)" fill="none" stroke="#3f3d56" stroke-miterlimit="10" stroke-width="1"/>
    <rect id="Rectangle_1940" data-name="Rectangle 1940" width="55.555" height="32.407" rx="14.693" transform="translate(38.621 32.542)" fill="none" stroke="#3f3d56" stroke-miterlimit="10" stroke-width="1"/>
    <circle id="Ellipse_445" data-name="Ellipse 445" cx="5.361" cy="5.361" r="5.361" transform="translate(78.703 5.13)" fill="none" stroke="#3f3d56" stroke-miterlimit="10" stroke-width="1"/>
    <rect id="Rectangle_1941" data-name="Rectangle 1941" width="7.797" height="7.797" transform="translate(11.208 73.599)" fill="none" stroke="#3f3d56" stroke-miterlimit="10" stroke-width="1"/>
    <rect id="Rectangle_1942" data-name="Rectangle 1942" width="7.797" height="7.797" transform="translate(0 1.962)" fill="#b09a51"/>
    <rect id="Rectangle_1943" data-name="Rectangle 1943" width="7.797" height="7.797" transform="translate(1.218 0.5)" fill="none" stroke="#3f3d56" stroke-miterlimit="10" stroke-width="1"/>
    <line id="Line_17" data-name="Line 17" x2="100.633" transform="translate(97.587 163.389)" fill="none" stroke="#3f3d56" stroke-miterlimit="10" stroke-width="1"/>
  </g>
</svg>
