<svg xmlns="http://www.w3.org/2000/svg" xmlns:xlink="http://www.w3.org/1999/xlink" width="353.636" height="218.931" viewBox="0 0 353.636 218.931">
  <defs>
    <linearGradient id="linear-gradient" x1="0.5" y1="1" x2="0.5" gradientUnits="objectBoundingBox">
      <stop offset="0" stop-color="gray" stop-opacity="0.251"/>
      <stop offset="0.54" stop-color="gray" stop-opacity="0.122"/>
      <stop offset="1" stop-color="gray" stop-opacity="0.102"/>
    </linearGradient>
    <linearGradient id="linear-gradient-2" x1="-4.28" y1="0.935" x2="-4.28" y2="-0.076" xlink:href="#linear-gradient"/>
    <linearGradient id="linear-gradient-3" x1="0.5" y1="1" x2="0.5" y2="0" xlink:href="#linear-gradient"/>
  </defs>
  <g id="illustration-2" transform="translate(-7.344 15.922)">
    <path id="Path_865" data-name="Path 865" d="M260.582,211.033c-22.67.2-44.446-5.764-65.271-12.411s-41.48-14.112-63.7-17.16c-14.3-1.97-30.564-1.66-41.8,5.969-10.813,7.334-14.01,19.354-15.59,30.448-1.189,8.349-1.769,17.108,2.416,24.707,2.906,5.271,7.91,9.6,11.431,14.62,12.258,17.473,4.658,39.957-7.5,58.013-5.693,8.457-12.357,16.6-16.7,25.55s-6.145,19.066-1.855,27.829c4.255,8.688,13.949,14.944,24.375,19.193,21.177,8.632,45.869,10.333,69.917,10.882,53.228,1.209,106.594-2.477,159.812-6.159,19.7-1.362,39.48-2.734,58.783-6.4,10.72-2.033,21.763-5.01,29.395-11.415,9.688-8.132,11.752-21.308,4.806-30.717-11.652-15.776-42.611-18.533-50.94-35.637-4.585-9.416-.5-20.283,5.447-29.437,12.8-19.641,34.71-37.3,35.226-59.176.356-15.015-10.893-29.575-27.771-35.973-17.7-6.715-41.9-4.771-54.413,8.065C303.782,205.02,280.606,210.858,260.582,211.033Z" transform="translate(-52.22 -195.898)" fill="#b09a51" opacity="0.1"/>
    <path id="Path_866" data-name="Path 866" d="M948.94,681.128s-3.937-2.6-7.84-.753c0,0,1.2,2.316,6.142,2.1Z" transform="translate(-651.329 -504.621)" fill="#6c63ff"/>
    <path id="Path_867" data-name="Path 867" d="M961.54,684.56s1.2,4.562-1.8,7.667c0,0-1.807-1.881-.016-6.488Z" transform="translate(-663.446 -507.915)" fill="#6c63ff"/>
    <path id="Path_868" data-name="Path 868" d="M963.2,664.832s-.292-3.88-9.054-2.6a4.189,4.189,0,0,0,3.037,3.691C960.263,667.113,961.669,666.113,963.2,664.832Z" transform="translate(-660.198 -492.566)" fill="#6c63ff"/>
    <path id="Path_869" data-name="Path 869" d="M978.64,670.81s3.7,1.189.4,9.406c0,0-2.441-.545-2.883-3.816S977.035,672,978.64,670.81Z" transform="translate(-675.096 -498.57)" fill="#6c63ff"/>
    <path id="Path_870" data-name="Path 870" d="M981.613,641.368s.5-6.385-8.452-5.728c0,0-.641,5.767,6.872,7.266Z" transform="translate(-673.11 -474.635)" fill="#6c63ff"/>
    <g id="plant">
      <path id="Path_871" data-name="Path 871" d="M996.415,619.5s-1.227-7.237-10.175-5.081c0,0-.035,6.257,8.714,6.8Z" transform="translate(-682.007 -459.973)" fill="#8674de"/>
      <path id="Path_872" data-name="Path 872" d="M1008.365,596.555s-2.057-7.048-10.925-4.94c0,0,2.111,6.34,10.335,6.241Z" transform="translate(-689.619 -444.48)" fill="#8674de"/>
      <path id="Path_873" data-name="Path 873" d="M1021.932,573.409s-2.009-7.314-10.573-5.126c0,0,2.858,6.949,10.005,6.366Z" transform="translate(-699.079 -428.613)" fill="#8674de"/>
      <path id="Path_874" data-name="Path 874" d="M1032.418,548.188s-1.544-8.945-9.528-6.965c0,0,2.316,8.138,8.939,8.266Z" transform="translate(-706.915 -410.306)" fill="#8674de"/>
      <path id="Path_875" data-name="Path 875" d="M1039.3,522.9s-1.852-9.019-9.932-6.408c0,0,3.169,8.522,9.362,7.641Z" transform="translate(-711.319 -393.371)" fill="#8674de"/>
      <path id="Path_876" data-name="Path 876" d="M1045.678,494.612s-2.944-9.016-9.188-8.772c0,0,3.011,9.525,8.65,10.573Z" transform="translate(-716.158 -372.858)" fill="#8674de"/>
      <path id="Path_877" data-name="Path 877" d="M1050.638,468.211s-3.2-10.854-8.288-10.018c0,0,2.22,8.3,8.105,11.71Z" transform="translate(-720.141 -354.04)" fill="#8674de"/>
      <path id="Path_878" data-name="Path 878" d="M1053.01,441.326s-3-9.044-8.01-9.406c0,0,2.041,8.9,7.907,11.755Z" transform="translate(-721.942 -336.216)" fill="#8674de"/>
      <path id="Path_879" data-name="Path 879" d="M1056.888,415.359s-3.745-9.054-7.048-9.259c0,0,1.627,8.916,6.728,10.746Z" transform="translate(-725.231 -318.668)" fill="#8674de"/>
      <path id="Path_880" data-name="Path 880" d="M1061.233,387.839s-2.3-9.836-5.613-10.649c0,0,.452,8.045,5.28,11.386Z" transform="translate(-729.159 -299.02)" fill="#8674de"/>
      <path id="Path_881" data-name="Path 881" d="M1066.173,359.181s-2.422-7.837-5.1-9.032c0,0,.532,9.24,4.485,10.951Z" transform="translate(-732.863 -280.643)" fill="#8674de"/>
      <path id="Path_882" data-name="Path 882" d="M1075.992,327.951l.49-13.821s-5,10.432-.859,16.259Z" transform="translate(-741.637 -256.164)" fill="#8674de"/>
      <path id="Path_883" data-name="Path 883" d="M1088.212,291.8s3.608-10.092,4.485-10.656c0,0-7.08,6.549-6.388,14.971Z" transform="translate(-749.984 -233.743)" fill="#8674de"/>
      <path id="Path_884" data-name="Path 884" d="M997.261,653.437s6.35-.833,6.158,8.144c0,0-5.738.932-7.609-6.488Z" transform="translate(-688.511 -486.749)" fill="#8674de"/>
      <path id="Path_885" data-name="Path 885" d="M1015.894,630.37s7.34-.022,6.728,9.163c0,0-6.158,1.1-8.192-7.426Z" transform="translate(-701.166 -471.086)" fill="#8674de"/>
      <path id="Path_886" data-name="Path 886" d="M1030.516,608.457s6.661-3.124,10.925,4.94c0,0-6.155,2.6-11.511-3.636Z" transform="translate(-711.7 -455.789)" fill="#8674de"/>
      <path id="Path_887" data-name="Path 887" d="M1043.631,583.884s6.821-3.322,10.826,4.553c0,0-7.1,2.448-11.386-3.306Z" transform="translate(-720.63 -439.021)" fill="#8674de"/>
      <path id="Path_888" data-name="Path 888" d="M1051.711,558.31s6.565-6.273,11.806.07c0,0-6.709,5.158-12.107,1.326Z" transform="translate(-726.298 -420.232)" fill="#8674de"/>
      <path id="Path_889" data-name="Path 889" d="M1058.714,530.97s6.606-6.408,11.8.295c0,0-7.414,5.264-12.037,1.051Z" transform="translate(-731.103 -401.655)" fill="#8674de"/>
      <path id="Path_890" data-name="Path 890" d="M1063.07,498.685s5.088-8.01,11.076-6.219c0,0-5.277,8.48-11.021,8.1Z" transform="translate(-734.223 -377.187)" fill="#8674de"/>
      <path id="Path_891" data-name="Path 891" d="M1067.471,471.293s5.126-10.089,9.973-8.33c0,0-3.694,7.753-10.1,10.031Z" transform="translate(-737.125 -357.174)" fill="#8674de"/>
      <path id="Path_892" data-name="Path 892" d="M1067.769,444.708s5.27-7.939,10.207-6.971c0,0-4.309,8.051-10.717,9.269Z" transform="translate(-737.07 -340.113)" fill="#8674de"/>
      <path id="Path_893" data-name="Path 893" d="M1070.1,415.361s4.085-8.907,7.407-8.971c0,0-1.964,8.846-7.132,10.483Z" transform="translate(-739 -318.865)" fill="#8674de"/>
      <path id="Path_894" data-name="Path 894" d="M1072.63,390.651s4.54-9.025,7.952-9.041c0,0-2.323,7.715-7.8,9.832Z" transform="translate(-740.72 -302.024)" fill="#8674de"/>
      <path id="Path_895" data-name="Path 895" d="M1074.76,362.441s3.4-7.465,6.209-8.311c0,0-1.7,9.1-5.834,10.291Z" transform="translate(-742.167 -283.348)" fill="#8674de"/>
      <path id="Path_896" data-name="Path 896" d="M1079.175,331.929l7.59-11.559s-1.945,11.406-8.7,13.776Z" transform="translate(-744.417 -260.404)" fill="#8674de"/>
      <path id="Path_897" data-name="Path 897" d="M1089.985,302.294s8.823-6.087,9.141-7.074c0,0-4.485,8.529-12.815,10.034Z" transform="translate(-750.017 -243.312)" fill="#8674de"/>
      <path id="Path_898" data-name="Path 898" d="M1098.914,288.124s10.127-9.733,12.713-9.724a16.532,16.532,0,0,0-12.956,9.208Z" transform="translate(-758.417 -231.881)" fill="#8674de"/>
    </g>
    <path id="Path_899" data-name="Path 899" d="M1075.07,331.352l.368.048c1.9-14.9,4.677-23.708,7.814-24.788l-.122-.352C1079.805,307.413,1077.018,316.089,1075.07,331.352Z" transform="translate(-742.378 -250.815)" fill="#444053"/>
    <path id="Path_900" data-name="Path 900" d="M1066.34,417.852l.557.048c.115-1.39.2-2.816.266-4.232.532-12.328,1.355-23.651,2.441-32.137l-.32-.4c-1.086,8.5-2.143,20.168-2.675,32.515C1066.551,415.049,1066.455,416.471,1066.34,417.852Z" transform="translate(-736.445 -301.698)" fill="#444053"/>
    <path id="Path_901" data-name="Path 901" d="M932.478,560.9c.1-.042,9.913-4.424,20.1-14.878A80.87,80.87,0,0,0,967.265,525.2c4.706-9.589,7.577-21.373,8.541-32.82l-.583.272c-2.159,25.695-13.86,43.251-23.16,52.815-10.086,10.358-19.787,14.7-19.883,14.737Z" transform="translate(-645.267 -377.306)" fill="#444053"/>
    <path id="Path_902" data-name="Path 902" d="M483.259,143.193V309.284c0,4.937-4.764,8.971-10.646,8.971H247.266c-5.882,0-10.646-4.018-10.646-8.971V143.193c0-4.947,4.764-9.993,10.646-9.993l225.333.548C478.482,133.748,483.259,138.262,483.259,143.193Z" transform="translate(-172.551 -133.2)" fill="#fff"/>
    <path id="Path_903" data-name="Path 903" d="M483.258,143.244v7.689H236.62v-7.689A10.044,10.044,0,0,1,246.674,133.2H473.218A10.044,10.044,0,0,1,483.258,143.244Z" transform="translate(-172.551 -133.2)" fill="#b09a51"/>
    <g id="Group_857" data-name="Group 857" transform="translate(157.511 59.729)" opacity="0.2">
      <path id="Path_904" data-name="Path 904" d="M580.092,320.71v17.941c0,.535-1,.961-2.243.961H530.523c-1.237,0-2.243-.433-2.243-.961V320.71c0-.535,1-1.08,2.243-1.08h47.327C579.092,319.627,580.092,320.171,580.092,320.71Z" transform="translate(-528.28 -319.63)" fill="#b09a51"/>
    </g>
    <rect id="Rectangle_1836" data-name="Rectangle 1836" width="24.656" height="0.871" transform="translate(171.255 66.133)" fill="#4e4e4e"/>
    <rect id="Rectangle_1837" data-name="Rectangle 1837" width="24.656" height="0.871" transform="translate(171.255 68.254)" fill="#4e4e4e" opacity="0.2"/>
    <rect id="Rectangle_1838" data-name="Rectangle 1838" width="24.656" height="0.871" transform="translate(171.255 70.375)" fill="#4e4e4e" opacity="0.2"/>
    <rect id="Rectangle_1839" data-name="Rectangle 1839" width="24.656" height="0.871" transform="translate(171.255 72.499)" fill="#4e4e4e" opacity="0.2"/>
    <g id="Group_858" data-name="Group 858" transform="translate(101.954 94.865)" opacity="0.2">
      <path id="Path_906" data-name="Path 906" d="M406.682,430.38v17.941c0,.532-1,.961-2.243.961H357.113c-1.237,0-2.243-.436-2.243-.961V430.38c0-.535,1-1.08,2.243-1.08h47.333C405.682,429.3,406.682,429.845,406.682,430.38Z" transform="translate(-354.87 -429.3)" fill="#b09a51"/>
    </g>
    <rect id="Rectangle_1840" data-name="Rectangle 1840" width="24.656" height="0.871" transform="translate(115.695 101.272)" fill="#4e4e4e"/>
    <rect id="Rectangle_1841" data-name="Rectangle 1841" width="24.656" height="0.871" transform="translate(115.695 103.393)" fill="#4e4e4e" opacity="0.2"/>
    <rect id="Rectangle_1842" data-name="Rectangle 1842" width="24.656" height="0.871" transform="translate(115.695 105.514)" fill="#4e4e4e" opacity="0.2"/>
    <rect id="Rectangle_1843" data-name="Rectangle 1843" width="24.656" height="0.871" transform="translate(115.695 107.635)" fill="#4e4e4e" opacity="0.2"/>
    <g id="Group_859" data-name="Group 859" transform="translate(89.18 37.968)" opacity="0.2">
      <path id="Path_908" data-name="Path 908" d="M366.806,252.79v17.941c0,.532-1,.961-2.243.961h-47.32c-1.233,0-2.243-.436-2.243-.961V252.79c0-.535,1-1.08,2.243-1.08h47.327C365.806,251.71,366.806,252.255,366.806,252.79Z" transform="translate(-315 -251.71)" fill="#b09a51"/>
    </g>
    <rect id="Rectangle_1844" data-name="Rectangle 1844" width="24.656" height="0.871" transform="translate(102.915 44.376)" fill="#4e4e4e"/>
    <rect id="Rectangle_1845" data-name="Rectangle 1845" width="24.656" height="0.871" transform="translate(102.915 46.497)" fill="#4e4e4e" opacity="0.2"/>
    <rect id="Rectangle_1846" data-name="Rectangle 1846" width="24.656" height="0.871" transform="translate(102.915 48.618)" fill="#4e4e4e" opacity="0.2"/>
    <rect id="Rectangle_1847" data-name="Rectangle 1847" width="24.656" height="0.871" transform="translate(102.915 50.739)" fill="#4e4e4e" opacity="0.2"/>
    <g id="Group_860" data-name="Group 860" transform="translate(170.442 122.846)" opacity="0.2">
      <path id="Path_910" data-name="Path 910" d="M620.455,517.716v17.941c0,.535-1,.961-2.243.961h-47.33c-1.237,0-2.243-.432-2.243-.961V517.716c0-.535,1-1.076,2.243-1.076h47.336C619.456,516.623,620.455,517.165,620.455,517.716Z" transform="translate(-568.64 -516.639)" fill="#b09a51"/>
    </g>
    <rect id="Rectangle_1848" data-name="Rectangle 1848" width="24.656" height="0.871" transform="translate(184.185 129.235)" fill="#4e4e4e"/>
    <rect id="Rectangle_1849" data-name="Rectangle 1849" width="24.656" height="0.871" transform="translate(184.185 131.356)" fill="#4e4e4e" opacity="0.2"/>
    <rect id="Rectangle_1850" data-name="Rectangle 1850" width="24.656" height="0.871" transform="translate(184.185 133.48)" fill="#4e4e4e" opacity="0.2"/>
    <rect id="Rectangle_1851" data-name="Rectangle 1851" width="24.656" height="0.871" transform="translate(184.185 135.601)" fill="#4e4e4e" opacity="0.2"/>
    <path id="Path_912" data-name="Path 912" d="M434.871,583.854l-7.029-10.191s-.131-2.525-.593-3.114-.1-1.9-.1-1.9.493-.721.067-.788-.067-1.672-.067-1.672l-.032-2.563s.394-2.461.067-3.05a.961.961,0,0,1,.032-1.048s.394-1.41,0-1.772-.3-2.563-.2-4.293a6.549,6.549,0,0,0-.689-2.983c0-.263-2.6-2.816-2.6-3.047a6.487,6.487,0,0,0-2.63-1.442c-.987-.263-1.477-.458-1.445-.589s-1.544-.641-1.544-.641a3.124,3.124,0,0,1-1.906-.785,4,4,0,0,0-2.179-.894l-.029-.138-.029-.147c.122-.208.237-.423.343-.641.032-.067.061-.131.09-.2a2.814,2.814,0,0,0,1.618-.5,2.195,2.195,0,0,0,.785-1.573,3.47,3.47,0,0,0-.381-1.746,2.968,2.968,0,0,1-.567-1.842c.064-.276.231-.519.32-.788a2.082,2.082,0,0,0-.237-1.554c-.247-.474-.593-.894-.871-1.355a5.26,5.26,0,0,1-.692-1.922,2.961,2.961,0,0,0-.256-1.044,2,2,0,0,0-.577-.583,5.767,5.767,0,0,0-3.524-1.07,17.1,17.1,0,0,1-2.675.163,9.8,9.8,0,0,1-1.56-.407,4.052,4.052,0,0,0-3.332.17c-.958.631-1.342,1.871-1.993,2.842a22.449,22.449,0,0,0-1.855,2.486v-.054a3.156,3.156,0,0,0-.243.663,4.722,4.722,0,0,0,.144,2.172,1.512,1.512,0,0,0,.532.961,3.079,3.079,0,0,0,1.15.227c-.016.061-.032.125-.045.186a7.368,7.368,0,0,0-.163,1.56,7.51,7.51,0,0,0,5.363,7.2v.2a5.259,5.259,0,0,1-.032.564h0s-3.3-.679-4.187-.218-2.63.817-2.883,1.08-.919.067-1.512,1.6-.657,3.114-1.41,3.844-1.15,1.214-1.185,1.74.1.641-.2.817-.724.852-.593,1.115a.929.929,0,0,1-.362.984,1.092,1.092,0,0,0-.458.984s-.2.721-.657.884-.756,1.246-.756,1.246l-1.49,1.714-2.954-3.268a1.246,1.246,0,0,0-1.756-.09l-1.455,1.291a2.864,2.864,0,0,0-1.451.865,3.763,3.763,0,0,0-.75,1.118l-.794.714a2.012,2.012,0,0,0-.205,2.227l1.893,2.092v.019a3.309,3.309,0,0,0-1.829.743c-2.823,2.493-2.858,4.786-2.428,5.834s4.008,5.081,4.008,5.081a16,16,0,0,0,5.081,4.142h0l-.022.022c-.061.064-.119.131-.176.205l-.048.064a.459.459,0,0,0-.045.064l-.054.077-.042.064-.058.1-.035.061-.067.128-.022.042c-.006.013-.054.119-.08.179l-.029.067a.358.358,0,0,1-.051.128l-.029.087a.542.542,0,0,1-.042.128l-.029.093c-.013.045-.026.093-.038.144a.43.43,0,0,1-.022.086c-.006.029-.035.157-.051.237a.813.813,0,0,0,0,.093,1.45,1.45,0,0,0-.029.17.312.312,0,0,1-.016.119.773.773,0,0,0-.022.163.8.8,0,0,0,0,.125v.622c-.067,3.844.157,4.392.157,4.392a2.127,2.127,0,0,0,1.743,1.307,2.3,2.3,0,0,0,.564-.029c1.708-.3,5.716-.984,7.128-.721a12.194,12.194,0,0,0,3.54-.288l.295-.058.205.641.641-.179.551.32.349.2c.641,2.2,3.281,1.448,3.281,1.448l.625.362,6.34.163a12.747,12.747,0,0,0,2.243,1.077,2.025,2.025,0,0,0,.32.07,14.222,14.222,0,0,0,1.765.032c.487,0,.862-.032.862-.032s-.064-1.72-.157-3.649a51.7,51.7,0,0,0,5.873-.481c3.386-.6,4.806-3.675,5.318-5.318a15.035,15.035,0,0,1,.32,2.041,14.883,14.883,0,0,0,.525,1.769,5.907,5.907,0,0,0,.724,1.313c2.5-.852.984-2.13.458-2.688s.362-1.016.362-1.016.692-.461.641-.887-.1-.884,2.137-.852S434.871,583.854,434.871,583.854ZM400.18,562.927a15.25,15.25,0,0,0,.622,2.739,3.492,3.492,0,0,1,.074,1.08c-1.323-.106-2.7-.163-2.7-.163a.321.321,0,0,1,.07.17l-.208-.048-.3-.074,2.441-3.707Zm-4.831,7.689,2.291.365.192.029a8.178,8.178,0,0,0-.119,1.083c0,.032.051.074.125.122a3.442,3.442,0,0,0-.045.541,6.335,6.335,0,0,0,2.339.9c-.019.064-.035.128-.051.186h0c-1.086-.57-2.794-.836-2.992-1.259s-6.01-2.457-6.01-2.457-.215-.112-.58-.288l1.531.288.42-.042a22.921,22.921,0,0,0,2.9.529Z" transform="translate(-268.428 -401.147)" fill="url(#linear-gradient)"/>
    <path id="Path_913" data-name="Path 913" d="M445.02,681.8s-.913,5.5-5.536,6.318-20.056.641-20.056.641-8.823-1.282-12.014-8.724-5.245-10.422-2.509-10.55,17.486,4.982,18.332,5.046S445.833,663.209,445.02,681.8Z" transform="translate(-286.054 -497.668)" fill="#65617d"/>
    <path id="Path_914" data-name="Path 914" d="M445.02,681.8s-.913,5.5-5.536,6.318-20.056.641-20.056.641-8.823-1.282-12.014-8.724-5.245-10.422-2.509-10.55,17.486,4.982,18.332,5.046S445.833,663.209,445.02,681.8Z" transform="translate(-286.054 -497.668)" opacity="0.05"/>
    <path id="Path_915" data-name="Path 915" d="M403.288,709.33a2.111,2.111,0,0,0,1.72,1.314,2.245,2.245,0,0,0,.557-.032c1.692-.292,5.664-.961,7.064-.714a12.208,12.208,0,0,0,3.524-.285c.737-.138,1.282-.269,1.282-.269s-1.3-4.332-1.464-4.46-5.873-3.563-5.873-3.563l-4.514-.32h0a2.374,2.374,0,0,0-1.528.9,4.792,4.792,0,0,0-.913,3.072C403.063,708.788,403.288,709.33,403.288,709.33Z" transform="translate(-285.712 -519.088)" fill="#3f3d56"/>
    <path id="Path_916" data-name="Path 916" d="M403.3,709.33a2.111,2.111,0,0,0,1.72,1.314,18.477,18.477,0,0,1-1.224-1.788l.022-3.159A5.568,5.568,0,0,1,405.6,701h0s-2.377.163-2.441,3.973A19.139,19.139,0,0,0,403.3,709.33Z" transform="translate(-285.723 -519.088)" opacity="0.05"/>
    <path id="Path_917" data-name="Path 917" d="M459.164,684.53l4.2-3.287,6.609-6.513-1.791-.08c-.269.17-1.019.708-1.048,1.362-.032.795-1.785.055-2.7.509s-5.373,6.164-6.148,6.129-1.4-.4-1.724.157a.315.315,0,0,1-.026.035Z" transform="translate(-322.013 -501.18)" opacity="0.1"/>
    <path id="Path_918" data-name="Path 918" d="M406,701.907l.455.208c3.2,1.368,7.128,4.232,7.423,4.754a30.51,30.51,0,0,0,4.226,2.742c.737-.138,1.282-.269,1.282-.269s-1.3-4.332-1.464-4.46-5.869-3.563-5.869-3.563l-4.514-.32h0A2.374,2.374,0,0,0,406,701.907Z" transform="translate(-287.665 -519.088)" opacity="0.1"/>
    <path id="Path_919" data-name="Path 919" d="M377.919,660.741c.423,1.041,3.973,5.046,3.973,5.046a15.507,15.507,0,0,0,5.447,4.3c3.2,1.368,7.132,4.232,7.423,4.755a36.133,36.133,0,0,0,4.524,2.919l.4.234.887.516.471.269s1.089-.875,2.175-1.756,2.14-1.743,2.156-1.791c.032-.1.455-1.2.356-1.281-.051-.032-.272-.484-.686-1.006a4.618,4.618,0,0,0-1.656-1.371,4.7,4.7,0,0,1-2.15-2.243s-.144-.1-.359-.24a4.358,4.358,0,0,0-1.464-.641c-.718-.09-2.05-1.554-2.05-1.554a4.013,4.013,0,0,1-1.282-1.336c-.343-.714-5.392-4.165-5.86-4.485l12.251,7.846,2.931,1.881,4.2-3.287L416.22,661l-2.182-.1c-3.2-.141-8.916-.359-9.637-.2a5.443,5.443,0,0,1-1.791.115,6.279,6.279,0,0,1-2.7-.493c-1.073-.567-2.771-.833-2.967-1.253s-5.959-2.441-5.959-2.441-7.846-4.165-10.646-1.692S377.489,659.7,377.919,660.741Z" transform="translate(-268.445 -487.255)" fill="#65617d"/>
    <path id="Path_920" data-name="Path 920" d="M457.31,579.6l1.009,3.354,1.3,7.555,4.786.32,1.387-2.3,1.381-2.291s.862-3.053,1.483-6.007c.548-2.611.9-5.148.32-5.424-.529-.244-.875-1.125-1.1-2.07-.029-.115-.054-.234-.077-.352a18.42,18.42,0,0,1-.32-2.428s-10.031-.522-8.631,3.614a6.531,6.531,0,0,1,.378,2.2,5.254,5.254,0,0,1-.032.561A4.687,4.687,0,0,1,457.31,579.6Z" transform="translate(-322.536 -430.013)" fill="#ee8e9e"/>
    <path id="Path_921" data-name="Path 921" d="M450.8,592.634l.359,5.7.814,4.851.913,2.243.814,12.29s7.849.91,9.759,0a.835.835,0,0,0,.346-.269c2.307-3.483,1.551-13.568,1.551-13.568l.887-6.523-.586-3.38-1.416-.151-1.092-.115s-.247.3-.6.772c-.961,1.281-2.742,3.78-2.624,4.828.163,1.432-.2,2.883-.75,3.124s-1.009.621-1.105.231a1.763,1.763,0,0,1-.1-1.041,8.449,8.449,0,0,0-.423-2.243,9.465,9.465,0,0,1-.814-2.832,3.324,3.324,0,0,0-.359-2.05c-.263-.227-.618-.458-.32-1.5s-1.281-3.069-1.281-3.069Z" transform="translate(-318.112 -443.603)" fill="#e3e8f4"/>
    <path id="Path_922" data-name="Path 922" d="M483.141,599.1l.32,9.736,1.881,1.044a.814.814,0,0,0,.346-.272c2.307-3.483,1.551-13.568,1.551-13.568l.878-6.513-.586-3.38L486.114,586c.548-2.611.907-5.145.32-5.421-.529-.247-.878-1.125-1.1-2.07h0l-1.019,6.885s.086.618.115,1.259a3.567,3.567,0,0,1-.083,1.214,4.05,4.05,0,0,0-.064,1.628,13.235,13.235,0,0,0-1.022,4.806C483.067,596.762,483.141,599.1,483.141,599.1Z" transform="translate(-340.082 -435.841)" opacity="0.1"/>
    <path id="Path_923" data-name="Path 923" d="M485.734,578s1.64.205,2.159.887a3.083,3.083,0,0,0,1.89.782,7.465,7.465,0,0,1,1.528.641c-.035.119.458.32,1.435.586a6.456,6.456,0,0,1,2.6,1.435c0,.231,2.563,2.765,2.563,3.028a6.525,6.525,0,0,1,.682,2.964c-.1,1.727-.2,3.905.2,4.264s0,1.759,0,1.759a.961.961,0,0,0-.032,1.041c.32.586-.067,3.028-.067,3.028l.035,2.541s-.359,1.6.064,1.66-.064.782-.064.782-.359,1.3.1,1.89.586,3.092.586,3.092l6.968,10.127s.1,1.855-2.118,1.823-2.182.423-2.115.846-.618.881-.618.881-.881.455-.359,1.009,2.018,1.823-.455,2.669a5.892,5.892,0,0,1-.718-1.3,15.163,15.163,0,0,1-.522-1.759s-.227-2.477-.682-2.8-.391-1.89-.391-1.89.641-1.281-.259-1.791-14.132-7.846-14.132-7.846l-.32-9.736s-.227-7.2,1.141-9.611a4.049,4.049,0,0,1,.064-1.628,8.475,8.475,0,0,0-.032-2.477Z" transform="translate(-340.455 -435.495)" fill="#3f3d56"/>
    <path id="Path_924" data-name="Path 924" d="M438.2,589.417s-3.274-.676-4.165-.221-2.6.814-2.864,1.077-.913.064-1.5,1.6-.641,3.092-1.4,3.809-1.141,1.2-1.173,1.724.1.641-.2.814-.714.849-.586,1.109,6.773,5.991,6.773,5.991a15.193,15.193,0,0,0,.618,2.736c.3.554-.32,8.173-.977,8.692s4.408.471,4.408.471.231-5,.426-5.261a51.882,51.882,0,0,0-.131-5.6s-.032-4.559.391-5.767a26.348,26.348,0,0,0,.375-5.209,10.772,10.772,0,0,1,.83-2.964C439.487,591.858,438.2,589.417,438.2,589.417Z" transform="translate(-301.459 -442.997)" opacity="0.1"/>
    <path id="Path_925" data-name="Path 925" d="M437.908,589.113s-3.274-.673-4.165-.218-2.6.814-2.864,1.073-.913.067-1.5,1.6-.641,3.095-1.4,3.809-1.141,1.2-1.173,1.727.1.641-.2.814-.718.846-.586,1.109,6.773,5.991,6.773,5.991a15.116,15.116,0,0,0,.618,2.733c.3.551-.32,8.173-.977,8.7s4.4.471,4.4.471.227-5,.423-5.257a51.89,51.89,0,0,0-.131-5.6s-.032-4.559.391-5.767a26.411,26.411,0,0,0,.378-5.209,10.742,10.742,0,0,1,.827-2.964C439.18,591.561,437.908,589.113,437.908,589.113Z" transform="translate(-301.26 -442.792)" fill="#3f3d56"/>
    <path id="Path_926" data-name="Path 926" d="M461.8,573.589a6.528,6.528,0,0,1,.378,2.2,7.458,7.458,0,0,0,8.567-3.383,18.445,18.445,0,0,1-.32-2.429S460.4,569.453,461.8,573.589Z" transform="translate(-325.494 -430.026)" opacity="0.1"/>
    <path id="Path_927" data-name="Path 927" d="M446.64,549.425a7.439,7.439,0,1,0,.16-1.551A7.439,7.439,0,0,0,446.64,549.425Z" transform="translate(-315.285 -411.008)" fill="#ee8e9e"/>
    <path id="Path_928" data-name="Path 928" d="M417.843,619.11l-1.791.554a.923.923,0,0,1-.359.961,1.086,1.086,0,0,0-.455.961s-.2.718-.641.881-.746,1.237-.746,1.237l-1.5,1.727s-.554.455-.455.682-.586.292-.586.292l.359,5.8,3.092.583,1.922-.2,1.563-.583,1.368-.817.618-1.6,2.733-4.165Z" transform="translate(-291.274 -463.434)" fill="#3f3d56"/>
    <path id="Path_929" data-name="Path 929" d="M395.755,635.862s-3.973-5.732-6.936-2.637,1.2,8.106,2.182,7.942,5.635-.423,5.635-.423Z" transform="translate(-275.277 -472.403)" fill="#ee8e9e"/>
    <path id="Path_930" data-name="Path 930" d="M447.14,547.9a.9.9,0,0,1,.548.247c.25.266.263.737.593.9a.693.693,0,0,0,.388.045c.865-.125,1.365-1.1,2.2-1.371a2.243,2.243,0,0,1,1.458.125,1.108,1.108,0,0,1,.481.32c.279.362.083.891.211,1.326.179.605.9.846,1.528.923a2.652,2.652,0,0,1,1.746.6,1.6,1.6,0,0,1,.32,1.259,1.006,1.006,0,0,0,0,.468c.173.487,1.019.417,1.24.029.16-.279.112-.513.49-.589a1.6,1.6,0,0,1,.8.138,5.8,5.8,0,0,0,2.063.32,7.458,7.458,0,1,0-14.045-4.722Z" transform="translate(-315.625 -411.031)" opacity="0.1"/>
    <path id="Path_931" data-name="Path 931" d="M452.7,544.06a1.006,1.006,0,0,1,0-.468,1.6,1.6,0,0,0-.32-1.259,2.675,2.675,0,0,0-1.746-.6c-.625-.08-1.349-.32-1.528-.923-.128-.436.067-.961-.211-1.326a1.073,1.073,0,0,0-.481-.32,2.243,2.243,0,0,0-1.458-.128c-.833.269-1.333,1.246-2.2,1.371a.7.7,0,0,1-.388-.045c-.32-.167-.343-.641-.593-.9-.4-.42-1.147-.151-1.631-.461a1.483,1.483,0,0,1-.525-.961,4.668,4.668,0,0,1-.144-2.159c.282-1.211,1.365-2.041,2.057-3.076.641-.961,1.006-2.182,1.974-2.823a3.942,3.942,0,0,1,3.3-.17,9.237,9.237,0,0,0,1.547.407,17.17,17.17,0,0,0,2.65-.16,5.677,5.677,0,0,1,3.5,1.064,1.921,1.921,0,0,1,.57.577,2.908,2.908,0,0,1,.256,1.038,5.267,5.267,0,0,0,.686,1.9c.276.458.618.875.865,1.349a2.06,2.06,0,0,1,.234,1.541c-.083.269-.247.509-.32.785a2.939,2.939,0,0,0,.561,1.829,3.454,3.454,0,0,1,.381,1.737,2.191,2.191,0,0,1-.782,1.56,2.793,2.793,0,0,1-1.65.5,5.872,5.872,0,0,1-2.1-.32,1.6,1.6,0,0,0-.795-.138c-.381.077-.32.32-.493.59C453.724,544.477,452.878,544.547,452.7,544.06Z" transform="translate(-311.735 -402.558)" fill="#3f3d56"/>
    <path id="Path_932" data-name="Path 932" d="M457.915,685.107l4.2-3.287,6.609-6.513-2.182-.1a1.422,1.422,0,0,0-.461.887c-.032.8-1.785.058-2.7.513s-5.373,6.164-6.148,6.126-1.4-.394-1.724.157l-.026.038a.926.926,0,0,1-.5.295Z" transform="translate(-320.96 -501.561)" opacity="0.1"/>
    <path id="Path_933" data-name="Path 933" d="M437.69,680.058l2.111,6.728.32,1.057,1.006-.276,2.217-.609,9.868-2.71a8.562,8.562,0,0,0,3.553-.961,10.742,10.742,0,0,1,6.132-1.339c1.3.122,2.755-.439,3.96-2.666,0,0,2.733-8.074-4.165-10.384s-7.234,1.227-7.234,1.227l-.093.058c-.269.17-1.019.708-1.048,1.362-.032.794-1.785.054-2.7.509s-5.366,6.19-6.142,6.155-1.4-.4-1.724.157a.312.312,0,0,1-.026.035c-.24.32-.961.41-1.445.423h-.452l-.061.019-.5.147Z" transform="translate(-309.202 -496.739)" fill="#65617d"/>
    <path id="Path_934" data-name="Path 934" d="M439.4,655.542l1.016.163.423-4.2s-.465-.07-1.048-.2A21.934,21.934,0,0,1,439.4,655.542Z" transform="translate(-310.364 -485.311)" opacity="0.1"/>
    <path id="Path_935" data-name="Path 935" d="M466.319,603.064s3.028-.878,2.281,7.718a24.009,24.009,0,0,1-6.35,14.033s-6.449,2.832-9.346,2.377-5.008-.554-5.008-.554a7.411,7.411,0,0,0-2.932-.782c-1.628-.064-5.046-1.073-5.126-1.4s.849-5.11.458-5.469c0,0,4.559.186,5.014.516s1.105.093,1.6,0a5.57,5.57,0,0,1,4.95-.256,2.964,2.964,0,0,0,1.4-.163,1.4,1.4,0,0,1,1.019-.064,2.8,2.8,0,0,0,.7-.359c.1-.128.881,0,.881,0a.346.346,0,0,0,.487-.227,2.132,2.132,0,0,1,.455-.714s.881-4.95,2.541-6.8a1.063,1.063,0,0,0,.359-.945C459.578,609.446,462.41,602.014,466.319,603.064Z" transform="translate(-310.66 -452.46)" opacity="0.1"/>
    <path id="Path_936" data-name="Path 936" d="M448.85,701.71l4.3,5.206.029-.032c.032-.1.455-1.2.356-1.281a5.979,5.979,0,0,0-2.345-2.377,4.463,4.463,0,0,1-1.839-1.676Z" transform="translate(-316.787 -519.462)" opacity="0.1"/>
    <path id="Path_937" data-name="Path 937" d="M448.8,717.944l.471.269s1.089-.875,2.175-1.756,2.14-1.743,2.156-1.791c.032-.1.455-1.2.356-1.282-.051-.032-.272-.484-.686-1.006-2.915-.817-1.057,1.208-.811,1.3a2.971,2.971,0,0,0-3.745,3.05A4.612,4.612,0,0,0,448.8,717.944Z" transform="translate(-316.692 -526.69)" opacity="0.1"/>
    <path id="Path_938" data-name="Path 938" d="M453.064,719.6l.622.359,6.283.163a12.7,12.7,0,0,0,2.223,1.07,2.068,2.068,0,0,0,.32.07,14.652,14.652,0,0,0,1.753.032c.481,0,.852-.032.852-.032s-.3-7.926-.522-8.759c-.106-.4-.641-.32-1.153-.112a7.432,7.432,0,0,0-1.125.57,20.041,20.041,0,0,0-3.095.487c-.426.231-1.628-.131-2.377,0s-2.082-.881-2.082-.881c-3.646-1.2-1.6,1.041-1.336,1.141a2.969,2.969,0,0,0-3.742,3.05C449.488,720.623,453.064,719.6,453.064,719.6Z" transform="translate(-317.348 -526.709)" fill="#3f3d56"/>
    <path id="Path_939" data-name="Path 939" d="M488.6,716.553c.067,1.64,1.346,3.678,2.111,4.754.481,0,.852-.032.852-.032s-.3-7.926-.522-8.759c-.106-.4-.641-.32-1.153-.112A9.16,9.16,0,0,0,488.6,716.553Z" transform="translate(-343.802 -526.721)" fill="#565387"/>
    <path id="Path_940" data-name="Path 940" d="M488.6,716.553c.067,1.64,1.346,3.678,2.111,4.754.481,0,.852-.032.852-.032s-.3-7.926-.522-8.759c-.106-.4-.641-.32-1.153-.112A9.16,9.16,0,0,0,488.6,716.553Z" transform="translate(-343.802 -526.721)" opacity="0.1"/>
    <path id="Path_941" data-name="Path 941" d="M485.035,716.771c.433,1.583.426,3.361,1.115,4.434a2.076,2.076,0,0,0,.32.07,14.652,14.652,0,0,0,1.753.032c.481,0,.852-.032.852-.032s-.3-7.926-.522-8.759c-.106-.4-.641-.32-1.153-.112a7.435,7.435,0,0,0-1.125.57S484.48,714.743,485.035,716.771Z" transform="translate(-341.306 -526.721)" opacity="0.05"/>
    <path id="Path_942" data-name="Path 942" d="M417.59,676.26a13,13,0,0,1,5.767,4.61Z" transform="translate(-295.542 -502.274)" opacity="0.1"/>
    <g id="Group_861" data-name="Group 861" transform="translate(129.687 132.692)" opacity="0.1">
      <path id="Path_943" data-name="Path 943" d="M496.488,554.3l-.019.07a2.2,2.2,0,0,1-.109.272A1.921,1.921,0,0,1,496.488,554.3Z" transform="translate(-478.763 -552.08)"/>
      <path id="Path_944" data-name="Path 944" d="M441.5,548.011a2.927,2.927,0,0,1,.24-.641c-.016.054-.032.112-.045.17a4.671,4.671,0,0,0,.144,2.159,1.483,1.483,0,0,0,.525.961c.484.32,1.233.042,1.628.458.253.266.266.74.593.9a.641.641,0,0,0,.391.045c.865-.122,1.365-1.1,2.2-1.368a2.2,2.2,0,0,1,1.455.125,1.073,1.073,0,0,1,.484.32c.279.359.083.891.211,1.326.179.6.9.843,1.525.923a2.673,2.673,0,0,1,1.749.6,1.576,1.576,0,0,1,.32,1.259,1.035,1.035,0,0,0,0,.465c.173.49,1.019.416,1.24.032.16-.282.112-.513.49-.593a1.634,1.634,0,0,1,.8.138,5.868,5.868,0,0,0,2.1.32,2.838,2.838,0,0,0,1.65-.5,1.971,1.971,0,0,0,.506-.618,2.083,2.083,0,0,1-.7,1.105,2.794,2.794,0,0,1-1.65.5,5.864,5.864,0,0,1-2.1-.32,1.6,1.6,0,0,0-.8-.138c-.378.077-.32.32-.49.589-.221.388-1.067.458-1.24-.029a1.047,1.047,0,0,1,0-.468,1.576,1.576,0,0,0-.32-1.259,2.684,2.684,0,0,0-1.749-.6c-.628-.08-1.346-.32-1.525-.923-.128-.436.067-.961-.211-1.326a1.073,1.073,0,0,0-.481-.32,2.243,2.243,0,0,0-1.458-.128c-.833.269-1.333,1.246-2.2,1.371a.705.705,0,0,1-.391-.045c-.32-.167-.34-.641-.593-.9-.394-.42-1.144-.151-1.628-.461a1.483,1.483,0,0,1-.525-.961A4.667,4.667,0,0,1,441.5,548.011Z" transform="translate(-441.433 -547.37)"/>
    </g>
    <path id="Path_945" data-name="Path 945" d="M492.809,627.407c-.6.8-1.282,1.551-1.8,2.4a4.559,4.559,0,0,0-.791,2.842,7.546,7.546,0,0,0,1.141-2.038,28.939,28.939,0,0,1,2.188-3.294c.141-.208,1.041-1.416.586-1.474C493.754,625.8,493.023,627.132,492.809,627.407Z" transform="translate(-344.893 -468.012)" opacity="0.1"/>
    <path id="Path_946" data-name="Path 946" d="M371.168,589.1l6.526,12.341c.2.365-.336,1.028-1.185,1.48l-32.573,17.227c-.849.448-1.7.516-1.89.147l-6.526-12.338c-.2-.368.295-1.109,1.144-1.557l32.573-17.227C370.088,588.727,370.976,588.736,371.168,589.1Z" transform="translate(-239.736 -442.857)" fill="#fff"/>
    <g id="Group_862" data-name="Group 862" transform="translate(95.741 145.976)" opacity="0.2">
      <path id="Path_947" data-name="Path 947" d="M371.168,589.1l6.526,12.341c.2.365-.336,1.028-1.185,1.48l-32.573,17.227c-.849.448-1.7.516-1.89.147l-6.526-12.338c-.2-.368.295-1.109,1.144-1.557l32.573-17.227C370.088,588.727,370.976,588.736,371.168,589.1Z" transform="translate(-335.476 -588.834)" fill="#b09a51"/>
    </g>
    <rect id="Rectangle_1852" data-name="Rectangle 1852" width="19.194" height="0.676" transform="translate(107.359 163.512) rotate(-27.87)" fill="#4e4e4e"/>
    <rect id="Rectangle_1853" data-name="Rectangle 1853" width="19.194" height="0.676" transform="translate(108.132 164.974) rotate(-27.87)" fill="#4e4e4e" opacity="0.2"/>
    <rect id="Rectangle_1854" data-name="Rectangle 1854" width="19.194" height="0.676" transform="translate(108.903 166.43) rotate(-27.87)" fill="#4e4e4e" opacity="0.2"/>
    <rect id="Rectangle_1855" data-name="Rectangle 1855" width="19.194" height="0.676" transform="translate(109.676 167.893) rotate(-27.87)" fill="#4e4e4e" opacity="0.2"/>
    <path id="Path_949" data-name="Path 949" d="M404.66,642.876c-.032,4.3,8.859,5.209,8.859,5.209l2.271.359,1.016.163.423-4.2s-.465-.07-1.048-.205c-.859-.2-1.974-.548-2.207-1.035C413.582,642.354,404.692,638.576,404.66,642.876Z" transform="translate(-286.754 -478.213)" fill="#ee8e9e"/>
    <path id="Path_950" data-name="Path 950" d="M466.055,601.011s3.028-.878,2.281,7.718a24.009,24.009,0,0,1-6.35,14.033s-6.449,2.832-9.346,2.377-5.014-.554-5.014-.554a7.41,7.41,0,0,0-2.931-.782c-1.628-.064-5.046-1.073-5.126-1.4s.849-5.126.458-5.469c0,0,4.559.186,5.014.516s1.105.093,1.6,0a5.557,5.557,0,0,1,4.95-.256,2.963,2.963,0,0,0,1.4-.163,1.4,1.4,0,0,1,1.019-.064,2.8,2.8,0,0,0,.7-.359c.1-.128.881,0,.881,0a.343.343,0,0,0,.487-.227,2.167,2.167,0,0,1,.455-.718s.881-4.947,2.541-6.8a1.054,1.054,0,0,0,.359-.942C459.315,607.393,462.15,599.98,466.055,601.011Z" transform="translate(-310.476 -451.067)" fill="#3f3d56"/>
    <path id="Path_951" data-name="Path 951" d="M804.825,267.05v17.941c0,.535-1,.961-2.243.961H755.243c-1.237,0-2.243-.432-2.243-.961V267.05c0-.535,1-1.08,2.243-1.08h47.346C803.825,265.98,804.825,266.515,804.825,267.05Z" transform="translate(-523.493 -223.433)" fill="#fff"/>
    <g id="Group_863" data-name="Group 863" transform="translate(223.971 45.802)" opacity="0.1">
      <path id="Path_952" data-name="Path 952" d="M787.535,277.24v17.941c0,.532-1,.961-2.243.961h-47.33c-1.237,0-2.243-.436-2.243-.961V277.24c0-.535,1-1.08,2.243-1.08H785.3C786.532,276.16,787.535,276.7,787.535,277.24Z" transform="translate(-735.72 -276.16)" fill="#b09a51"/>
    </g>
    <path id="Path_953" data-name="Path 953" d="M804.825,267.05v17.941c0,.535-1,.961-2.243.961H755.243c-1.237,0-2.243-.432-2.243-.961V267.05c0-.535,1-1.08,2.243-1.08h47.346C803.825,265.98,804.825,266.515,804.825,267.05Z" transform="translate(-523.493 -223.433)" fill="#fff"/>
    <g id="Group_864" data-name="Group 864" transform="translate(229.507 42.537)" opacity="0.2">
      <path id="Path_954" data-name="Path 954" d="M804.825,267.05v17.941c0,.535-1,.961-2.243.961H755.243c-1.237,0-2.243-.432-2.243-.961V267.05c0-.535,1-1.08,2.243-1.08h47.346C803.825,265.98,804.825,266.515,804.825,267.05Z" transform="translate(-753 -265.97)" fill="#b09a51"/>
    </g>
    <rect id="Rectangle_1856" data-name="Rectangle 1856" width="24.656" height="0.871" transform="translate(243.26 48.945)" fill="#4e4e4e"/>
    <rect id="Rectangle_1857" data-name="Rectangle 1857" width="24.656" height="0.871" transform="translate(243.26 51.065)" fill="#4e4e4e" opacity="0.2"/>
    <rect id="Rectangle_1858" data-name="Rectangle 1858" width="24.656" height="0.871" transform="translate(243.26 53.186)" fill="#4e4e4e" opacity="0.2"/>
    <rect id="Rectangle_1859" data-name="Rectangle 1859" width="24.656" height="0.871" transform="translate(243.26 55.307)" fill="#4e4e4e" opacity="0.2"/>
    <path id="Path_956" data-name="Path 956" d="M809.261,438.546c-.442-1.6-.73-3.005-.73-3.005a6.247,6.247,0,0,0-.82-3.047l-.016-.439h0l-.128-3.255a10.973,10.973,0,0,1,.756-1.73c.545-1.041-.183-4.758-.183-4.758s-2.371-5.187-1.97-8.548-5.02-14.67-5.02-14.67a14.739,14.739,0,0,1,.343-3.294,2.62,2.62,0,0,0,.035-.692.73.73,0,0,0,0-.083v.026c-.16-2.2-2.06-6.263-2.06-6.263l-.07-7.885a23.12,23.12,0,0,0-1.121-10.848c-.718-2.15-1.189-3.877-1.5-5.209-.035-.151-.07-.295-.1-.436,3.713-.711,6.545-1.282,6.545-1.282s-2.512-8.971-4.037-10.508-2.883-6.468-2.883-6.468-1.006-6.372.151-8.288a12.508,12.508,0,0,0,1.2-5.177s2.73-2.15,3.047-3.069a14.978,14.978,0,0,0,.782-4.056,25.457,25.457,0,0,1-.32-2.6c.109-.57-.926-2.688-.5-3.726a2.764,2.764,0,0,0,.151-.99V318.2a13.82,13.82,0,0,0-.349-2.646,7.541,7.541,0,0,0-2.839-1.381l-.07-.24-.183-.641c-.1-.058-.189-.109-.282-.154v-.231l-.061-.919.359-2.086c.727-3.63-4.094-3.982-4.094-3.982a2.505,2.505,0,0,0-1.4-1.137c-.98-.32.045,5.418.513,5.767a21.9,21.9,0,0,1,2.006,2.883h0l.09.141a2.187,2.187,0,0,0-.211.24l.231,1.24.035.192a5.021,5.021,0,0,0-.714,1.333,2.79,2.79,0,0,1,.779,2.012,6.177,6.177,0,0,0,.388,2.48c-.055-.058-.7-.7-1.307-.513s-2.316.769-2.316.769-1.281.276-1.15.554-.817,1.563-.817,1.563l-3.588-3.146c-.038-.1-.077-.192-.112-.292a8.21,8.21,0,0,1-.356-1.426,7.789,7.789,0,0,0,1.093-.394,2.392,2.392,0,0,0,.935-.641,3.922,3.922,0,0,0,.5-1.512,21.039,21.039,0,0,1,1.173-2.912,9.314,9.314,0,0,0,.471-5.145,3.415,3.415,0,0,0-.589-1.483c-.6-.756-1.631-1.035-2.4-1.624s-1.282-1.519-2.172-1.951a4.042,4.042,0,0,0-2.634-.125,14.056,14.056,0,0,0-4.838,1.97,2.478,2.478,0,0,1-1.6.6,2.183,2.183,0,0,1-1.214-.823.263.263,0,0,1,0-.048l-.042-.042a6.117,6.117,0,0,0-.436,2.608,1.8,1.8,0,0,0,.032.413v.144a.772.772,0,0,1,0,.122h0a.732.732,0,0,1-.019.186,1.334,1.334,0,0,1-.32.477,2.885,2.885,0,0,0-.269.4.49.49,0,0,1,.042-.144,2.024,2.024,0,0,0-.32,1.105,1.089,1.089,0,0,0,.288.772,3.759,3.759,0,0,0,.583.433,6.253,6.253,0,0,0-.061,1.153,6.7,6.7,0,0,0,3.479,5.584c.045.1.087.192.131.292a8.292,8.292,0,0,1,.772,3.749,1.96,1.96,0,0,1-.032.276c-.013.09-.083.1-.118.151h0s-5.712.276-7.1-.891-3.281,3.1-3.281,3.1-2.031.477-2.457.1-2.813.051-2.813.051a5.152,5.152,0,0,0-3.617-1.166,10.6,10.6,0,0,0-2.678-1.355h0l-.067-.019h0a2.942,2.942,0,0,0-1.282-.115,26.353,26.353,0,0,1-3.768-3.428c-.868-1.214-4.947-5.687-4.966-5.709l-.022-.221-.07-.673a2.415,2.415,0,0,1-.349.045l-.087-.231a12.324,12.324,0,0,0-.9-1.871s-.032-.852.208-1.073-.231-3.326-.231-3.326-2.759-5.821-4.857-1.314c0,0-4.165,3.024-.452,6.212,0,0,1.464.641,1.688,1.185.147.352.673,1.333,1.025,1.983.058.109.112.205.157.292l-.038.035.074.554.029.215c-.66.41-1.105.811-.984,1.1a6.2,6.2,0,0,1,.468,1.512s5.216,6.039,5.962,8.679c0,0,13.648,7.417,18.06,7.814l-.577,3.986a31.582,31.582,0,0,0-.051,3.236c.09.849-.346,4.722-.346,4.722s-.545,5.693-1.157,6.513-.368,4.21-.368,4.21a28.623,28.623,0,0,1-.692,4.851,12.371,12.371,0,0,0,0,4.822s-2.028,5.184,3.165,1.522c0,0,2.608-.263,5.613-.481v.3c0,.388.019.807.032,1.249.07,2.922.208,6.946.458,9.986.445,5.373,2.493,15.945,2.493,15.945l.205,5.35a7.354,7.354,0,0,0-.093,1.535,9.933,9.933,0,0,0,1.634,5.315l.548,3.55a14.031,14.031,0,0,1,1.125,3.72,1.926,1.926,0,0,1-.029.343,2.369,2.369,0,0,0-.026.548,30.115,30.115,0,0,0,1.134,5.462s.208,3.905.8,4.111c.509.173-.58,2.278-.907,2.883q-.016-.055-.026-.112c-.042.08-.067.122-.067.122a2.787,2.787,0,0,0-.144,1,1.416,1.416,0,0,0,.7,1.349c1.137.641,1.756,1.179.823,1.442a9.941,9.941,0,0,0-1.025.259c0-.045-.038-.09-.054-.131a.641.641,0,0,0-.359.7,2.947,2.947,0,0,0,.4,1.314,14.232,14.232,0,0,0,1.7,2.829l.445-.067a2.333,2.333,0,0,1-.24.493,1.9,1.9,0,0,1-.641.612,2.023,2.023,0,0,1-.788.32,2.243,2.243,0,0,0-1.628.871,1.719,1.719,0,0,0,.32,2.678l4.242,1.281s7.234.66,6.789-.942-.73-3.005-.73-3.005a6.408,6.408,0,0,0-.7-2.842,3.52,3.52,0,0,0-.269-.413l.253-.038s.388-3.588,1.064-4.3c.157-.16.189-.282.147-.375.064-.2-.122-.32-.362-.359a.514.514,0,0,1-.045.141,3.589,3.589,0,0,0-.7-.051s-.32-1.858.429-2.563a.718.718,0,0,0,.125-.561,3.034,3.034,0,0,0-.109-.756.2.2,0,0,0-.022.045,27.784,27.784,0,0,0-1.852-4.328,5.386,5.386,0,0,1,.32-2.393c.442-.7-.417-9.233-.417-9.233a27.874,27.874,0,0,0-.583-6.046,6.787,6.787,0,0,1,.484-4.216.6.6,0,0,0-.019-.125V399.9s-.035-.253-.093-.641a.207.207,0,0,1,0,.042c-.157-1.089-.458-3.063-.641-3.976-.285-1.281-.231-7.535-.231-7.535l.961-2.7,2.05,4.517,2.227,6.042a5.22,5.22,0,0,1,1.109,2.563v.192a3.509,3.509,0,0,0,0,.41,3.646,3.646,0,0,0,.689,2.153s.641,2.883,1.487,3.575a3.263,3.263,0,0,1,.9,2.121,35.87,35.87,0,0,0,1.653,4.873,7.352,7.352,0,0,1,.519,2.832h0v.154s.2,1.493.24,2.752v.416a4.553,4.553,0,0,1-.083,1.022v-.151a10.772,10.772,0,0,0-.2,2.621,6.676,6.676,0,0,0,1.282,4.3c1.65,1.753,2.637,1.487,2.637,1.487s-.673,2.294-1.6,2.784a.673.673,0,0,0-.1.067.908.908,0,0,0-.026-.128,1.1,1.1,0,0,0-.244.852,6.115,6.115,0,0,0,1.282,3.316,1.864,1.864,0,0,0,.807.429,1.576,1.576,0,0,1-.141.1,3.023,3.023,0,0,1-.32.163,1.571,1.571,0,0,1-.474.141,2.259,2.259,0,0,0-1.628.871,1.721,1.721,0,0,0,.32,2.678l4.242,1.282S809.719,440.148,809.261,438.546Z" transform="translate(-512.932 -248.169)" fill="url(#linear-gradient-2)"/>
    <path id="Path_957" data-name="Path 957" d="M865.7,721.949l-4.107-1.281a1.764,1.764,0,0,1-.3-2.682,2.163,2.163,0,0,1,1.573-.868,1.921,1.921,0,0,0,.763-.32,1.8,1.8,0,0,0,.618-.612,3,3,0,0,0,.4-1.583s4.4-1.474,5.664-.218a3.418,3.418,0,0,1,.57.769,6.615,6.615,0,0,1,.676,2.845s.282,1.4.711,3.005S865.7,721.949,865.7,721.949Z" transform="translate(-596.764 -527.84)" fill="#2d293d"/>
    <path id="Path_958" data-name="Path 958" d="M927.341,713.38l-4.1-1.281a1.756,1.756,0,0,1-.3-2.675,2.14,2.14,0,0,1,1.573-.868,1.6,1.6,0,0,0,.458-.144,2.645,2.645,0,0,0,.32-.163,2.56,2.56,0,0,0,1.022-2.195s4.4-1.474,5.664-.218a3.127,3.127,0,0,1,.449.561,6.419,6.419,0,0,1,.8,3.05s.282,1.41.711,3.008S927.341,713.38,927.341,713.38Z" transform="translate(-638.657 -522.029)" fill="#2d293d"/>
    <path id="Path_959" data-name="Path 959" d="M877.608,714.423a3.419,3.419,0,0,1,.57.769h0l-6.638,1.028a3,3,0,0,0,.4-1.583S876.339,713.168,877.608,714.423Z" transform="translate(-604.055 -527.866)" opacity="0.1"/>
    <path id="Path_960" data-name="Path 960" d="M937.739,706.376l.048,1.25c-.961,1.749-6,1.567-7.487.766a2.65,2.65,0,0,0,.32-.163,2.56,2.56,0,0,0,1.022-2.195s4.4-1.474,5.664-.218A3.135,3.135,0,0,1,937.739,706.376Z" transform="translate(-643.99 -522.016)" opacity="0.1"/>
    <path id="Path_961" data-name="Path 961" d="M878.539,552.023a11,11,0,0,0-.727,1.73l.17,4.485c-1.06,1.922-6.975,1.519-7.808.529s-1.785-3.617-.894-4.107,1.538-2.781,1.538-2.781-.961.263-2.563-1.49-1.3-5.792-1.054-6.766a20.085,20.085,0,0,0-.163-4.194,8.4,8.4,0,0,0-.51-2.986,37.228,37.228,0,0,1-1.6-4.873,3.351,3.351,0,0,0-.875-2.124c-.82-.708-1.442-3.575-1.442-3.575a3.716,3.716,0,0,1-.66-2.412,4.944,4.944,0,0,0-1.076-2.909l-2.163-6.042-1.99-4.521-.913,2.707s-.045,6.241.234,7.535.75,4.735.75,4.735a6.975,6.975,0,0,0-.461,4.216,28.786,28.786,0,0,1,.573,6.049s.836,8.532.41,9.23a5.644,5.644,0,0,0-.32,2.393s2.515,4.9,1.8,5.6-.413,2.563-.413,2.563,1.6-.061.935.641-1.028,4.3-1.028,4.3l-6.818,1.057a14.2,14.2,0,0,1-1.647-2.832c-.987-2.063.1-1.874,1-2.137s.32-.8-.8-1.445-.538-2.191-.538-2.191,1.535-2.839.961-3.044-.782-4.111-.782-4.111-1.31-4.6-1.076-5.86-1.07-4.213-1.07-4.213l-.532-3.553a9.817,9.817,0,0,1-1.506-6.693l-.2-5.514s-2-10.573-2.428-15.961c-.279-3.441-.42-8.144-.484-11.082-.035-1.647-.048-2.739-.048-2.739L866.7,486.15a20.354,20.354,0,0,0,.583,3.617c.3,1.333.759,3.06,1.458,5.209a23.917,23.917,0,0,1,1.1,10.851l.077,7.881s2.355,5.184,1.97,7.016a15.24,15.24,0,0,0-.32,3.3s5.257,11.313,4.876,14.673,1.922,8.551,1.922,8.551S879.068,550.982,878.539,552.023Z" transform="translate(-584.203 -373.072)" fill="#65617d"/>
    <path id="Path_962" data-name="Path 962" d="M908.13,598.6l7.41-1.281S911.487,601.792,908.13,598.6Z" transform="translate(-628.922 -448.625)" opacity="0.05"/>
    <path id="Path_963" data-name="Path 963" d="M924.411,574.74s.356,2.624-1.221,3.678C923.2,578.418,926.073,577.854,924.411,574.74Z" transform="translate(-639.157 -433.279)" opacity="0.1"/>
    <path id="Path_964" data-name="Path 964" d="M906.239,548.63s-6.03,5.366-8.33,5.03S906.239,548.63,906.239,548.63Z" transform="translate(-621.754 -415.534)" opacity="0.1"/>
    <path id="Path_965" data-name="Path 965" d="M869.513,610s-4.687,1.256-4.754,3.159S869.513,610,869.513,610Z" transform="translate(-599.446 -457.243)" opacity="0.1"/>
    <path id="Path_966" data-name="Path 966" d="M874.964,683.55s-6.629,1.5-4.706,2.278a32.429,32.429,0,0,0,5.072,1.339S877.486,687.2,874.964,683.55Z" transform="translate(-602.946 -507.229)" opacity="0.05"/>
    <g id="Group_865" data-name="Group 865" transform="translate(258.117 116.401)" opacity="0.05">
      <path id="Path_967" data-name="Path 967" d="M865.2,693a1.329,1.329,0,0,1-.641-.945c-.038.077-.064.122-.064.122s-.564,1.551.538,2.191c.128.074.247.144.359.215.2-.045.41-.08.615-.141C866.884,694.19,866.285,693.636,865.2,693Z" transform="translate(-857.285 -629.406)"/>
      <path id="Path_968" data-name="Path 968" d="M893.11,690.116c.176-.176.154-.612.019-1.166a3.147,3.147,0,0,0-.32,1.653A1.313,1.313,0,0,1,893.11,690.116Z" transform="translate(-876.62 -627.299)"/>
      <path id="Path_969" data-name="Path 969" d="M886.382,604.75a7.686,7.686,0,0,0-.372,2.1,8.178,8.178,0,0,1,.464-1.451S886.439,605.15,886.382,604.75Z" transform="translate(-872.006 -570.075)"/>
      <path id="Path_970" data-name="Path 970" d="M934.363,592.312a2.52,2.52,0,0,0,.038-.622c-.067.426-.112.82-.141,1.166C934.292,592.68,934.324,592.5,934.363,592.312Z" transform="translate(-904.798 -561.199)"/>
      <path id="Path_971" data-name="Path 971" d="M888.78,664.942a3.6,3.6,0,0,0,.118-1.262,4.263,4.263,0,0,0-.263,1.6A1.542,1.542,0,0,1,888.78,664.942Z" transform="translate(-873.79 -610.125)"/>
      <path id="Path_972" data-name="Path 972" d="M874.238,700.8a22.293,22.293,0,0,0-.641,3.524l-6.818,1.057a14.351,14.351,0,0,1-1.644-2.829c-.086-.183-.157-.346-.215-.493-.4.205-.548.641.039,1.861a14.223,14.223,0,0,0,1.647,2.829l6.818-1.057s.372-3.588,1.025-4.293C874.766,701.037,874.545,700.864,874.238,700.8Z" transform="translate(-857.434 -635.353)"/>
      <path id="Path_973" data-name="Path 973" d="M849.662,552.141s.208,3.909.782,4.114h0c.263-.657.429-1.282.173-1.368-.577-.205-.782-4.114-.782-4.114s-1.314-4.6-1.076-5.857-1.07-4.213-1.07-4.213l-.535-3.553a9.817,9.817,0,0,1-1.506-6.693l-.211-5.495s-2-10.573-2.429-15.961c-.279-3.441-.42-8.147-.484-11.082,0-.532-.019-1-.029-1.4l-.2.029s0,1.089.051,2.739c.064,2.935.205,7.641.481,11.082.436,5.373,2.432,15.961,2.432,15.961l.211,5.495a9.816,9.816,0,0,0,1.506,6.693l.532,3.553s1.307,2.954,1.07,4.213S849.662,552.141,849.662,552.141Z" transform="translate(-842.3 -496.52)"/>
      <path id="Path_974" data-name="Path 974" d="M926.75,702.386a6.624,6.624,0,0,1-1.185-2.646c-.676.641.221,3.076,1.012,4.014.833.99,6.747,1.387,7.808-.525l-.042-1.08C932.872,703.732,927.538,703.328,926.75,702.386Z" transform="translate(-898.726 -634.632)"/>
      <path id="Path_975" data-name="Path 975" d="M954.337,686.9a10.991,10.991,0,0,0-.727,1.73l.029.795c.119-.295.288-.689.525-1.157a3.437,3.437,0,0,0,.192-1.413Z" transform="translate(-917.948 -625.879)"/>
      <path id="Path_976" data-name="Path 976" d="M922.817,673.276a10.712,10.712,0,0,0,.506-1.368s-.961.263-2.563-1.49c-1.163-1.281-1.323-3.765-1.227-5.4-.247.961-.545,5.014,1.054,6.766A4.084,4.084,0,0,0,922.817,673.276Z" transform="translate(-894.655 -611.036)"/>
      <path id="Path_977" data-name="Path 977" d="M896,586.581a30.724,30.724,0,0,1,.244,3.351,4.152,4.152,0,0,1,.1-.529,20.1,20.1,0,0,0-.163-4.191,8.452,8.452,0,0,0-.513-2.989,37.379,37.379,0,0,1-1.6-4.873,3.331,3.331,0,0,0-.878-2.121c-.823-.7-1.442-3.575-1.442-3.575a3.73,3.73,0,0,1-.66-2.416A4.93,4.93,0,0,0,890,566.333l-2.166-6.046-1.99-4.517-.916,2.7v.862l.747-2.195,1.99,4.517,2.159,6.042A4.93,4.93,0,0,1,890.9,570.6a3.71,3.71,0,0,0,.66,2.416s.618,2.883,1.442,3.576a3.3,3.3,0,0,1,.875,2.121,37.255,37.255,0,0,0,1.6,4.873A8.522,8.522,0,0,1,896,586.581Z" transform="translate(-871.272 -536.787)"/>
    </g>
    <path id="Path_978" data-name="Path 978" d="M909.655,315.171l-.346,2.086.061.919.045.679-2.355.32-.285-.481h0a19.858,19.858,0,0,0-1.948-2.883c-.448-.349-1.451-6.071-.5-5.767a2.483,2.483,0,0,1,1.365,1.141S910.359,311.545,909.655,315.171Z" transform="translate(-626.067 -253.379)" fill="#ffcdd3"/>
    <path id="Path_979" data-name="Path 979" d="M915.45,335.591l-2.355.32-.285-.481h0a2.089,2.089,0,0,1,2.6-.532Z" transform="translate(-632.103 -270.115)" opacity="0.1"/>
    <path id="Path_980" data-name="Path 980" d="M915.8,337.187l-3.088.843-.083-.461-.224-1.243a2.145,2.145,0,0,1,3-.525l.179.641Z" transform="translate(-631.824 -270.612)" fill="#dce6f2"/>
    <path id="Path_981" data-name="Path 981" d="M748.556,312.061l-3.258,1.922s-.138-.256-.32-.615c-.343-.641-.852-1.634-1-1.986-.218-.541-1.634-1.185-1.634-1.185-3.611-3.2.429-6.212.429-6.212,2.025-4.5,4.7,1.32,4.7,1.32s.461,3.1.227,3.326-.2,1.07-.2,1.07a12.594,12.594,0,0,1,.875,1.874C748.495,311.869,748.556,312.061,748.556,312.061Z" transform="translate(-515.233 -248.107)" fill="#ffcdd3"/>
    <path id="Path_982" data-name="Path 982" d="M757.319,331.805l-3.258,1.922s-.138-.256-.32-.615c.452-.41,2.066-1.826,2.614-1.785a4.224,4.224,0,0,0,.788,0C757.258,331.613,757.319,331.805,757.319,331.805Z" transform="translate(-523.996 -267.851)" opacity="0.1"/>
    <path id="Path_983" data-name="Path 983" d="M757.928,333.161l-3.668,1.986-.106-.8-.074-.554s2.1-1.938,2.739-1.893a3.465,3.465,0,0,0,.961-.038l.07.67Z" transform="translate(-524.227 -268.213)" fill="#dce6f2"/>
    <path id="Path_984" data-name="Path 984" d="M866.323,343.467s-16.231,2.467-13.222,1.362a4.1,4.1,0,0,0,3.005-3.656,8.561,8.561,0,0,0-.753-3.752,16.375,16.375,0,0,0-1.57-2.883s12.2-7.334,9.932-1.006a9.908,9.908,0,0,0-.593,2.98,8.326,8.326,0,0,0,.436,2.976A8.906,8.906,0,0,0,866.323,343.467Z" transform="translate(-591.271 -267.6)" fill="#ffcdd3"/>
    <path id="Path_985" data-name="Path 985" d="M865.965,333.547a9.912,9.912,0,0,0-.593,2.98c-1.134,1.032-2.425,1.016-4.078,1.08-1.282.048-2.666.41-3.7-.163a16.365,16.365,0,0,0-1.57-2.883S868.217,327.223,865.965,333.547Z" transform="translate(-593.507 -267.613)" opacity="0.1"/>
    <circle id="Ellipse_376" data-name="Ellipse 376" cx="6.747" cy="6.747" r="6.747" transform="translate(260.577 56.948)" fill="#ffcdd3"/>
    <path id="Path_986" data-name="Path 986" d="M866.323,360.249s-16.231,2.467-13.222,1.362a4.1,4.1,0,0,0,3.005-3.656,9,9,0,0,1,3.419-1.986,4.866,4.866,0,0,1,2.951-.16,4.112,4.112,0,0,1,1.1.455A8.906,8.906,0,0,0,866.323,360.249Z" transform="translate(-591.271 -284.383)" opacity="0.1"/>
    <path id="Path_987" data-name="Path 987" d="M916.272,339.217l-3.088.843-.083-.461a2.761,2.761,0,0,1,2.957-1.141Z" transform="translate(-632.3 -272.642)" opacity="0.1"/>
    <path id="Path_988" data-name="Path 988" d="M758.084,334.615l-3.668,1.986-.106-.8a27.146,27.146,0,0,1,3.71-1.8Z" transform="translate(-524.383 -269.668)" opacity="0.1"/>
    <path id="Path_989" data-name="Path 989" d="M867.264,489.807c-6.273,1.24-15.208,2.883-16.66,2.5-1.2-.32-4.972-.131-8.256.109-.035-1.647-.048-2.739-.048-2.739l24.371-3.489A20.352,20.352,0,0,0,867.264,489.807Z" transform="translate(-584.183 -373.099)" opacity="0.1"/>
    <path id="Path_990" data-name="Path 990" d="M811.74,385.094s-20.652,4.367-22.91,3.774-13.683.583-13.683.583c-5.02,3.652-3.066-1.528-3.066-1.528a12.507,12.507,0,0,1,0-4.822,29.636,29.636,0,0,0,.663-4.847s-.244-3.393.349-4.21,1.112-6.51,1.112-6.51.416-3.873.32-4.722a30.839,30.839,0,0,1,.048-3.233l.577-3.992c-4.271-.4-17.49-7.837-17.49-7.837-.727-2.637-5.767-8.682-5.767-8.682a6.5,6.5,0,0,0-.455-1.515c-.375-.894,4.655-2.9,4.655-2.9s3.973,4.485,4.806,5.716a24.609,24.609,0,0,0,3.649,3.435,2.723,2.723,0,0,1,1.253.112l.064.019h0a10.143,10.143,0,0,1,2.592,1.358,4.921,4.921,0,0,1,3.5,1.169s2.31-.429,2.72-.048,2.38-.09,2.38-.09,1.82-4.271,3.169-3.1,6.878.9,6.878.9a8.161,8.161,0,0,1,3.572-2.182,4.866,4.866,0,0,1,2.951-.163,3.786,3.786,0,0,1,1.189.519l3.479,3.156s.916-1.282.791-1.563,1.115-.551,1.115-.551,1.621-.574,2.243-.769,1.211.461,1.265.516a6.558,6.558,0,0,1-.378-2.48,2.925,2.925,0,0,0-.759-2.012c1.8-4.947,6.427-1.041,6.427-1.041s.615,2.643.2,3.681.577,3.153.484,3.723.285,1.522.32,2.6a15.706,15.706,0,0,1-.75,4.056c-.3.92-2.948,3.063-2.948,3.063a12.8,12.8,0,0,1-1.163,5.152c-1.118,1.916-.135,8.288-.135,8.288s1.326,4.94,2.8,6.472S811.74,385.094,811.74,385.094Z" transform="translate(-522.418 -270.109)" fill="#3f3d56"/>
    <path id="Path_991" data-name="Path 991" d="M834.371,372.237s-.7-1.845-1.282-1.993a13.6,13.6,0,0,1-1.669-.673l.32-.711s2.15.5,2.515,1.112A4.985,4.985,0,0,1,834.371,372.237Z" transform="translate(-576.789 -293.359)" opacity="0.1"/>
    <path id="Path_992" data-name="Path 992" d="M793.726,364.944c-.093.57-5.126,1.282-5.126,1.282l2.451-2.656h0l.064.019h0A10.145,10.145,0,0,1,793.726,364.944Z" transform="translate(-547.687 -289.764)" opacity="0.1"/>
    <circle id="Ellipse_377" data-name="Ellipse 377" cx="0.455" cy="0.455" r="0.455" transform="translate(230.699 67.511)" fill="#575988"/>
    <circle id="Ellipse_378" data-name="Ellipse 378" cx="0.455" cy="0.455" r="0.455" transform="translate(231.314 68.395)" fill="#575988"/>
    <circle id="Ellipse_379" data-name="Ellipse 379" cx="0.455" cy="0.455" r="0.455" transform="translate(231.913 69.209)" fill="#575988"/>
    <circle id="Ellipse_380" data-name="Ellipse 380" cx="0.455" cy="0.455" r="0.455" transform="translate(232.541 70.093)" fill="#575988"/>
    <circle id="Ellipse_381" data-name="Ellipse 381" cx="0.368" cy="0.368" r="0.368" transform="translate(286.022 68.074)" fill="#575988"/>
    <circle id="Ellipse_382" data-name="Ellipse 382" cx="0.368" cy="0.368" r="0.368" transform="translate(286.112 68.907)" fill="#575988"/>
    <circle id="Ellipse_383" data-name="Ellipse 383" cx="0.368" cy="0.368" r="0.368" transform="translate(286.192 69.74)" fill="#575988"/>
    <path id="Path_993" data-name="Path 993" d="M842.56,427.31c-.054-.064,13.334,15.57,22.891,5.869C865.448,433.179,849.867,435.905,842.56,427.31Z" transform="translate(-584.359 -333.082)" opacity="0.1"/>
    <path id="Path_994" data-name="Path 994" d="M820.67,454.359s7.651-.086,8.535,2.079l.086,2.287a1.457,1.457,0,0,1-1.422.055c-.785-.384-5.495-2.563-7.08-1.362Z" transform="translate(-569.483 -351.466)" opacity="0.1"/>
    <path id="Path_995" data-name="Path 995" d="M821.12,454.339s7.314-.083,8.16,1.983l.083,2.182a1.4,1.4,0,0,1-1.362.051c-.75-.368-5.254-2.435-6.77-1.3Z" transform="translate(-569.789 -351.452)" fill="#656691"/>
    <path id="Path_996" data-name="Path 996" d="M831.7,402.07a24.583,24.583,0,0,0,3.159,4.969,19.937,19.937,0,0,0,4.806,4.3S831.867,403.114,831.7,402.07Z" transform="translate(-576.979 -315.929)" opacity="0.1"/>
    <path id="Path_997" data-name="Path 997" d="M822.83,374.66s1.487,5.446,4.844,7.2Z" transform="translate(-570.951 -297.301)" opacity="0.1"/>
    <path id="Path_998" data-name="Path 998" d="M816.626,376.626c-.038-.1-.961,4.4,4.485,6.651C821.121,383.277,818.811,382.592,816.626,376.626Z" transform="translate(-566.679 -298.636)" opacity="0.1"/>
    <path id="Path_999" data-name="Path 999" d="M920.486,361.082a37.174,37.174,0,0,1,3.489,2.419S922.1,360.906,920.486,361.082Z" transform="translate(-637.319 -288.067)" opacity="0.1"/>
    <path id="Path_1000" data-name="Path 1000" d="M853.438,318.682a1.06,1.06,0,0,0,1.2,1.009,13.712,13.712,0,0,0,6.087-.807,2.292,2.292,0,0,0,.9-.641,3.835,3.835,0,0,0,.484-1.512,22.028,22.028,0,0,1,1.134-2.909,9.633,9.633,0,0,0,.455-5.168,3.44,3.44,0,0,0-.57-1.483c-.577-.759-1.583-1.035-2.326-1.628s-1.246-1.522-2.1-1.954a3.851,3.851,0,0,0-2.563-.128,13.38,13.38,0,0,0-4.678,1.967,2.367,2.367,0,0,1-1.567.6,2.183,2.183,0,0,1-1.2-.849,6.283,6.283,0,0,0-.391,2.957,1.28,1.28,0,0,1,0,.442,1.359,1.359,0,0,1-.3.477,1.714,1.714,0,0,0-.24,2.127c.227.253.567.381.791.641.4.458.295,1.144.32,1.749a.887.887,0,0,0,.173.593.875.875,0,0,0,.839.167,2.265,2.265,0,0,1,.881-.119,1.468,1.468,0,0,1,.795.564A10.3,10.3,0,0,1,853.438,318.682Z" transform="translate(-587.702 -248.807)" fill="#2d293d"/>
    <g id="Group_866" data-name="Group 866" transform="translate(259.781 56.294)" opacity="0.1">
      <path id="Path_1001" data-name="Path 1001" d="M861.833,330.383a2.3,2.3,0,0,1-.9.641,13.572,13.572,0,0,1-6.071.807,1.06,1.06,0,0,1-1.2-1.006,10.474,10.474,0,0,0-1.871-3.921,1.474,1.474,0,0,0-.791-.564,2.341,2.341,0,0,0-.884.119.875.875,0,0,1-.839-.167.907.907,0,0,1-.173-.593,2.541,2.541,0,0,0-.32-1.749c-.221-.256-.564-.384-.791-.641a1.333,1.333,0,0,1-.183-1.349,1.554,1.554,0,0,0-.026,1.81c.227.25.57.378.791.641.4.458.3,1.144.32,1.753a.884.884,0,0,0,.173.59.865.865,0,0,0,.839.167,2.332,2.332,0,0,1,.884-.119,1.49,1.49,0,0,1,.791.564,10.545,10.545,0,0,1,1.871,3.921,1.426,1.426,0,0,0,.561.891,1.445,1.445,0,0,0,.641.118,13.714,13.714,0,0,0,6.087-.811,2.323,2.323,0,0,0,.9-.641,1.833,1.833,0,0,0,.269-.557A.939.939,0,0,1,861.833,330.383Z" transform="translate(-847.494 -317.779)"/>
      <path id="Path_1002" data-name="Path 1002" d="M850.018,312.2a.961.961,0,0,0,.192-.349,1.206,1.206,0,0,0,0-.442,6.278,6.278,0,0,1,.224-2.451l-.042-.045a6.293,6.293,0,0,0-.391,2.957A1.906,1.906,0,0,1,850.018,312.2Z" transform="translate(-849.174 -308.91)"/>
    </g>
    <path id="Path_1003" data-name="Path 1003" d="M862.82,363.133s8.465.795,9.173-.5" transform="translate(-598.129 -289.125)" opacity="0.1"/>
    <path id="Path_1004" data-name="Path 1004" d="M913.5,351.35s4.677-.173,5.767,1.541" transform="translate(-632.572 -281.455)" opacity="0.1"/>
    <path id="Path_1005" data-name="Path 1005" d="M83.251,302.96V320.9c0,.535-.9.961-2.02.961H38.6c-1.114,0-2.02-.433-2.02-.961V302.96c0-.535.9-1.08,2.02-1.08H81.237C82.348,301.88,83.251,302.425,83.251,302.96Z" transform="translate(-25.6 -247.838)" fill="#fff"/>
    <g id="Group_867" data-name="Group 867" transform="translate(5.98 54.042)" opacity="0.26">
      <path id="Path_1006" data-name="Path 1006" d="M83.247,302.96V320.9c0,.535-.9.961-2.02.961H38.6c-1.114,0-2.02-.433-2.02-.961V302.96c0-.535.9-1.08,2.02-1.08H81.233C82.344,301.88,83.247,302.425,83.247,302.96Z" transform="translate(-31.58 -301.88)" fill="#b09a51"/>
    </g>
    <rect id="Rectangle_1860" data-name="Rectangle 1860" width="24.656" height="0.871" transform="translate(21.724 60.449)" fill="#4e4e4e"/>
    <rect id="Rectangle_1861" data-name="Rectangle 1861" width="24.656" height="0.871" transform="translate(21.724 62.57)" fill="#4e4e4e" opacity="0.2"/>
    <rect id="Rectangle_1862" data-name="Rectangle 1862" width="24.656" height="0.871" transform="translate(21.724 64.691)" fill="#4e4e4e" opacity="0.2"/>
    <rect id="Rectangle_1863" data-name="Rectangle 1863" width="24.656" height="0.871" transform="translate(21.724 66.812)" fill="#4e4e4e" opacity="0.2"/>
    <g id="girl-left" transform="translate(16)">
      <path id="Path_1027" data-name="Path 1027" d="M206.233,570.051s-.276.769-.657,1.781c-1.868-.115-4.341-.234-6.69-.25-.833,0-1.647,0-2.412.026a18.068,18.068,0,0,0-3.944.439,10.408,10.408,0,0,1-3.524.452c-.3-1.169-.516-2.009-.516-2.009s5.126-.429,8.215-.58l.247-1.72Z" transform="translate(-139.841 -428.828)" opacity="0.1"/>
      <path id="Path_1031" data-name="Path 1031" d="M162.089,423.888a4.86,4.86,0,0,0,1.922,1,1.249,1.249,0,0,1-.567-.266c-.391-.279-.762-.58-1.137-.875a3.34,3.34,0,0,0-1.057-.727A5.838,5.838,0,0,0,162.089,423.888Z" transform="translate(-121.328 -330.167)" opacity="0.1"/>
      <path id="Path_1032" data-name="Path 1032" d="M160.919,427.315a2.354,2.354,0,0,1,.42.67,2.691,2.691,0,0,1,.122.865,2.73,2.73,0,0,1-.151,1.227l-.887-2.1c-.151-.359-.32-.718-.487-1.064-.08-.147-.583-.756-.525-.884C159.577,425.655,160.756,427.113,160.919,427.315Z" transform="translate(-120.075 -332.168)" opacity="0.1"/>
      <path id="Path_1040" data-name="Path 1040" d="M188.886,400.692a17.743,17.743,0,0,1-.442,4.537c-.157.442-.407,1.259-.676,2.175-.3,1.016-.622,2.153-.871,3.034s-.413,1.49-.413,1.49-1.144,9.31-1.442,13.744v.231c-.016.25-.045.509-.083.779-.66,4.405-4.46,11.2-5.735,11.742a3.846,3.846,0,0,0-1.073.737,10.527,10.527,0,0,1,.32-3.579c.743-.916,3.925-10.05,3.925-10.05l.724.038a4.032,4.032,0,0,1-.032-.407,17.923,17.923,0,0,1,.762-4.485s.474-5.414.474-5.651-.407-4.027-.407-4.027l.811-3.044,1.56-1.092c.192-2.348.657-5.2,1.759-5.978a4.37,4.37,0,0,0,1.282-1.631c.221.029-.179-.163-.179-.163Z" transform="translate(-132.814 -313.904)" opacity="0.1"/>
      <path id="Path_1042" data-name="Path 1042" d="M240.927,447.893l-.573,1.217s-.08.362-.183.939a.531.531,0,0,1-.292-.125c-.846-.679-5.821-5.786-6.055-10.323-.176-3.345-.093-6.225-.038-7.51.019-.4.032-.641.035-.7,0,0,3.845-4.671,3.415-6.328s-1.455-10.524-1.455-10.524l-.151-1.163-.256-1.964-.606-4.761.641.147a1.763,1.763,0,0,0,.384.391l.66,4.181,2.284,2.518.372,15.327-1.048,2.742s-.859.038-2.191.077h-.131Z" transform="translate(-170.578 -319.042)" opacity="0.1"/>
      <path id="Path_1044" data-name="Path 1044" d="M249.891,512.72c-1.39-.269-3.438-.913-3.393-2.323.045-1.323,1.634-1.8,2.835-1.967C249.542,509.811,249.718,511.333,249.891,512.72Z" transform="translate(-179.264 -388.214)" opacity="0.1"/>
      <path id="Path_1047" data-name="Path 1047" d="M260.487,428.5l1.387.2a23.848,23.848,0,0,0,1.66,2.537,2.759,2.759,0,0,1,.609,1.624s2.031,3.012,2.672,3.351,1.624,2.64,1.624,2.64,1.6,1.048,1.6,2.243a19.544,19.544,0,0,0,.3,2.941,8.38,8.38,0,0,1-.916,3.316,11.357,11.357,0,0,0-1.317,3.79c.035.407-1.9,2.563-2.438,3.249a13.666,13.666,0,0,0-1.182,2l-1.794,3.383s-3.79-5.581-5.177-5.885a10.843,10.843,0,0,1,2.336-1.759c.779-.269,1.522-2.505,1.557-3.012s.708-2.2,1.419-2.505,1.083-.609.779-1.083,0-1.387,0-1.387-2-2.64-2.268-4.165a4.466,4.466,0,0,0-2.1-2.537l-1.051-2.563Z" transform="translate(-186.755 -333.892)" fill="#3f3d56"/>
      <path id="Path_1050" data-name="Path 1050" d="M226.8,373.179a3.02,3.02,0,0,1-.468.481c-.541.439-1.282.811-1.358,1.5a1.656,1.656,0,0,1-.08.67c-.176.3-.612.279-.961.218a1.691,1.691,0,0,1-.811-.3c-.362-.32-.4-.865-.673-1.253a1.711,1.711,0,0,0-1.371-.615c-.519-.016-1.035.1-1.551.125a4.3,4.3,0,0,1-.993-.067c-.109-.019-.215-.042-.32-.067a4.207,4.207,0,0,1-.676-.231,3.41,3.41,0,0,1-.32-.154,4.352,4.352,0,0,1-.961-.663,2.375,2.375,0,0,1-.884-1.8,11.038,11.038,0,0,1,.288-1.23,3.86,3.86,0,0,0-1.448-3.181c-.343-.336-.708-.67-1.051-1.016a5.068,5.068,0,0,1-1.24-1.762,5.37,5.37,0,0,1-.221-2.2,14.991,14.991,0,0,0,.067-2.272c-.256-2.691-2.563-4.751-4.851-5.876l-.1-.051a7.369,7.369,0,1,1,9.932,10.79c-.026.083-.048.17-.067.253a5.541,5.541,0,0,0,.218,4.126h0c.109.022,3.905.881,4.405,1.381s3.585,1.217,3.585,1.217A2.714,2.714,0,0,1,226.8,373.179Z" transform="translate(-152.298 -281.201)" opacity="0.1"/>
      <path id="Path_1008" data-name="Path 1008" d="M160.479,383.538a19.381,19.381,0,0,1-.32-2.951c0-1.185-1.6-2.243-1.6-2.243s-1-2.307-1.65-2.643-2.714-3.358-2.714-3.358a2.736,2.736,0,0,0-.618-1.628,23.321,23.321,0,0,1-1.679-2.534h0c-.276-.34-.138-.577-.551-2.544q-.035-.154-.077-.3a.44.44,0,0,0-.042-.125,3.326,3.326,0,0,0,.782-3.441,1.412,1.412,0,0,0-.394-.609c-.468-.381-1.214-.224-1.695-.586l.509-2.262c.125-.551.189-1.256-.3-1.554a2.44,2.44,0,0,0-.57-.192,2.637,2.637,0,0,1-1.525-2,6.843,6.843,0,0,1-.167-2.5c.093-.8.32-1.583.416-2.387a6.59,6.59,0,0,0-1.016-4.248,3.313,3.313,0,0,0-1.342-1.266,12.173,12.173,0,0,1-1.6-.564c-1.032-.641-.98-2.207-1.8-3.108s-2.278-.891-3.476-.583a10.286,10.286,0,0,1-3.617.7c-.791-.086-1.535-.445-2.326-.529a2.325,2.325,0,0,0-.682.032l.016-.029a1.474,1.474,0,0,0-1.266.99,1.528,1.528,0,0,0-.038.4c0,.32.077.66.083.961a.936.936,0,0,1-.224.682c-.157.17-.391.259-.545.432a.7.7,0,0,0-.2.509c0,.493.615.926,1.028,1.125h0c-.112.112-.221.227-.32.346a7.279,7.279,0,0,0-1.8,4.847,7.385,7.385,0,0,0,4.485,6.763c-.019.061-.035.119-.058.179a9.519,9.519,0,0,1-.4,1.048,2.076,2.076,0,0,0-1.74.192,4.467,4.467,0,0,1-2.749.407,38.088,38.088,0,0,0-5.049-.509c-.343.131-1.032-.474-1.477.34s-.641,1.256-1.1,1.458-1.237.849-1.134.984-1.134.961-1.134.961a5.471,5.471,0,0,1-1.682,1.256,9.364,9.364,0,0,0-1.922.984l-1.512,1.185s-1.134.17-.791-.609-.618-1.765-.618-1.765-1.922-3.9-1.922-4.71a23.769,23.769,0,0,0-1.579-4.239l-.2-.019c-.029-.083-.058-.167-.09-.253a23.915,23.915,0,0,0-.961-2.406c-.545-1.118-.9-1.246-.9-1.246s-6.664-5-10.992-3.479,7.9,6.068,9,6.545a2.073,2.073,0,0,1,.855,1.326,5.693,5.693,0,0,0-2.355,2.143s2.643,5.863,2.71,7.321,1.823,5.527,1.823,5.527a3.849,3.849,0,0,0,4.191,2.848s4.876.894,5.94,0a8.42,8.42,0,0,1,2.544-1.7,2,2,0,0,0,.961-.679s-1.6,10.169-2.4,11.053-7.8,12.306-5.293,14.337a50.233,50.233,0,0,0,6.286,4.165c.215.106.852-.961,1.765-1.714v.586c.016,4.062.545,10.252,1.3,11.636,1.1,2.034.641,5.969.641,5.969a4.741,4.741,0,0,0,1.858.445c.032.131.07.269.109.413a55.541,55.541,0,0,0,2.086,6.766c.759,1.426,1.307,5.933,1.307,5.933a41.772,41.772,0,0,1,.276,5.052,29.508,29.508,0,0,0,.679,4.415h0c-.279,3.178-.8,9.307-.891,11.534h0v.372h0a2.517,2.517,0,0,0,0,.417,1.3,1.3,0,0,1-.045.641,10.293,10.293,0,0,1-.746,1.775,8.5,8.5,0,0,0-.32.862,1.552,1.552,0,0,0-.8,1.137c-.343,1.323-.859,4.985-.859,4.985a8.861,8.861,0,0,1-.618,2.746c-.413.5-.823,3.694,2.1,4.1a4.241,4.241,0,0,0,4.191-1.551l-.1-8.875h0a1.283,1.283,0,0,0,.151-.244v-.019c.019-.045.042-.087.061-.138s0-.042.026-.064.029-.071.042-.109a.179.179,0,0,1,0-.038,5.831,5.831,0,0,0,.247-2.643v-.183a.41.41,0,0,0,0-.061.616.616,0,0,1,0-.077v-.054a.581.581,0,0,1,.019-.179.118.118,0,0,1,0-.035v-.106a.248.248,0,0,0,0-.048.769.769,0,0,1,.022-.112v-.026c.026-.131.061-.263.1-.4v-.029l.038-.135h0c.045-.144.093-.285.141-.426v-.029l.048-.131v-.016c.048-.135.1-.266.151-.391v-.035l.048-.112v-.032l.106-.25h0l.811,2.5a6.344,6.344,0,0,1,.205,2.3c-.24.439.276,2.275.618,2.307l-.32,2.307a35.272,35.272,0,0,0-.32,3.845c-.022.144-.045.269-.061.365a8.231,8.231,0,0,0,.32,3.012c2.714,3.2,5.943.25,5.943.25s.378-1.7,0-2.034-.205-1.56-.205-1.56.17-3.018.205-5.222a6.844,6.844,0,0,0-1.8-4.143l-.1.093a7.027,7.027,0,0,1-.641-2.323c.138-.779-.378-9.016-.378-9.016a49.165,49.165,0,0,0,.119-6.625h0c.045-.375.087-.743.128-1.1.208-1.772.375-3.287.442-4.078h0v-.093c.016-.215.026-.365.022-.439,0-.263,0-.593.026-.939.067-.961.215-2.012.215-2.012l.721-4.373a13.569,13.569,0,0,1,1.339-3.322l.093-.151h0c.032-.051.064-.109.1-.17v-.026l.1-.183v-.026c.112-.218.231-.471.352-.746l.029-.061.093-.211.035-.083.093-.211c0-.029.022-.054.035-.083.035-.086.07-.173.109-.259l.051-.125c.029-.064.054-.128.08-.2l.07-.167.048-.125.077-.189c0-.029.026-.058.035-.087.2-.49.388-.961.554-1.416h0c.054-.138.106-.269.154-.4,1.759.109,2.954.208,2.954.208a41.009,41.009,0,0,0,.378-6.577,24.234,24.234,0,0,1,.432-5.264c.026-.138.048-.259.067-.368l.048.038c.862.676,1.477-1.56,1.477-1.56s-.231-2.092-.541-4.62a2.275,2.275,0,0,0-.032-.253,13.3,13.3,0,0,0,1.5.231s.276-.026.641-.074a18.21,18.21,0,0,0,3.261,1.461l1.82-3.39a13.824,13.824,0,0,1,1.2-2c.551-.679,2.509-2.848,2.473-3.255a11.12,11.12,0,0,1,1.339-3.8A9.088,9.088,0,0,0,160.479,383.538Zm-7.625,2.563c-.721.3-1.41,2-1.442,2.509s-.791,2.746-1.583,3.018a10.611,10.611,0,0,0-2.336,1.73c-.227.022-.484.051-.753.1a26.2,26.2,0,0,0-.791-4.267c-.548-1.019.606-4.271.606-4.271s.115-3.287.836-4.069.551-2.746.551-2.746.17-.814.24-1.185,1.022,0,1.028,0h0a4.5,4.5,0,0,1,2.131,2.541c.276,1.525,2.3,4.165,2.3,4.165s-.32.913,0,1.39-.064.8-.785,1.1Z" transform="translate(-76.104 -273.564)" fill="url(#linear-gradient-3)"/>
      <path id="Path_1010" data-name="Path 1010" d="M121.15,388.417a5.539,5.539,0,0,1,5.549-2.6v3.96h-2.393l-1.9-.49Z" transform="translate(-94.075 -304.839)" opacity="0.1"/>
      <path id="Path_1009" data-name="Path 1009" d="M121.15,388.417a5.539,5.539,0,0,1,5.549-2.6v3.96h-2.393l-1.9-.49Z" transform="translate(-94.075 -304.839)" fill="#4c4981"/>
      <path id="Path_1023" data-name="Path 1023" d="M132.544,386.41l-2.944,2.066s-.026-.416-.1-.98a5.958,5.958,0,0,0,2.6-2.406C132.355,385.827,132.544,386.41,132.544,386.41Z" transform="translate(-99.75 -304.389)" opacity="0.1"/>
      <path id="Path_1011" data-name="Path 1011" d="M109.287,370.73l-2.944,2.066s-.026-.416-.1-.98c-.147-1.067-.477-2.669-1.189-2.98-1.083-.474-13.136-5.008-8.862-6.529s10.826,3.47,10.826,3.47.34.115.878,1.233c.285.586.641,1.586.942,2.4C109.1,370.147,109.287,370.73,109.287,370.73Z" transform="translate(-76.493 -288.71)" fill="#ae6e79"/>
      <path id="Path_1013" data-name="Path 1013" d="M192.354,699.066s-.846-.1-1.185,1.217-.846,4.976-.846,4.976a8.912,8.912,0,0,1-.609,2.739c-.407.5-.811,3.688,2.063,4.094a4.161,4.161,0,0,0,4.13-1.547l-.1-8.875Z" transform="translate(-140.479 -517.773)" fill="#444053"/>
      <path id="Path_1014" data-name="Path 1014" d="M220.447,700.32a6.838,6.838,0,0,1,1.778,4.133c-.032,2.211-.205,5.213-.205,5.213s-.167,1.217.205,1.557,0,2.028,0,2.028-3.181,2.954-5.853-.247a8.68,8.68,0,0,1-.32-3.008c.2-1.179.811-6.488.811-6.488Z" transform="translate(-158.541 -518.626)" fill="#444053"/>
      <path id="Path_1016" data-name="Path 1016" d="M208.378,570.051s-.276.769-.66,1.781a33.951,33.951,0,0,1-1.948,4.511,13.7,13.7,0,0,0-1.32,3.316l-.708,4.367a23.943,23.943,0,0,0-.237,2.941c0,.388-.26,2.861-.593,5.706-.513,4.354-1.166,9.589-1.166,9.589l-2.845,3.62s-.144.292-.32.714a6.68,6.68,0,0,0-.724,2.883,5.32,5.32,0,0,1-.541,3.249s-.067,3.319-.17,4.059.375,2.845,0,3.2-5.344.205-5.482-.407a17.86,17.86,0,0,1,.609-3.55l.442-2.845s.878-1.557.676-2.063.372-1.692.407-1.794.961-1.759.779-2.4c-.131-.49.545-8.5.871-12.3.106-1.2.176-1.974.176-1.974l3-21.046.24-1.7.247-1.72Z" transform="translate(-141.987 -428.828)" opacity="0.1"/>
      <path id="Path_1017" data-name="Path 1017" d="M203.247,624.515c.032.372-4.77.913-5.446.506s0-5.446,0-5.446l.32-2.3c-.34-.035-.846-1.861-.609-2.3a6.39,6.39,0,0,0-.205-2.3l-.8-2.5-.487-1.525a69.736,69.736,0,0,1-2.646-10.444,29.926,29.926,0,0,1-.67-4.412,41.656,41.656,0,0,0-.272-5.04s-.538-4.485-1.282-5.921a57.081,57.081,0,0,1-2.057-6.757c-.3-1.169-.516-2.009-.516-2.009s5.126-.429,8.215-.58c1.429-.067,2.428-.077,2.31.042a4.175,4.175,0,0,0-.138,1.631,41.356,41.356,0,0,0,.679,7.5,25.127,25.127,0,0,1,.743,6.529,18.944,18.944,0,0,0-.135,3.383,15.2,15.2,0,0,1,.593,3.675,49.593,49.593,0,0,1-.119,6.613s.509,8.221.372,9,1.083,3.2,1.083,3.688.308,3.688.308,3.688S203.215,624.144,203.247,624.515Z" transform="translate(-139.902 -432.393)" fill="#ae6e79"/>
      <path id="Path_1018" data-name="Path 1018" d="M215.787,393.962l-.583.641-.378.407-2.217,2.355-5.719.641-3.037-.814-.753-.2s0-1.528.138-3.361c.192-2.348.657-5.2,1.759-5.978a4.37,4.37,0,0,0,1.282-1.631,9.126,9.126,0,0,0,.554-1.368c.022-.061.038-.119.058-.176a14.991,14.991,0,0,0,.538-2.512s.73-.4,1.743-.875c2.65-1.237,7.225-2.941,5.632.875a14.383,14.383,0,0,0-.6,1.717c-.026.083-.048.17-.067.253a5.541,5.541,0,0,0,.218,4.126h0a2.881,2.881,0,0,0,.231.349,1.762,1.762,0,0,0,.384.391l.66,4.181.054.346Z" transform="translate(-149.77 -300.674)" fill="#ae6e79"/>
      <path id="Path_1019" data-name="Path 1019" d="M222.731,382.652c-.3.724.147-.593,0,0-1.2.859-4.046,3.3-5.645,3.3a4.454,4.454,0,0,1-2.326-.612,15.027,15.027,0,0,0,.6-2.688S224.929,377.372,222.731,382.652Z" transform="translate(-157.695 -301.138)" opacity="0.1"/>
      <path id="Path_1020" data-name="Path 1020" d="M215.954,358.132a7.369,7.369,0,0,1-6.6,7.334,6.863,6.863,0,0,1-.772.042,7.369,7.369,0,1,1,7.369-7.369Z" transform="translate(-148.486 -281.065)" fill="#ae6e79"/>
      <path id="Path_1022" data-name="Path 1022" d="M211.788,438.342l-1.048,2.742s-.859.038-2.191.077h-.131l-1.945.051a85.089,85.089,0,0,1-11.079-.272c-.961-.141-1.6-.32-1.708-.609a2.242,2.242,0,0,1-.122-.5,4.024,4.024,0,0,1-.032-.407,17.922,17.922,0,0,1,.763-4.485s.474-5.414.474-5.652-.407-4.027-.407-4.027l.811-3.044,1.56-1.092.708-.5a10.228,10.228,0,0,0,.779,1.022,2.038,2.038,0,0,0,.846.666,4.311,4.311,0,0,1,1.422.881s1.993,1.221,2.637.541a50.068,50.068,0,0,1,4.94-3.229l.711-.426.356.394,2.284,2.518Z" transform="translate(-143.266 -328.169)" fill="#ff9981"/>
      <path id="Path_1024" data-name="Path 1024" d="M137.22,393.991l-.641-.167a5.381,5.381,0,0,1-1.66,1.249,9.024,9.024,0,0,0-1.893.984l-1.49,1.182s-1.118.17-.779-.609-.609-1.759-.609-1.759-1.893-3.893-1.893-4.7a23.839,23.839,0,0,0-1.557-4.229s-1.964,3.822-5.549,2.6c0,0,2.6,5.853,2.672,7.308s1.794,5.517,1.794,5.517a3.813,3.813,0,0,0,4.127,2.842s4.806.894,5.853,0a8.175,8.175,0,0,1,2.505-1.7,1.983,1.983,0,0,0,.945-.676v-4.024Z" transform="translate(-94.075 -304.967)" fill="#3f3d56"/>
      <path id="Path_1015" data-name="Path 1015" d="M208.372,570.038a55.47,55.47,0,0,1-2.608,6.292,13.339,13.339,0,0,0-1.317,3.319l-.711,4.367a23.946,23.946,0,0,0-.237,2.944c.032.98-1.759,15.292-1.759,15.292l-2.842,3.62s-1.253,2.537-1.051,3.588a5.31,5.31,0,0,1-.541,3.245s-.067,3.316-.17,4.062.375,2.842,0,3.2-5.344.2-5.482-.407a17.909,17.909,0,0,1,.612-3.553l.439-2.842s.878-1.557.676-2.063.372-1.692.407-1.794.961-1.759.779-2.4,1.048-14.279,1.048-14.279L199.1,568.17Z" transform="translate(-141.98 -428.814)" fill="#ae6e79"/>
      <path id="Path_1028" data-name="Path 1028" d="M203.128,498.844l-.574,1.217s-.08.362-.183.939a24.565,24.565,0,0,0-.429,5.254,41.125,41.125,0,0,1-.372,6.561s-12.45-1.048-16.1,0-5.446,0-5.446,0,.439-3.925-.641-5.953c-.743-1.39-1.262-7.561-1.282-11.614a10.527,10.527,0,0,1,.32-3.579c.743-.916,3.925-10.05,3.925-10.05l.724.038,1.922.1,11.018.58,1.727.09.183.561Z" transform="translate(-132.78 -369.993)" fill="#65617d"/>
      <path id="Path_1036" data-name="Path 1036" d="M199.894,518.122a10.853,10.853,0,0,1-2.163.426,13.293,13.293,0,0,1-1.711-.032l-2.771-.176-1.387-.09c-.163,0-.833,0-.5-.32.167-.157,1.092-.058,1.33-.064.461,0,.919-.022,1.378-.026.916,0,1.836,0,2.752.058Q198.362,517.959,199.894,518.122Z" transform="translate(-141.729 -394.609)" opacity="0.1"/>
      <path id="Path_1037" data-name="Path 1037" d="M194.73,522.463a11.626,11.626,0,0,0-1.56.32,10.274,10.274,0,0,1-1.631.067,9.178,9.178,0,0,1-3.149-.641C190.508,522.316,192.619,522.38,194.73,522.463Z" transform="translate(-139.773 -397.579)" opacity="0.1"/>
      <path id="Path_1038" data-name="Path 1038" d="M187.614,527.347a4.966,4.966,0,0,1,.606.163,7,7,0,0,0,3.585-.25,2.123,2.123,0,0,1-1.362.756,6.408,6.408,0,0,1-2.656.1c-.279-.054-.961-.154-1.115-.442C186.461,527.244,187.354,527.3,187.614,527.347Z" transform="translate(-138.584 -401.011)" opacity="0.1"/>
      <path id="Path_1039" data-name="Path 1039" d="M206.44,533.032a9.819,9.819,0,0,1,1.035.269,8.842,8.842,0,0,0,4-.423,18.5,18.5,0,0,1,4.841-.449,4.747,4.747,0,0,0-1.038.343c-.375.112-.753.215-1.131.32a22.771,22.771,0,0,1-2.262.442,23.167,23.167,0,0,1-4.639.2,6.791,6.791,0,0,1-2.544-.32A2.812,2.812,0,0,1,206.44,533.032Z" transform="translate(-150.858 -404.514)" opacity="0.1"/>
      <path id="Path_1041" data-name="Path 1041" d="M171.5,398.413a2.025,2.025,0,0,0-1.714.2,4.357,4.357,0,0,1-2.707.4,36.439,36.439,0,0,0-4.972-.506c-.336.135-1.016-.474-1.455.336s-.641,1.253-1.083,1.458-1.221.846-1.118.98-1.115.961-1.115.961l2.467,8.01s-1.6,10.15-2.368,11.027-7.689,12.283-5.209,14.315a49.959,49.959,0,0,0,6.19,4.165c.272.135,1.253-1.692,2.608-2.268s5.549-8.2,5.825-12.524,1.455-13.975,1.455-13.975,1.455-5.28,1.964-6.7a17.515,17.515,0,0,0,.426-4.54Z" transform="translate(-114.834 -313.371)" fill="#3f3d56"/>
      <path id="Path_1043" data-name="Path 1043" d="M243.919,422.141s-.961-.372-1.016,0-.237,1.182-.237,1.182.167,1.964-.541,2.742-.823,4.059-.823,4.059-1.137,3.249-.6,4.264a27.626,27.626,0,0,1,.8,4.428c.192,1.381.384,2.9.557,4.29.32,2.528.535,4.613.535,4.613s-.609,2.243-1.455,1.557-5.821-5.792-6.058-10.319c-.167-3.188-.1-5.953-.045-7.318.026-.58.045-.907.045-.907s3.845-4.668,3.418-6.324-1.455-10.524-1.455-10.524l-.179-1.368-.189-1.474-.042-.32L236.028,406h0c.109.022,3.905.881,4.405,1.381s3.585,1.217,3.585,1.217a2.714,2.714,0,0,1,1.922,1.974c.029.093.051.192.074.295.407,1.964.272,2.2.545,2.537S243.919,422.141,243.919,422.141Z" transform="translate(-171.437 -318.6)" fill="#3f3d56"/>
      <path id="Path_1045" data-name="Path 1045" d="M254.637,511.409c-.054.119-.285.221-.59.32a15.452,15.452,0,0,1-2.243.365s-4.7-.372-4.636-2.5c.048-1.531,2.172-1.922,3.367-2.028.468-.042.795-.035.795-.035S254.842,510.97,254.637,511.409Z" transform="translate(-179.72 -387.601)" fill="#ae6e79"/>
      <path id="Path_1048" data-name="Path 1048" d="M279.791,465.725a4.386,4.386,0,0,1,2.733-1.035,3.333,3.333,0,0,0-1.788.7,4.079,4.079,0,0,0-.493.641c-.163.231-1.467,1.89-1.676,1.631C278.256,467.263,279.528,465.949,279.791,465.725Z" transform="translate(-201.026 -358.487)" opacity="0.1"/>
      <path id="Path_1049" data-name="Path 1049" d="M272.93,451.475a1.166,1.166,0,0,0,.961-.682,3.843,3.843,0,0,0,.3-1.2,17.811,17.811,0,0,1,.42-2.054,1.307,1.307,0,0,0,.067-.429,1.215,1.215,0,0,0-.125-.413,2.948,2.948,0,0,0-.295-.615,3.758,3.758,0,0,0-.426,1.282q-.186.692-.356,1.384C273.423,448.989,272.952,451.475,272.93,451.475Z" transform="translate(-197.228 -345.839)" opacity="0.1"/>
      <path id="Path_1051" data-name="Path 1051" d="M204.8,344.367c.151-.173.381-.263.535-.433.477-.519,0-1.368.176-2.054a1.7,1.7,0,0,1,1.9-1.012c.782.083,1.512.439,2.291.525a10.022,10.022,0,0,0,3.566-.7,3.444,3.444,0,0,1,3.425.58c.817.9.756,2.448,1.769,3.1a13.093,13.093,0,0,0,1.563.561,3.242,3.242,0,0,1,1.323,1.266,6.629,6.629,0,0,1,1,4.239c-.083.8-.32,1.583-.41,2.384a6.952,6.952,0,0,0,.163,2.493,2.636,2.636,0,0,0,1.506,1.993,2.363,2.363,0,0,1,.561.192c.477.295.416,1,.295,1.547l-.513,2.259c.474.362,1.208.205,1.669.586a1.355,1.355,0,0,1,.388.609,3.329,3.329,0,0,1-.993,3.633c-.541.442-1.282.811-1.358,1.506a1.6,1.6,0,0,1-.08.666c-.176.3-.612.279-.961.218a1.659,1.659,0,0,1-.807-.3c-.365-.32-.4-.865-.673-1.253a1.711,1.711,0,0,0-1.371-.615c-.522-.016-1.035.1-1.554.125a4.572,4.572,0,0,1-3.271-1.182,2.371,2.371,0,0,1-.887-1.794,11.839,11.839,0,0,1,.288-1.234A3.86,3.86,0,0,0,212.9,359.1a8.416,8.416,0,0,1-2.291-2.781c-.525-1.41,0-2.979-.157-4.485-.256-2.691-2.563-4.751-4.847-5.873C205.08,345.713,204.209,345.043,204.8,344.367Z" transform="translate(-150.792 -274.092)" fill="#444053"/>
      <path id="Path_1052" data-name="Path 1052" d="M222.9,368.39c-.362-.32-.394-.862-.67-1.253a1.724,1.724,0,0,0-1.374-.612c-.519-.016-1.032.1-1.551.125a4.588,4.588,0,0,1-3.271-1.166,2.383,2.383,0,0,1-.887-1.8,11.8,11.8,0,0,1,.288-1.23,3.86,3.86,0,0,0-1.448-3.181,8.449,8.449,0,0,1-2.291-2.781c-.522-1.406,0-2.98-.154-4.485-.256-2.691-2.563-4.754-4.851-5.876-.535-.263-1.406-.929-.811-1.6.151-.173.378-.259.535-.429.477-.519,0-1.371.176-2.057a1.086,1.086,0,0,1,.173-.375,1.464,1.464,0,0,0-1.246.984c-.17.686.3,1.538-.176,2.057-.154.17-.384.256-.535.429-.6.679.276,1.346.814,1.6,2.3,1.125,4.591,3.185,4.847,5.876.141,1.493-.368,3.066.157,4.485a8.441,8.441,0,0,0,2.291,2.781,3.861,3.861,0,0,1,1.445,3.181,11.986,11.986,0,0,0-.288,1.23,2.383,2.383,0,0,0,.887,1.8,4.572,4.572,0,0,0,3.271,1.182c.519-.026,1.032-.141,1.554-.125a1.717,1.717,0,0,1,1.371.612c.276.391.32.945.673,1.253a1.659,1.659,0,0,0,.807.3c.346.064.782.087.961-.218a.756.756,0,0,0,.077-.4,1.557,1.557,0,0,1-.775-.308Z" transform="translate(-150.793 -274.88)" opacity="0.1"/>
      <path id="Path_1021" data-name="Path 1021" d="M211.788,437.072l-1.048,2.742s-.859.038-2.191.08c-4.485.144-14.417.32-14.862-.827a2.778,2.778,0,0,1-.154-.91,17.737,17.737,0,0,1,.763-4.469s.474-5.414.474-5.648-.407-4.043-.407-4.043l.811-3.044,2.268-1.6s1.016,1.557,1.624,1.692a4.257,4.257,0,0,1,1.423.881s1.993,1.217,2.637.538,5.652-3.652,5.652-3.652l2.64,2.909Z" transform="translate(-143.266 -327.306)" fill="#f47b5e" opacity="0.1"/>
      <path id="Path_1025" data-name="Path 1025" d="M152.51,423s.846,3.146.32,3.486Z" transform="translate(-115.388 -330.154)" opacity="0.1"/>
      <path id="Path_1026" data-name="Path 1026" d="M208.556,482.2c-4.485.144-14.417.32-14.862-.823a2.777,2.777,0,0,1-.154-.91l14.7.775Z" transform="translate(-143.273 -369.211)" opacity="0.1"/>
      <path id="Path_1030" data-name="Path 1030" d="M262.544,512.506l.1,1.083s-5.446-1.775-5.177-3.957,0-1.922,0-1.922l4.383.372Z" transform="translate(-186.714 -387.718)" opacity="0.1"/>
      <path id="Path_1033" data-name="Path 1033" d="M232.862,465.05a2.832,2.832,0,0,0,1.6-.74c-.9.112-1.749.465-2.637.641a3.918,3.918,0,0,1-2.457-.224A5.909,5.909,0,0,0,232.862,465.05Z" transform="translate(-167.624 -358.229)" opacity="0.1"/>
      <path id="Path_1034" data-name="Path 1034" d="M222.982,441.608a.606.606,0,0,1-.458-.115q-1.012-.577-2-1.211a12.129,12.129,0,0,1-1.954-1.352A9.923,9.923,0,0,0,222.982,441.608Z" transform="translate(-160.284 -340.98)" opacity="0.1"/>
      <path id="Path_1035" data-name="Path 1035" d="M234.292,468.275a4.3,4.3,0,0,0,1.054-.083,1.426,1.426,0,0,0,.868-.57.49.49,0,0,0-.368.058,6.222,6.222,0,0,1-3.4.407A4.941,4.941,0,0,0,234.292,468.275Z" transform="translate(-169.717 -360.47)" opacity="0.1"/>
      <path id="Path_1046" data-name="Path 1046" d="M261.224,511.409c-.054.119-.285.221-.59.32-1.227-1.64-2.938-3.745-3.774-3.931,0,0,.1-.093.253-.234.468-.042.795-.035.795-.035S261.429,510.97,261.224,511.409Z" transform="translate(-186.307 -387.601)" opacity="0.1"/>
      <path id="Path_1029" data-name="Path 1029" d="M262.544,512.506l.1,1.083s-5.446-1.775-5.177-3.957,0-1.922,0-1.922l4.383.372Z" transform="translate(-186.714 -387.718)" fill="#4c4981"/>
    </g>
  </g>
</svg>
