<svg xmlns="http://www.w3.org/2000/svg" xmlns:xlink="http://www.w3.org/1999/xlink" width="322.027" height="224.541" viewBox="0 0 322.027 224.541">
  <defs>
    <linearGradient id="linear-gradient" x1="0.5" y1="1" x2="0.5" gradientUnits="objectBoundingBox">
      <stop offset="0" stop-color="gray" stop-opacity="0.251"/>
      <stop offset="0.54" stop-color="gray" stop-opacity="0.122"/>
      <stop offset="1" stop-color="gray" stop-opacity="0.102"/>
    </linearGradient>
  </defs>
  <g id="illustration-1" transform="translate(0 0.005)">
    <path id="Path_801" data-name="Path 801" d="M223.212,92.15c-20.637-.716-40.293-7.38-59.064-14.67s-37.362-15.366-57.509-19.228c-12.954-2.486-27.772-2.837-38.212,4.11C58.381,69.047,55.136,80.586,53.389,91.294c-1.313,8.057-2.083,16.533,1.513,24.077,2.5,5.234,6.932,9.635,9.989,14.65,10.671,17.452,3.139,38.969-8.436,56.01-5.423,7.991-11.719,15.617-15.9,24.125s-6.113,18.257-2.434,26.951c3.63,8.6,12.272,15.064,21.653,19.61,19.019,9.216,41.449,11.858,63.319,13.354,48.416,3.311,97.091,1.878,145.635.442,17.963-.534,36.009-1.07,53.681-3.85,9.815-1.541,19.947-4,27.073-9.9,9.044-7.5,11.288-20.209,5.226-29.619-10.166-15.783-38.275-19.693-45.379-36.64-3.913-9.321.106-19.707,5.791-28.352,12.192-18.551,32.63-34.819,33.706-56.022.742-14.556-9.084-29.145-24.276-36.035-15.925-7.221-38-6.313-49.754,5.642C262.694,88.046,241.435,92.781,223.212,92.15Z" transform="translate(-36.074 -56.63)" fill="#b09a51" opacity="0.1"/>
    <g id="plant-right" transform="translate(253.015 75.203)">
      <path id="Path_802" data-name="Path 802" d="M926.961,737.47a8.8,8.8,0,0,0-3.593-.382,1.156,1.156,0,0,0,.214,2.3,10.609,10.609,0,0,0,2.186-.4Z" transform="translate(-922.36 -618.059)" fill="#8674de"/>
      <path id="Path_803" data-name="Path 803" d="M936.421,738.61a8.782,8.782,0,0,1,.879,3.508,1.157,1.157,0,0,1-2.309.109,10.732,10.732,0,0,1,.1-2.22Z" transform="translate(-931.373 -619.179)" fill="#8674de"/>
      <path id="Path_804" data-name="Path 804" d="M935.264,717.79s-.722-2.266-5.137-1.387a1.809,1.809,0,0,0,.057,3.565h.086C933.183,720.373,934.2,719.217,935.264,717.79Z" transform="translate(-926.859 -603.164)" fill="#8674de"/>
      <path id="Path_805" data-name="Path 805" d="M949.769,721.3s2.372.186,2.52,4.681a1.809,1.809,0,0,1-3.482.759.245.245,0,0,0-.031-.083C947.729,723.914,948.622,722.664,949.769,721.3Z" transform="translate(-940.905 -606.809)" fill="#8674de"/>
      <path id="Path_806" data-name="Path 806" d="M948.541,691.772a4.718,4.718,0,0,0-3.185-3.556c-2.988-.942-4.566,3.528-1.647,4.663a9.326,9.326,0,0,0,3.779.548Z" transform="translate(-936.508 -583.075)" fill="#8674de"/>
      <path id="Path_807" data-name="Path 807" d="M958.778,666.146a6.2,6.2,0,0,0-4.338-3.425c-3.319-.608-4.324,4.378-1.044,5.174a10.945,10.945,0,0,0,4.469.037Z" transform="translate(-943.101 -564.912)" fill="#8674de"/>
      <path id="Path_808" data-name="Path 808" d="M966.828,641.123a7.084,7.084,0,0,0-4.566-3.139,2.293,2.293,0,0,0-1.013,4.467,10.658,10.658,0,0,0,5.348-.074Z" transform="translate(-948.95 -547.238)" fill="#8674de"/>
      <path id="Path_809" data-name="Path 809" d="M974.816,615.755a7.366,7.366,0,0,0-4-3.177c-2.854-.876-4.264,3.451-1.427,4.392a8.125,8.125,0,0,0,5.177-.02Z" transform="translate(-954.864 -529.034)" fill="#8674de"/>
      <path id="Path_810" data-name="Path 810" d="M977.627,589.954a9.911,9.911,0,0,0-3.468-4.093c-2.591-1.578-5.06,2.283-2.569,4.021a7.23,7.23,0,0,0,5.8,1.321Z" transform="translate(-956.801 -509.759)" fill="#8674de"/>
      <path id="Path_811" data-name="Path 811" d="M978.639,563.231a9.708,9.708,0,0,0-3.673-4,2.459,2.459,0,0,0-2.506,4.218,6.313,6.313,0,0,0,5.948.962Z" transform="translate(-957.382 -490.78)" fill="#8674de"/>
      <path id="Path_812" data-name="Path 812" d="M979.506,538.375a17.508,17.508,0,0,0-3.425-3.9,1.908,1.908,0,0,0-2.492,2.885c1.652,1.516,3.71,2.788,5.836,2.686Z" transform="translate(-958.517 -472.985)" fill="#8674de"/>
      <path id="Path_813" data-name="Path 813" d="M976.883,511.836a25.661,25.661,0,0,0-3.87-5,1.6,1.6,0,0,0-2.283,2.252,14.85,14.85,0,0,0,6.333,4.264Z" transform="translate(-956.611 -453.221)" fill="#8674de"/>
      <path id="Path_814" data-name="Path 814" d="M973.882,486.817a22.872,22.872,0,0,0-3.091-3.827,1.612,1.612,0,0,0-2.306,2.252,11.8,11.8,0,0,0,5.785,3.636Z" transform="translate(-954.994 -436.171)" fill="#8674de"/>
      <path id="Path_815" data-name="Path 815" d="M971.059,461.656a36.484,36.484,0,0,0-2.971-3.53,1.335,1.335,0,0,0-1.975,1.8,8.179,8.179,0,0,0,4.966,3.091Z" transform="translate(-953.382 -418.444)" fill="#8674de"/>
      <path id="Path_816" data-name="Path 816" d="M967.432,434.413a37.186,37.186,0,0,0-2.854-4.695,1.168,1.168,0,0,0-1.912,1.341,10.4,10.4,0,0,0,4.641,4.061Z" transform="translate(-951.01 -398.096)" fill="#8674de"/>
      <path id="Path_817" data-name="Path 817" d="M966.36,407.5s-.705-1.2-1.712-2.586a1.226,1.226,0,0,0-2.032,1.37c.97,1.487,2.186,2.754,3.6,3.005Z" transform="translate(-950.974 -380.349)" fill="#8674de"/>
      <path id="Path_818" data-name="Path 818" d="M967.638,380.921l-.893-4.467a.939.939,0,0,0-1.855.285,10.082,10.082,0,0,0,2.931,6.362Z" transform="translate(-952.745 -359.842)" fill="#8674de"/>
      <path id="Path_819" data-name="Path 819" d="M972.185,348.178h0a.876.876,0,0,0-1.672.479,22.624,22.624,0,0,0,.9,3.653Z" transform="translate(-956.761 -339.794)" fill="#8674de"/>
      <path id="Path_820" data-name="Path 820" d="M962.919,700.094a4.718,4.718,0,0,1,4.669,1c2.283,2.132-.8,5.708-3.24,3.742A9.379,9.379,0,0,1,962,701.83Z" transform="translate(-950.687 -591.485)" fill="#8674de"/>
      <path id="Path_821" data-name="Path 821" d="M975.742,673.61a6.2,6.2,0,0,1,5.326,1.45c2.463,2.306-.942,6.082-3.536,3.921a10.927,10.927,0,0,1-2.691-3.57Z" transform="translate(-959.862 -572.647)" fill="#8674de"/>
      <path id="Path_822" data-name="Path 822" d="M985.09,647.544a7.087,7.087,0,0,1,5.423-1.2,2.293,2.293,0,0,1-.731,4.521,10.677,10.677,0,0,1-4.932-2.069Z" transform="translate(-967.015 -553.157)" fill="#8674de"/>
      <path id="Path_823" data-name="Path 823" d="M992.191,620.451a7.357,7.357,0,0,1,4.886-1.458c2.985.26,2.666,4.795-.323,4.606a8.108,8.108,0,0,1-4.795-1.955Z" transform="translate(-972.096 -533.689)" fill="#8674de"/>
      <path id="Path_824" data-name="Path 824" d="M995.2,592.7a9.94,9.94,0,0,1,4.113-3.442c2.805-1.11,4.606,3.094,1.881,4.387a7.235,7.235,0,0,1-5.968.328Z" transform="translate(-974.411 -512.32)" fill="#8674de"/>
      <path id="Path_825" data-name="Path 825" d="M995.55,564.47a9.67,9.67,0,0,1,4.161-3.47c2.854-1.07,4.678,3.154,1.935,4.509a6.311,6.311,0,0,1-6.022.177Z" transform="translate(-974.661 -492.136)" fill="#8674de"/>
      <path id="Path_826" data-name="Path 826" d="M993.67,535.795a17.5,17.5,0,0,1,2.512-4.538,1.907,1.907,0,0,1,3.051,2.283c-1.29,1.835-3.014,3.516-5.137,3.873Z" transform="translate(-973.318 -470.478)" fill="#8674de"/>
      <path id="Path_827" data-name="Path 827" d="M992.9,508.709a25.55,25.55,0,0,1,2.317-5.9,1.6,1.6,0,0,1,2.808,1.527,14.794,14.794,0,0,1-4.892,5.865Z" transform="translate(-972.768 -450.105)" fill="#8674de"/>
      <path id="Path_828" data-name="Path 828" d="M987.1,483.241a22.893,22.893,0,0,1,2.357-4.5,1.608,1.608,0,0,1,2.706,1.735,11.852,11.852,0,0,1-5.032,4.852Z" transform="translate(-968.623 -432.965)" fill="#8674de"/>
      <path id="Path_829" data-name="Path 829" d="M982.48,458.057a36.661,36.661,0,0,1,1.236-4.444,1.335,1.335,0,0,1,2.543.811,8.2,8.2,0,0,1-3.231,4.875Z" transform="translate(-965.322 -414.885)" fill="#8674de"/>
      <path id="Path_830" data-name="Path 830" d="M979.27,432.055a37.058,37.058,0,0,1,1.712-5.226,1.169,1.169,0,0,1,2.169.87,10.4,10.4,0,0,1-3.59,5.012Z" transform="translate(-963.028 -395.873)" fill="#8674de"/>
      <path id="Path_831" data-name="Path 831" d="M974.46,407.74s.268-1.361.756-3.008a1.226,1.226,0,0,1,2.372.616c-.417,1.712-1.142,3.325-2.4,4.033Z" transform="translate(-959.591 -379.959)" fill="#8674de"/>
      <path id="Path_832" data-name="Path 832" d="M974.315,380.651l1.552-4.281a.94.94,0,0,1,1.789.571,10.013,10.013,0,0,1-3.847,5.851Z" transform="translate(-959.126 -359.875)" fill="#8674de"/>
      <path id="Path_833" data-name="Path 833" d="M975.907,349.37s.243-.194.614-.5a.77.77,0,0,1,1.03,1.142,14.556,14.556,0,0,1-4.221,2.677Z" transform="translate(-958.783 -340.538)" fill="#8674de"/>
      <path id="Path_834" data-name="Path 834" d="M981.207,326.495a56.225,56.225,0,0,1,3.1-5.514.571.571,0,0,0-.925-.654,16.555,16.555,0,0,0-2.489,5.768Z" transform="translate(-964.185 -320.143)" fill="#8674de"/>
    </g>
    <path id="Path_835" data-name="Path 835" d="M973.893,363.174l.331-.034c-1.427-13.3-.825-21.505,1.669-23.095l-.18-.285C973.071,341.452,972.443,349.546,973.893,363.174Z" transform="translate(-705.627 -258.958)" fill="#444053"/>
    <path id="Path_836" data-name="Path 836" d="M980.459,450.807l.494-.074c-.185-1.23-.4-2.48-.639-3.71-2.078-10.8-3.693-20.777-4.5-28.358l-.362-.285c.81,7.595,2.283,17.92,4.375,28.731C980.059,448.333,980.273,449.58,980.459,450.807Z" transform="translate(-707.283 -315.14)" fill="#444053"/>
    <path id="Path_837" data-name="Path 837" d="M910.992,596.577a64.764,64.764,0,0,0,14.353-17.033,71.922,71.922,0,0,0,8.448-21.06c2.109-9.278,2.169-20.084.648-30.2l-.445.357c3.425,22.712-3.108,40.347-9.2,50.542a63.966,63.966,0,0,1-14.2,16.867Z" transform="translate(-660.934 -393.674)" fill="#444053"/>
    <ellipse id="Ellipse_360" data-name="Ellipse 360" cx="18.994" cy="3.653" rx="18.994" ry="3.653" transform="translate(36.38 195.545)" fill="#4e4e4e"/>
    <ellipse id="Ellipse_361" data-name="Ellipse 361" cx="2.212" cy="2.894" rx="2.212" ry="2.894" transform="translate(52.842 194.752)" fill="#2a3330"/>
    <ellipse id="Ellipse_362" data-name="Ellipse 362" cx="2.212" cy="2.894" rx="2.212" ry="2.894" transform="translate(52.842 191.213)" fill="#2a3330"/>
    <ellipse id="Ellipse_363" data-name="Ellipse 363" cx="2.212" cy="2.894" rx="2.212" ry="2.894" transform="translate(52.842 187.677)" fill="#2a3330"/>
    <ellipse id="Ellipse_364" data-name="Ellipse 364" cx="2.212" cy="2.894" rx="2.212" ry="2.894" transform="translate(52.842 184.138)" fill="#2a3330"/>
    <ellipse id="Ellipse_365" data-name="Ellipse 365" cx="2.212" cy="2.894" rx="2.212" ry="2.894" transform="translate(52.842 180.599)" fill="#2a3330"/>
    <ellipse id="Ellipse_366" data-name="Ellipse 366" cx="2.212" cy="2.894" rx="2.212" ry="2.894" transform="translate(52.842 177.063)" fill="#2a3330"/>
    <ellipse id="Ellipse_367" data-name="Ellipse 367" cx="2.212" cy="2.894" rx="2.212" ry="2.894" transform="translate(52.842 173.524)" fill="#3f3d56"/>
    <path id="Path_838" data-name="Path 838" d="M210.331,546.993a10.421,10.421,0,0,0,.825-1.213l-5.811-.953,6.279.046a10.6,10.6,0,0,0,.2-8.391l-8.431,4.372,7.774-5.708A10.594,10.594,0,1,0,193.674,547a10.7,10.7,0,0,0-1.207,1.932l7.543,3.919-8.037-2.7a10.6,10.6,0,0,0,1.712,9.946,10.594,10.594,0,1,0,16.65,0,10.585,10.585,0,0,0,0-13.1Z" transform="translate(-147 -394.789)" fill="#8674de"/>
    <path id="Path_839" data-name="Path 839" d="M191.452,612.5a10.56,10.56,0,0,0,2.266,6.547,10.594,10.594,0,1,0,16.65,0C211.79,617.245,191.452,611.308,191.452,612.5Z" transform="translate(-147.038 -453.745)" opacity="0.1"/>
    <path id="Path_840" data-name="Path 840" d="M267.81,317.87V443.935a4.4,4.4,0,0,0,4.4,4.4H453.119a4.4,4.4,0,0,0,4.4-4.4V317.87Z" transform="translate(-201.605 -243.315)" fill="#fff"/>
    <rect id="Rectangle_1825" data-name="Rectangle 1825" width="45.35" height="26.619" rx="8.65" transform="translate(81.217 85.839)" opacity="0.1"/>
    <rect id="Rectangle_1826" data-name="Rectangle 1826" width="45.35" height="26.619" rx="8.65" transform="translate(138.386 85.839)" opacity="0.1"/>
    <rect id="Rectangle_1827" data-name="Rectangle 1827" width="44.075" height="25.869" rx="8.65" transform="translate(81.853 86.213)" fill="#b09a51"/>
    <rect id="Rectangle_1828" data-name="Rectangle 1828" width="44.075" height="25.869" rx="8.65" transform="translate(240.266 112.082) rotate(180)" fill="#444053" opacity="0.1"/>
    <rect id="Rectangle_1829" data-name="Rectangle 1829" width="44.075" height="25.869" rx="8.65" transform="translate(183.097 112.082) rotate(180)" fill="#b09a51"/>
    <rect id="Rectangle_1830" data-name="Rectangle 1830" width="44.075" height="25.869" rx="8.65" transform="translate(81.853 123.581)" fill="#444053" opacity="0.1"/>
    <rect id="Rectangle_1831" data-name="Rectangle 1831" width="44.075" height="25.869" rx="8.65" transform="translate(240.266 149.45) rotate(180)" fill="#444053" opacity="0.1"/>
    <rect id="Rectangle_1832" data-name="Rectangle 1832" width="44.075" height="25.869" rx="8.65" transform="translate(183.097 149.45) rotate(180)" fill="#444053" opacity="0.1"/>
    <rect id="Rectangle_1833" data-name="Rectangle 1833" width="44.075" height="25.869" rx="8.65" transform="translate(81.853 160.949)" fill="#444053" opacity="0.1"/>
    <rect id="Rectangle_1834" data-name="Rectangle 1834" width="44.075" height="25.869" rx="8.65" transform="translate(240.266 186.82) rotate(180)" fill="#444053" opacity="0.1"/>
    <rect id="Rectangle_1835" data-name="Rectangle 1835" width="44.075" height="25.869" rx="8.65" transform="translate(183.097 186.82) rotate(180)" fill="#444053" opacity="0.1"/>
    <path id="Path_841" data-name="Path 841" d="M267.81,228.834v22.9H457.52v-22.9a4.4,4.4,0,0,0-4.4-4.4H272.211A4.4,4.4,0,0,0,267.81,228.834Z" transform="translate(-201.605 -176.543)" fill="#b09a51"/>
    <circle id="Ellipse_368" data-name="Ellipse 368" cx="4.358" cy="4.358" r="4.358" transform="translate(290.491 115.49)" fill="#b09a51" opacity="0.1"/>
    <circle id="Ellipse_369" data-name="Ellipse 369" cx="7.306" cy="7.306" r="7.306" transform="translate(303.134 93.106)" fill="#b09a51" opacity="0.1"/>
    <circle id="Ellipse_370" data-name="Ellipse 370" cx="7.306" cy="7.306" r="7.306" transform="translate(293.462 128.558)" fill="#b09a51" opacity="0.1"/>
    <circle id="Ellipse_371" data-name="Ellipse 371" cx="10.346" cy="10.346" r="10.346" transform="translate(0 88.274)" fill="#b09a51" opacity="0.1"/>
    <path id="Path_844" data-name="Path 844" d="M833.509,512.519a9.138,9.138,0,0,0-2.118-1.19.438.438,0,0,0-.185-.049,32.58,32.58,0,0,1-4.367-3.762c.285-.228.548-.451.828-.671-1.712-.816-2.663-2.686-3.587-4.372a43.138,43.138,0,0,0-9.515-11.856c-.094-.362-.645-.285-.939-.519a.753.753,0,0,1-.208-.728c.046-.263.166-.505.231-.762a5.146,5.146,0,0,0-.049-1.855,2.273,2.273,0,0,1,.371-1.772c.131-.151.3-.268.428-.422a1.61,1.61,0,0,0,.285-1.281,4.55,4.55,0,0,0-.285-1.3q2.1-5.708,4.193-11.436a26.971,26.971,0,0,0,2.066-8.231,9.837,9.837,0,0,0-1.889-6.4c.251-.06.5-.123.751-.194-1.633-2.163-1.809-5.029-1.852-7.754q-.034-2.038-.14-4.078c.474.208.953.394,1.444.554l.457.14a15.737,15.737,0,0,0,2.263.485c.337.048.679.086,1.019.108h0q-.736-1.844-1.47-3.693a5.047,5.047,0,0,1-.457-1.732h0v-.114a1,1,0,0,1,.014-.205,2.26,2.26,0,0,1,.111-.479,2.173,2.173,0,0,1,.088-.225,4,4,0,0,1,.365-.642c.1-.157.217-.308.331-.462a6.312,6.312,0,0,0,1.025-1.658,3.141,3.141,0,0,0,.157-.945,4.647,4.647,0,0,0-.086-.97c-.04-.211-.091-.425-.148-.631h0c-.037-.128-.077-.257-.117-.382l-.034-.1c-.031-.1-.063-.191-.1-.285l-.034-.1c-.037-.1-.074-.2-.114-.305l-.023-.06c-.545-1.4-1.27-2.737-1.712-4.178a11,11,0,0,1-.285-1.167c-.02-.1-.034-.2-.051-.3s-.026-.171-.037-.257-.026-.2-.037-.3l-.026-.285c0-.091-.014-.183-.02-.285,0-.174-.017-.348-.02-.522v-.793c0-.131.02-.263.031-.391a.58.58,0,0,1,.02-.186q.029-.285.077-.571h0c.029-.168.06-.34.094-.511a6.814,6.814,0,0,0,.16-1.427,1.424,1.424,0,0,0-.02-.285c-.02-.1-.023-.154-.037-.228a.557.557,0,0,1,0-.068.765.765,0,0,0-.037-.154.287.287,0,0,0-.023-.071c-.009-.023-.031-.1-.049-.148s-.014-.043-.023-.066-.04-.1-.063-.151l-.02-.051c-.029-.063-.06-.123-.091-.183h0a4.2,4.2,0,0,0-.382-.594h0c-.939-1.233-2.5-2.172-3.359-3.53a7.859,7.859,0,0,1-.962-2.854c-.043-.228-.08-.457-.12-.682s-.074-.448-.114-.671c-.026-.137-.051-.285-.08-.411l-.017-.088c-.023-.108-.046-.22-.071-.328l-.017-.077c-.026-.114-.051-.228-.08-.342l-.017-.06c-.029-.12-.06-.24-.091-.36a.239.239,0,0,1,0-.043c-.034-.126-.071-.251-.108-.377v-.026c-.04-.131-.08-.26-.123-.388h0c-.043-.131-.088-.265-.137-.4h0c-.051-.134-.1-.268-.154-.4h0a10.562,10.562,0,0,0-1.444-2.569,6.817,6.817,0,0,0-5.423-2.8,10.741,10.741,0,0,0-3.262.828l-2.748,1.013.768-.354a6.567,6.567,0,0,0-2.337.5,2.27,2.27,0,0,0-1.356,1.858c-.014.471.171.939.111,1.407-.1.773-.811,1.3-1.179,1.984a2.551,2.551,0,0,0-.285,1.341v.183a.248.248,0,0,0,0,.046v.091c-1.142-.5-2.283-1.013-3.425-1.567a12.11,12.11,0,0,1-4.972-3.776c-.377-.571-.668-1.187-1.042-1.752a13.874,13.874,0,0,0-1.427-1.712l-3.5-3.79c-.268.505.077,1.1.348,1.6a6.889,6.889,0,0,1,.648,1.672.793.793,0,0,1-.017.585,1.142,1.142,0,0,1-.479.34,1.712,1.712,0,0,0-.722,1.961,2.169,2.169,0,0,0,1.618,1.41,2.938,2.938,0,0,1,.722.177c.422.208.622.694.925,1.056A4.15,4.15,0,0,0,788,408.832c1.3,1.5,2.643,2.928,3.938,4.424a28.354,28.354,0,0,0,6.524,6.1c.265.16.537.308.811.445a.448.448,0,0,1-.014.137,1.546,1.546,0,0,0,.123,1,1.569,1.569,0,0,0,1.119.545l1.935.345a6.623,6.623,0,0,1-.094.748c-.026.151-.057.3-.086.451h0l-.034.194v.029a.565.565,0,0,1-.02.157c-.02.054,0,.037,0,.054v.38a3.637,3.637,0,0,0,1.076,1.966l.271.328a4.566,4.566,0,0,0-.882,1.849,6.278,6.278,0,0,0-.126,1.287,2.235,2.235,0,0,0-.571.89,4.071,4.071,0,0,0-.148,1.441v.571a4.8,4.8,0,0,0,.331,2c.026.051.054.1.08.146a27.751,27.751,0,0,1-1.652,2.283,4.954,4.954,0,0,0,.454,5.674c.391.451.893.885.939,1.484a5.563,5.563,0,0,1-.08.811,6.064,6.064,0,0,0,.411,1.881,1.943,1.943,0,0,1-.157,1.558,2.283,2.283,0,0,0-.391,1.5,9.994,9.994,0,0,1-.245,2.434c-.026.351,0,.708-.031,1.059a5.964,5.964,0,0,1-.208.993.406.406,0,0,1-.029.108c-.7.311-1.4.634-2.078,1.007a1.824,1.824,0,0,0-.856.788,2.02,2.02,0,0,0-.046,1.085l.608,4.23-.106-.046q.072,1.039.148,2.086a2.813,2.813,0,0,0,.4,1.51,3.934,3.934,0,0,1,.431.551c.24.485-.046,1.05-.257,1.547s-.285,1.2.18,1.47a3.8,3.8,0,0,0,.779.417c-.571,2.38-.046,4.875.485,7.263q.608,2.74,1.219,5.474a13.285,13.285,0,0,1,.268,2.352v.342a13.172,13.172,0,0,0,.571,3.2c.634,2.135.026,4.7.225,7.024a20.84,20.84,0,0,0,.668,3.308,101.922,101.922,0,0,1,3.082,16.451,4.133,4.133,0,0,0,1.975,1.378c-.057.691.02,1.481,0,1.884a3.254,3.254,0,0,1-.154.982,2.359,2.359,0,0,1-1.493,1.27c-.2.069-.4.123-.608.171l.228-.194a5.1,5.1,0,0,0-3.8.668,1.5,1.5,0,0,0-.751.885,1.427,1.427,0,0,0,.263,1.025,4.672,4.672,0,0,0,2.64,1.875,13.852,13.852,0,0,0,3.254.454l2.015.117a.554.554,0,0,0,.131.716,1.41,1.41,0,0,0,.739.268,9.419,9.419,0,0,0,2.486.037.973.973,0,0,0,.571-.206.368.368,0,0,0,0-.545.6.6,0,0,0,.548-.4,1.621,1.621,0,0,0,.074-.722,7.748,7.748,0,0,0-.625-3.139.8.8,0,0,0-.882-.388,34.258,34.258,0,0,1-.571-5.063,12.375,12.375,0,0,0,1.467-.662c-1.4-2.263-1.427-5.137-1-7.769a23.523,23.523,0,0,0,.374-2.514,8.338,8.338,0,0,0-1.093-4.983,17.829,17.829,0,0,1,4.452,4.03c1.972,2.569,3.174,5.68,5.591,7.82q.477-.465.965-.925.765,1.3,1.447,2.646a10.06,10.06,0,0,1,.839,2.086,9.65,9.65,0,0,1,.077,3.365q-.1.891-.242,1.772a4.829,4.829,0,0,1-.174.742.513.513,0,0,0-.054-.223c-.151-.265-.571-.146-.8.037a3.527,3.527,0,0,0-.985,1.142,1.23,1.23,0,0,0-.177.728,1.075,1.075,0,0,0,.571.714c1.059.619,2.389.171,3.525-.285a4.137,4.137,0,0,0,.89-.448c.571-.411.882-1.087,1.45-1.487a8.387,8.387,0,0,0,.876-.554c.528-.482.571-1.3.956-1.906.639-1.053,2.069-1.324,2.629-2.44C835.242,514.879,834.485,513.323,833.509,512.519Z" transform="translate(-569.327 -301.219)" fill="url(#linear-gradient)"/>
    <path id="Path_845" data-name="Path 845" d="M863.638,806.668a3.184,3.184,0,0,1-.157.97,2.346,2.346,0,0,1-1.49,1.253c-.634.22-1.307.285-1.952.477a1.712,1.712,0,0,0-.762.394,1.383,1.383,0,0,0,.439,2.023,3.79,3.79,0,0,0,2.312.357,30.451,30.451,0,0,0,5-.711c.594-.14,1.287-.414,1.381-1.016a1.665,1.665,0,0,0-.046-.571,33.743,33.743,0,0,1-.642-6.2,12.891,12.891,0,0,0-3.619-.026C863.412,804.071,863.675,805.966,863.638,806.668Z" transform="translate(-624.06 -590.346)" fill="#a1616a"/>
    <path id="Path_846" data-name="Path 846" d="M925.414,781.834q.822,1.361,1.544,2.777a9.83,9.83,0,0,1,.839,2.058,9.456,9.456,0,0,1,.077,3.319q-.1.876-.245,1.749a2.209,2.209,0,0,1-.734,1.547,1.69,1.69,0,0,0,1.456.128,4.2,4.2,0,0,0,1.281-.785,11.311,11.311,0,0,0,4.372-8.12,1.288,1.288,0,0,0-.134-.719,1.426,1.426,0,0,0-.428-.382,32.89,32.89,0,0,1-5.06-4.25.62.62,0,0,0-.371-.237.642.642,0,0,0-.331.094c-.939.471-2.509,1.142-2.9,2.212A1.5,1.5,0,0,1,925.414,781.834Z" transform="translate(-671.075 -572.781)" fill="#a1616a"/>
    <path id="Path_847" data-name="Path 847" d="M862.23,823.143a25.4,25.4,0,0,1-6.5,1.458.889.889,0,0,1-.779-.143.593.593,0,0,1-.051-.668,1.74,1.74,0,0,1,.477-.525l1.476-1.236a5.137,5.137,0,0,0-3.75.645,1.493,1.493,0,0,0-.748.856,1.393,1.393,0,0,0,.263,1.013,4.664,4.664,0,0,0,2.637,1.849,14.1,14.1,0,0,0,3.251.448l2,.114a.54.54,0,0,0,.134.708,1.428,1.428,0,0,0,.742.271,9.515,9.515,0,0,0,2.483.034.95.95,0,0,0,.571-.2.359.359,0,0,0,0-.537.6.6,0,0,0,.548-.4,1.654,1.654,0,0,0,.074-.711,7.477,7.477,0,0,0-.625-3.091C863.937,822.224,862.921,822.858,862.23,823.143Z" transform="translate(-619.308 -603.507)" fill="#3f3d56"/>
    <path id="Path_848" data-name="Path 848" d="M936.839,794.553a9.179,9.179,0,0,0-2.118-1.173.251.251,0,0,0-.382.1,21.731,21.731,0,0,0-3.12,6.013,10.451,10.451,0,0,1-1.558,3.528c-.108.131-.285.265-.434.188-.214-.109-.083-.454-.2-.662-.148-.263-.554-.143-.8.037a3.426,3.426,0,0,0-.982,1.142,1.141,1.141,0,0,0-.177.716,1.055,1.055,0,0,0,.557.7c1.059.614,2.389.171,3.522-.285a4.027,4.027,0,0,0,.888-.442c.571-.4.882-1.073,1.45-1.464a8.345,8.345,0,0,0,.876-.548c.525-.477.571-1.279.953-1.884.639-1.036,2.069-1.3,2.629-2.406A3.1,3.1,0,0,0,936.839,794.553Z" transform="translate(-672.707 -583.077)" fill="#3f3d56"/>
    <path id="Path_849" data-name="Path 849" d="M858.451,594.217c2.243,1.684,3.185,4.678,3.085,7.48a26.385,26.385,0,0,1-2.061,8.12q-2.1,5.642-4.19,11.282a4.656,4.656,0,0,1,.285,1.284,1.578,1.578,0,0,1-.285,1.261c-.131.151-.285.268-.428.417a2.235,2.235,0,0,0-.371,1.75,5.066,5.066,0,0,1,.049,1.829c-.066.254-.186.494-.231.751a.745.745,0,0,0,.208.719c.285.228.856.154.939.514a42.657,42.657,0,0,1,9.5,11.7c.925,1.664,1.858,3.508,3.585,4.312a62.558,62.558,0,0,0-4.832,4.25c-2.412-2.112-3.613-5.186-5.582-7.706a17.7,17.7,0,0,0-4.447-3.976,8.134,8.134,0,0,1,1.093,4.915,22.82,22.82,0,0,1-.374,2.48c-.442,2.6-.4,5.423,1,7.666a8.388,8.388,0,0,1-4.883,1.122,4.156,4.156,0,0,1-2.66-1.518,100.352,100.352,0,0,0-3.079-16.231,19.95,19.95,0,0,1-.665-3.285c-.2-2.283.408-4.823-.228-6.93a12.919,12.919,0,0,1-.571-3.157v-.34a12.932,12.932,0,0,0-.268-2.318l-1.216-5.4c-.531-2.36-1.062-4.82-.488-7.169a3.814,3.814,0,0,1-.776-.408c-.465-.265-.391-.959-.18-1.45s.494-1.047.257-1.527a3.727,3.727,0,0,0-.431-.545,2.742,2.742,0,0,1-.4-1.487l-.148-2.061a4.033,4.033,0,0,1,2.032,1.778c-1.125-1.741-.571-4.224.26-6.125a2.791,2.791,0,0,1,2.62-2.075C849.147,593.36,854.735,591.422,858.451,594.217Z" transform="translate(-610.248 -439.749)" fill="#3f3d56"/>
    <path id="Path_850" data-name="Path 850" d="M890.714,638.93s-2.249,1.5-2.249,2.626-.571,11.245-.571,11.245v7.135s.374,3.75,0,4.686,0,5.249,0,5.811.571-5.811.571-5.811v-6.758l.571-15.372Z" transform="translate(-644.597 -472.744)" opacity="0.1"/>
    <path id="Path_851" data-name="Path 851" d="M802.93,419.717l-1.31-.511c-2.677-1.073-5.357-2.149-7.948-3.408a12.152,12.152,0,0,1-4.966-3.724c-.377-.571-.668-1.17-1.042-1.732a13.817,13.817,0,0,0-1.427-1.692l-3.5-3.739c-.268.5.074,1.087.348,1.581a6.853,6.853,0,0,1,.648,1.652.765.765,0,0,1-.02.571,1.11,1.11,0,0,1-.477.337,1.675,1.675,0,0,0-.722,1.932,2.155,2.155,0,0,0,1.615,1.393,3.067,3.067,0,0,1,.722.174c.422.208.622.685.925,1.042a4.153,4.153,0,0,0,2.26,1.113c1.3,1.476,2.64,2.888,3.936,4.364a28.227,28.227,0,0,0,6.519,6.016,9.547,9.547,0,0,0,2.943,1.182,47.677,47.677,0,0,1,1.5-6.55Z" transform="translate(-569.357 -305.514)" fill="#a1616a"/>
    <path id="Path_852" data-name="Path 852" d="M802.93,419.717l-1.31-.511c-2.677-1.073-5.357-2.149-7.948-3.408a12.152,12.152,0,0,1-4.966-3.724c-.377-.571-.668-1.17-1.042-1.732a13.817,13.817,0,0,0-1.427-1.692l-3.5-3.739c-.268.5.074,1.087.348,1.581a6.853,6.853,0,0,1,.648,1.652.765.765,0,0,1-.02.571,1.11,1.11,0,0,1-.477.337,1.675,1.675,0,0,0-.722,1.932,2.155,2.155,0,0,0,1.615,1.393,3.067,3.067,0,0,1,.722.174c.422.208.622.685.925,1.042a4.153,4.153,0,0,0,2.26,1.113c1.3,1.476,2.64,2.888,3.936,4.364a28.227,28.227,0,0,0,6.519,6.016,9.547,9.547,0,0,0,2.943,1.182,47.677,47.677,0,0,1,1.5-6.55Z" transform="translate(-569.357 -305.514)" opacity="0.15"/>
    <path id="Path_853" data-name="Path 853" d="M842.647,463.3a1.572,1.572,0,0,1-1.119-.537,1.5,1.5,0,0,1-.123-.985,27.612,27.612,0,0,1,1.427-6.307,6.82,6.82,0,0,0,3.077,2.486,22.839,22.839,0,0,0,3.3,1.507c-.285-.091-.985,4.3-1.378,4.566-.5.348-1.7-.123-2.246-.217Z" transform="translate(-611.471 -341.644)" fill="#ff9981"/>
    <circle id="Ellipse_372" data-name="Ellipse 372" cx="5.999" cy="5.999" r="5.999" transform="translate(228.216 108.361)" fill="#a1616a"/>
    <path id="Path_854" data-name="Path 854" d="M852.22,464.35s3.936,3.373,2.249,5.622-2.626,3.75-.377,3.939,9.747-3.75,9.747-3.75-6.935-5.622-5.811-9S852.22,464.35,852.22,464.35Z" transform="translate(-619.223 -345.024)" fill="#fbbebe"/>
    <path id="Path_855" data-name="Path 855" d="M849.858,482.675a4.655,4.655,0,0,0-3.445,3.465c-.442,2.021.5,4.281-.388,6.142a24.4,24.4,0,0,1-1.712,2.377,4.852,4.852,0,0,0,.451,5.6c.391.445.893.876.939,1.464a5.392,5.392,0,0,1-.08.8,5.93,5.93,0,0,0,.411,1.858,1.89,1.89,0,0,1-.157,1.535,2.223,2.223,0,0,0-.388,1.476,9.87,9.87,0,0,1-.248,2.4c-.026.348,0,.7-.031,1.045a6.092,6.092,0,0,1-.206.979l-.5,1.852a20.588,20.588,0,0,0,8.562,1.53,41.961,41.961,0,0,0,7.817-1.142c.785-.166,1.57-.331,2.343-.545-1.633-2.135-1.807-4.963-1.852-7.649a114.169,114.169,0,0,0-1-13.385,17.214,17.214,0,0,0,1.467-4.815,8.139,8.139,0,0,0,.183-2.035,10.826,10.826,0,0,0-1.379-4.076,5.277,5.277,0,0,0-2.534-2.937,2.015,2.015,0,0,0-1.949.214c-.99.748-.7,2.038-.95,3.139a4.214,4.214,0,0,1-3.051,2.854,9.919,9.919,0,0,1-3.208.3.571.571,0,0,1-.405-.936C849,483.677,849.464,483.16,849.858,482.675Z" transform="translate(-613.085 -358.07)" fill="#ff9981"/>
    <path id="Path_856" data-name="Path 856" d="M850.3,574.49a39.056,39.056,0,0,1-7.029,4.932c-1.5.753-3.1,1.31-4.566,2.12a1.824,1.824,0,0,0-.856.776,1.918,1.918,0,0,0-.046,1.07l.651,4.487c.18,1.216,1.347,2,2.283,2.774a1.643,1.643,0,0,1,.06-1.087,3.647,3.647,0,0,1,.22-.328,3.079,3.079,0,0,0,.317-2.109,11.719,11.719,0,0,1-.248-2.163.708.708,0,0,1,.3-.628c3.188-1.533,6.621-2.708,9.844-4.164a10.427,10.427,0,0,0,2.389-1.356,3.676,3.676,0,0,0,1.387-2.3.451.451,0,0,0-.057-.351.476.476,0,0,0-.243-.143C853.262,575.492,851.738,575.009,850.3,574.49Z" transform="translate(-608.881 -426.695)" fill="#a1616a"/>
    <path id="Path_857" data-name="Path 857" d="M853.124,508.492a3.227,3.227,0,0,0-2.634,1.812,4.025,4.025,0,0,0-.148,1.427,4.64,4.64,0,0,0,.334,1.978,5.581,5.581,0,0,0,.668.97c2.637,3.379,3.961,7.623,6.53,11.057.228.3.645.7.517,1.053a2.546,2.546,0,0,0-.123.285.571.571,0,0,0,.188.5,1.219,1.219,0,0,1,.311.454c.049.18-.071.414-.257.4a3.818,3.818,0,0,0,2.149,1.961,8.949,8.949,0,0,0,4.8,1.179,10.95,10.95,0,0,0,.571-3.927,10.2,10.2,0,0,0-.956-2.786l-1.116-2.437a36.3,36.3,0,0,0-3.234-6.039,9.134,9.134,0,0,1-1.2-1.927c-.34-.882-1.273-1.5-1.838-2.258a13.99,13.99,0,0,0-2.837-3.108A2.563,2.563,0,0,0,853.124,508.492Z" transform="translate(-617.873 -379.523)" opacity="0.1"/>
    <path id="Path_858" data-name="Path 858" d="M853.125,506.522a3.23,3.23,0,0,0-2.634,1.809,4.053,4.053,0,0,0-.148,1.427,4.642,4.642,0,0,0,.334,1.978,5.584,5.584,0,0,0,.668.97c2.637,3.379,3.961,7.623,6.53,11.056.228.3.645.7.517,1.053a2.544,2.544,0,0,0-.123.285.571.571,0,0,0,.188.5,1.219,1.219,0,0,1,.311.454c.049.18-.071.414-.257.4a3.818,3.818,0,0,0,2.149,1.961,8.949,8.949,0,0,0,4.8,1.179,10.949,10.949,0,0,0,.571-3.927,10.194,10.194,0,0,0-.956-2.786l-1.116-2.437a36.289,36.289,0,0,0-3.234-6.039,9.083,9.083,0,0,1-1.2-1.929c-.34-.879-1.273-1.5-1.838-2.255a13.987,13.987,0,0,0-2.837-3.108A2.575,2.575,0,0,0,853.125,506.522Z" transform="translate(-617.873 -378.115)" fill="#ff9981"/>
    <path id="Path_859" data-name="Path 859" d="M838.676,419.1a6.605,6.605,0,0,0-2.335.491,2.246,2.246,0,0,0-1.356,1.832,10.886,10.886,0,0,1,.111,1.387c-.1.765-.81,1.281-1.176,1.958a3.507,3.507,0,0,0,.685,3.71c.828,1.039,1.949,1.838,2.8,2.871a7.42,7.42,0,0,1,1.547,5.971,4.738,4.738,0,0,0-.151,1.247,3.584,3.584,0,0,0,1.073,1.938,89.511,89.511,0,0,1,6.77,9.007,24.329,24.329,0,0,1,1.667,2.854,17.311,17.311,0,0,0,1.53,3.017,7.966,7.966,0,0,0,2.246,1.927,15.862,15.862,0,0,0,7.192,2.32l-1.47-3.645a4.185,4.185,0,0,1-.442-2.024c.163-1.313,1.487-2.175,1.918-3.425a4.154,4.154,0,0,0-.077-2.512c-.519-1.846-1.558-3.508-2.118-5.343a10.845,10.845,0,0,1-.32-4.969,7.677,7.677,0,0,0,.231-2.2c-.271-2.232-2.888-3.3-4.1-5.191a11.211,11.211,0,0,1-1.2-4.135,13.051,13.051,0,0,0-2.363-5.8,6.811,6.811,0,0,0-5.423-2.766,10.961,10.961,0,0,0-3.259.816l-2.751,1" transform="translate(-605.939 -314.592)" fill="#3f3d56"/>
    <g id="Group_855" data-name="Group 855" transform="translate(227.699 108.332)" opacity="0.1">
      <path id="Path_860" data-name="Path 860" d="M893.918,437.053a13.2,13.2,0,0,0,.985,3.77c-.083-.445-.151-.893-.234-1.333a16.623,16.623,0,0,0-.919-3.271C893.821,436.5,893.87,436.774,893.918,437.053Z" transform="translate(-876.6 -436.22)"/>
      <path id="Path_861" data-name="Path 861" d="M911.7,475.833a10.9,10.9,0,0,0,.32,4.972,12.85,12.85,0,0,0,.468,1.284,10.865,10.865,0,0,1-.037-3.819,7.675,7.675,0,0,0,.231-2.2,3.425,3.425,0,0,0-.742-1.712C911.9,474.857,911.786,475.345,911.7,475.833Z" transform="translate(-889.321 -463.475)"/>
      <path id="Path_862" data-name="Path 862" d="M916.706,520.245a13.78,13.78,0,0,0-.571-1.575,3.5,3.5,0,0,1-.108,1.65c-.431,1.247-1.758,2.112-1.918,3.425a4.152,4.152,0,0,0,.442,2.023c.1.243.194.488.285.731a2.346,2.346,0,0,1,0-.317c.163-1.313,1.487-2.175,1.918-3.425A3.983,3.983,0,0,0,916.706,520.245Z" transform="translate(-891.136 -495.139)"/>
      <path id="Path_863" data-name="Path 863" d="M864.276,505.326a7.991,7.991,0,0,1-2.246-1.929,17.217,17.217,0,0,1-1.533-3.017,24.068,24.068,0,0,0-1.667-2.854,89.636,89.636,0,0,0-6.767-9.01c-.088-.1-.174-.2-.26-.305a2.933,2.933,0,0,0-.066.8,3.583,3.583,0,0,0,1.073,1.938,89.538,89.538,0,0,1,6.77,9.007,24.339,24.339,0,0,1,1.667,2.854,17.3,17.3,0,0,0,1.53,3.017,7.967,7.967,0,0,0,2.246,1.926,15.862,15.862,0,0,0,7.192,2.32l-1-2.454a15.88,15.88,0,0,1-6.941-2.3Z" transform="translate(-846.575 -473.372)"/>
      <path id="Path_864" data-name="Path 864" d="M836.675,449.291c-.856-1.033-1.972-1.818-2.8-2.868-.074-.1-.146-.2-.217-.3a4.156,4.156,0,0,0,.968,2.737c.828,1.053,1.949,1.838,2.8,2.871a7.134,7.134,0,0,1,.856,1.3,7.42,7.42,0,0,0-1.607-3.739Z" transform="translate(-833.658 -443.294)"/>
    </g>
    <g id="baseline-favorite-24px" transform="translate(96.687 91.917)">
      <path id="Path_797" data-name="Path 797" d="M0,0H14.365V14.365H0Z" fill="none"/>
      <path id="Path_798" data-name="Path 798" d="M7.985,13.983l-.868-.79C4.035,10.4,2,8.554,2,6.292A3.26,3.26,0,0,1,5.292,3,3.584,3.584,0,0,1,7.985,4.251,3.584,3.584,0,0,1,10.679,3,3.26,3.26,0,0,1,13.97,6.292c0,2.262-2.035,4.106-5.117,6.907Z" transform="translate(-0.803 -1.204)" fill="#fff"/>
    </g>
    <g id="baseline-favorite-24px-2" data-name="baseline-favorite-24px" transform="translate(153.639 91.917)">
      <path id="Path_797-2" data-name="Path 797" d="M0,0H14.365V14.365H0Z" fill="none"/>
      <path id="Path_798-2" data-name="Path 798" d="M7.985,13.983l-.868-.79C4.035,10.4,2,8.554,2,6.292A3.26,3.26,0,0,1,5.292,3,3.584,3.584,0,0,1,7.985,4.251,3.584,3.584,0,0,1,10.679,3,3.26,3.26,0,0,1,13.97,6.292c0,2.262-2.035,4.106-5.117,6.907Z" transform="translate(-0.803 -1.204)" fill="#fff"/>
    </g>
  </g>
</svg>
