<svg xmlns="http://www.w3.org/2000/svg" width="256.912" height="200.059" viewBox="0 0 256.912 200.059">
  <g id="order-illustration" transform="translate(21 11.098)">
    <path id="Path_1244" data-name="Path 1244" d="M207.624,50.73c8.717-9.2,22.4-11.073,34.854-10.346,39.121,2.3,74.436,24.669,104.982,49.971,11.057,9.159,21.944,19.03,29.124,31.643,14.611,25.677,10.276,61.245-10.036,82.409-6.912,7.194-15.288,12.713-23.9,17.6-15.288,8.7-31.8,15.677-49.162,17.666-12.383,1.416-24.914.262-37.224-1.714-34.406-5.532-68.149-17.747-96.443-38.642-12.408-9.166-24.1-20.559-29.211-35.387s-1.845-33.615,10.822-42.389c5.242-3.631,11.507-5.27,17.641-6.809,9.028-2.263,18.2-4.5,26.35-9.1,8.417-4.756,18.381-13.957,16.716-24.488C200.351,69.841,198.926,59.918,207.624,50.73Z" transform="translate(-149.301 -51.34)" fill="#6c63ff" opacity="0.1"/>
    <ellipse id="Ellipse_446" data-name="Ellipse 446" cx="99.194" cy="4.573" rx="99.194" ry="4.573" transform="translate(0 144.01)" fill="#3f3d56"/>
    <path id="Path_1202" data-name="Path 1202" d="M234.88,541.922l-28.745,5.88-.653-.065-25.261-2.548V513.176l30.923-5.226,22.43,2.613.007.141,0,.07Z" transform="translate(-140.974 -397.411)" fill="#ff9981"/>
    <path id="Path_1203" data-name="Path 1203" d="M325.619,551.817l-28.746,5.88-.653-.065V524.814l28.1-4.214Z" transform="translate(-231.713 -407.306)" opacity="0.1"/>
    <path id="Path_1204" data-name="Path 1204" d="M233.582,510.774l-.009.007-28.092,4.138-25.261-1.742,30.923-5.226,22.43,2.613.007.141Z" transform="translate(-140.974 -397.411)" opacity="0.05"/>
    <path id="Path_1205" data-name="Path 1205" d="M379.88,547.922l-28.746,5.88-.653-.065-25.261-2.548V519.177l30.923-5.227,22.43,2.613.007.142,0,.07Z" transform="translate(-254.397 -402.105)" fill="#3f3d56"/>
    <path id="Path_1206" data-name="Path 1206" d="M470.619,557.817l-28.745,5.88-.653-.065V530.814l28.1-4.214Z" transform="translate(-345.136 -412)" opacity="0.1"/>
    <path id="Path_1207" data-name="Path 1207" d="M378.582,516.774l-.009.007-28.092,4.138-25.261-1.742,30.923-5.227,22.43,2.613.007.142Z" transform="translate(-254.397 -402.105)" opacity="0.05"/>
    <path id="Path_1208" data-name="Path 1208" d="M288.88,403.922l-28.746,5.88-.653-.065-25.261-2.548V375.176l30.923-5.226,22.43,2.613.007.142,0,.07Z" transform="translate(-183.214 -289.463)" fill="#3f3d56"/>
    <path id="Path_1209" data-name="Path 1209" d="M379.619,413.817l-28.745,5.88-.653-.065V386.814l28.1-4.214Z" transform="translate(-273.953 -299.358)" opacity="0.1"/>
    <path id="Path_1210" data-name="Path 1210" d="M287.582,372.774l-.009.007-28.092,4.138-25.261-1.742,30.923-5.226,22.43,2.613.007.142Z" transform="translate(-183.214 -289.463)" opacity="0.05"/>
    <path id="Path_1211" data-name="Path 1211" d="M457.748,468.421l-15,3.071-.342-.035-13.184-1.331V453.419l16.139-2.729,11.707,1.365,0,.074v.035Z" transform="translate(-335.749 -352.621)" fill="#b09a51"/>
    <path id="Path_1212" data-name="Path 1212" d="M505.1,473.591l-15,3.071-.342-.035V459.5l14.667-2.2Z" transform="translate(-383.106 -357.791)" opacity="0.1"/>
    <path id="Path_1213" data-name="Path 1213" d="M457.07,452.164l0,0-14.662,2.16-13.184-.91,16.139-2.729,11.707,1.365,0,.074Z" transform="translate(-335.749 -352.621)" opacity="0.05"/>
    <path id="Path_1214" data-name="Path 1214" d="M272.748,319.421l-15,3.068-.342-.033-13.184-1.331V304.419l16.139-2.729,11.707,1.365,0,.074v.035Z" transform="translate(-191.036 -236.068)" fill="#b09a51"/>
    <path id="Path_1215" data-name="Path 1215" d="M320.1,324.591l-15,3.068-.342-.033V310.5l14.667-2.2Z" transform="translate(-238.393 -241.239)" opacity="0.1"/>
    <path id="Path_1216" data-name="Path 1216" d="M272.07,303.164l0,0-14.662,2.16-13.184-.91,16.139-2.729,11.707,1.365,0,.074Z" transform="translate(-191.036 -236.068)" opacity="0.05"/>
    <path id="Path_1217" data-name="Path 1217" d="M393.748,316.421l-15,3.068-.342-.033-13.184-1.331V301.419l16.139-2.729,11.707,1.365,0,.074v.035Z" transform="translate(-285.686 -233.721)" fill="#ff9981"/>
    <path id="Path_1218" data-name="Path 1218" d="M441.1,321.591l-15,3.068-.342-.033V307.5l14.667-2.2Z" transform="translate(-333.043 -238.892)" opacity="0.1"/>
    <path id="Path_1219" data-name="Path 1219" d="M393.07,300.164l0,0-14.662,2.16-13.184-.91,16.139-2.729,11.707,1.365,0,.074Z" transform="translate(-285.686 -233.721)" opacity="0.05"/>
    <path id="Path_1220" data-name="Path 1220" d="M429.748,239.421l-15,3.068-.342-.033-13.184-1.331V224.419l16.139-2.729,11.707,1.365,0,.074v.035Z" transform="translate(-313.847 -173.49)" fill="#3f3d56"/>
    <path id="Path_1221" data-name="Path 1221" d="M477.1,244.591l-15,3.068-.342-.033V230.5l14.667-2.2Z" transform="translate(-361.203 -178.66)" opacity="0.1"/>
    <path id="Path_1222" data-name="Path 1222" d="M429.07,223.164l0,0-14.662,2.16-13.184-.91,16.139-2.729,11.707,1.365,0,.074Z" transform="translate(-313.847 -173.49)" opacity="0.05"/>
    <path id="Path_1223" data-name="Path 1223" d="M697.834,228.532c-.159,1.415-1.239,2.557-1.64,3.92-.6,2.058.435,4.268,1.864,5.88a13.016,13.016,0,0,0,9.064,4.3,3.9,3.9,0,0,0,1.5-.163,3.254,3.254,0,0,0,1.139-.78,7.282,7.282,0,0,0,1.877-4.074,21.789,21.789,0,0,0,.052-4.554,2.576,2.576,0,0,0-.17-.919,2.335,2.335,0,0,0-.59-.725,13.722,13.722,0,0,0-2.537-1.844,2.849,2.849,0,0,1-1.063-.812,2.659,2.659,0,0,1-.329-.973l-.281-1.429a2.8,2.8,0,0,0-.412-1.159,2.85,2.85,0,0,0-2.271-.79l-3.049-.12a14.582,14.582,0,0,0-3.119-.122c-.871.172-.577.969-.42,1.692A12.239,12.239,0,0,1,697.834,228.532Z" transform="translate(-571.716 -196.756)" fill="#ffc0c6"/>
    <path id="Path_1224" data-name="Path 1224" d="M697.834,228.532c-.159,1.415-1.239,2.557-1.64,3.92-.6,2.058.435,4.268,1.864,5.88a13.016,13.016,0,0,0,9.064,4.3,3.9,3.9,0,0,0,1.5-.163,3.254,3.254,0,0,0,1.139-.78,7.282,7.282,0,0,0,1.877-4.074,21.789,21.789,0,0,0,.052-4.554,2.576,2.576,0,0,0-.17-.919,2.335,2.335,0,0,0-.59-.725,13.722,13.722,0,0,0-2.537-1.844,2.849,2.849,0,0,1-1.063-.812,2.659,2.659,0,0,1-.329-.973l-.281-1.429a2.8,2.8,0,0,0-.412-1.159,2.85,2.85,0,0,0-2.271-.79l-3.049-.12a14.582,14.582,0,0,0-3.119-.122c-.871.172-.577.969-.42,1.692A12.239,12.239,0,0,1,697.834,228.532Z" transform="translate(-571.716 -196.756)" opacity="0.1"/>
    <path id="Path_1225" data-name="Path 1225" d="M736.437,512.02,735.143,526.2c-.338,3.719-.682,7.454-1.344,11.126-.218,1.265-.5,2.524-.815,3.772-.884,3.465-2.167,6.851-2.58,10.4-.013.1-.024.218-.035.311a9.325,9.325,0,0,1-.436,2.308c-.218.542-.525,1.037-.749,1.572a10.305,10.305,0,0,0-.56,3.417,14.73,14.73,0,0,0-5.072-1.742,3.756,3.756,0,0,1-2.4-.871,3.42,3.42,0,0,1-.468-2.75q.514-4.443,1.024-8.881a23.135,23.135,0,0,1,.653-3.772c.118-.412.259-.817.4-1.222.2-.557.4-1.115.549-1.688a20.333,20.333,0,0,0,.431-2.794c.351-2.979.773-5.952,1.143-8.929l.02-.157a91.306,91.306,0,0,0,.856-13.591c-.017-.673-.046-1.346-.089-2.021-.061-.978-.15-1.5.653-2.108a15.238,15.238,0,0,1,3.1-1.59c.551-.24,6.618-2.4,6.751-1.921a11.82,11.82,0,0,1,.436,3.1,34.445,34.445,0,0,1-.179,3.848Z" transform="translate(-590.956 -416.49)" fill="#605d82"/>
    <path id="Path_1226" data-name="Path 1226" d="M741.452,613.831c-.218,1.265-.5,2.524-.814,3.772-.884,3.465-2.167,6.851-2.581,10.4-.013.1-.024.218-.035.311-2.7-3.863-4.983-8.018-7.622-11.923.2-.557.4-1.115.549-1.688a20.316,20.316,0,0,0,.453-2.811c.351-2.979.773-5.952,1.143-8.929l.02-.157a9.244,9.244,0,0,0,.653,1.831c1.773,3.6,5.984,5.422,8.044,8.87Q741.365,613.672,741.452,613.831Z" transform="translate(-598.609 -492.994)" opacity="0.1"/>
    <path id="Path_1227" data-name="Path 1227" d="M680.327,445a66.983,66.983,0,0,0,1.013,8.6l.952,5.88c.52,3.223,1.065,6.509,2.589,9.395a43.364,43.364,0,0,0,4.271,5.939c3.654,4.76,6.4,10.155,9.865,15.054,1.008,1.424,2.448,2.966,4.166,2.668,1.128-.194,1.947-1.135,2.831-1.858a17.611,17.611,0,0,0,3.127-2.55c.823-1.071.984-2.848-.131-3.611a6.019,6.019,0,0,0-1.276-.523,6.907,6.907,0,0,1-3.556-4.051,38.6,38.6,0,0,0-2.091-5.126c-2.06-3.447-6.274-5.268-8.047-8.872a16.011,16.011,0,0,1-1.163-6.592l-.194-5.729a4.174,4.174,0,0,1,.218-1.851c.677-1.524,2.724-1.668,4.384-1.862a14.973,14.973,0,0,0,5.372-1.694,5.572,5.572,0,0,0,2.4-2.132,6.848,6.848,0,0,0,.584-2.885l.575-10.385a6.548,6.548,0,0,0-.218-2.655c-.79-2.1-3.447-2.792-5.692-2.692-4.177.187-8.031,1.984-11.977,3.2a30.62,30.62,0,0,1-2.968.773,24.067,24.067,0,0,0-2.8.388c-1.5.505-1.461,3.785-1.672,5.144A43.177,43.177,0,0,0,680.327,445Z" transform="translate(-559.43 -355.835)" fill="#605d82"/>
    <path id="Path_1228" data-name="Path 1228" d="M779.733,704.2a2.661,2.661,0,0,1,.584,1.431,48.823,48.823,0,0,1,.828,8.648,1.433,1.433,0,0,0,.155.784,1,1,0,0,0,.407.327c1.065.507,2.3-.2,3.188-.978a8.221,8.221,0,0,0,3.129-5.557,12.788,12.788,0,0,1,.059-1.685,7.013,7.013,0,0,1,1.047-2.258,19.177,19.177,0,0,0,1.742-3.881c.161-.51.27-1.15-.131-1.5a1.4,1.4,0,0,0-.473-.246l-4.813-1.786c-.418-.155-1.455,2.509-1.618,2.8a2.2,2.2,0,0,1-1.612,1.28c-.808.166-1.805-.074-2.576.338C778.343,702.61,778.994,703.461,779.733,704.2Z" transform="translate(-636.547 -567.056)" fill="#535070"/>
    <path id="Path_1229" data-name="Path 1229" d="M728.99,732.89a1.467,1.467,0,0,0-.366-.464,1.64,1.64,0,0,0-.738-.25,2.877,2.877,0,0,0-2.633.422c-.592.638-.49,1.677-.984,2.4a7.453,7.453,0,0,0-.505.653,2.453,2.453,0,0,0-.218,1.172c-.026,1.108-.052,2.221.026,3.328a4.643,4.643,0,0,0,.8,2.628c.932,1.167,2.613,1.335,4.1,1.409l1.209.063a2.4,2.4,0,0,0,.989-.091,1.622,1.622,0,0,0,.854-.939c.629-1.564-.366-3.247-.98-4.815C729.838,736.6,729.964,734.6,728.99,732.89Z" transform="translate(-593.227 -594.098)" fill="#535070"/>
    <path id="Path_1230" data-name="Path 1230" d="M687.893,177a.985.985,0,0,1,.068-.466c.176-.311.638-.218.987-.139,1.4.353,2.877.033,4.32.115s3.068.8,3.358,2.219A10.5,10.5,0,0,0,699.289,176a3.281,3.281,0,0,0,.695-2,3.936,3.936,0,0,0-1.742-2.469l-2.4-1.96a3.639,3.639,0,0,0-1.076-.684,5.353,5.353,0,0,0-1.742-.1c-1.742,0-3.611-.795-5.163,0a5.51,5.51,0,0,0-1.609,1.463l-2.141,2.535a1.353,1.353,0,0,0-.344.581,2.56,2.56,0,0,0,.155.926c.1.566-.144,1.172.044,1.716.311.9,1.409,1.03,2.08,1.548.248.192.64.847.939.838C687.512,178.378,687.878,177.42,687.893,177Z" transform="translate(-562.123 -153.207)" fill="#3f3d56"/>
    <circle id="Ellipse_447" data-name="Ellipse 447" cx="6.86" cy="6.86" r="6.86" transform="translate(122.543 17.552)" fill="#ffc0c6"/>
    <path id="Path_1231" data-name="Path 1231" d="M667.509,253.04a3.323,3.323,0,0,0-3.225-2.226.969.969,0,0,1-.6-.076.825.825,0,0,1-.246-.3,12.133,12.133,0,0,1-1-2.365c-.109-.364-.259-.793-.627-.886a.842.842,0,0,0-.8.348,7.621,7.621,0,0,1-.571.716c-.871.771-2.4.068-3.308.775-.15.115-.274.263-.436.37a1.983,1.983,0,0,1-.5.218,48.215,48.215,0,0,0-5.2,2.032,48.865,48.865,0,0,0,2.661,10.834c.679,1.633,1.448,3.234,1.993,4.917,1.206,3.73,1.259,7.722,1.274,11.644a24.42,24.42,0,0,1-.871,7.962,7.706,7.706,0,0,0-.49,1.742,1.812,1.812,0,0,0,.614,1.629,2.071,2.071,0,0,0,.947.333,12.31,12.31,0,0,0,4.5-.523,121.153,121.153,0,0,1,12.06-1.96l6.773-.871a3.96,3.96,0,0,0,1.4-.364c1.239-.677,1.357-2.541.586-3.726-.368-.568-.888-1.034-1.2-1.635a1.519,1.519,0,0,1,.2-1.862c1.089-.849.762-2.424.814-3.8q.218-5.775-.059-11.542a22.58,22.58,0,0,1-.039-2.4,21.137,21.137,0,0,1,.747-4l2.058-8.1a4.224,4.224,0,0,0-2.541-1.633c-.973-.244-1.99-.316-2.951-.614-1.96-.61-3.719-2.156-5.773-2.012a1.056,1.056,0,0,0-.449.109c-.462.263-.39.93-.418,1.461a4.043,4.043,0,0,1-1.886,2.851,34.06,34.06,0,0,0-2.925,1.977A1.307,1.307,0,0,0,667.509,253.04Z" transform="translate(-536.499 -213.618)" fill="#3f3d56"/>
    <path id="Path_1232" data-name="Path 1232" d="M588.9,305.68a8.055,8.055,0,0,1-1.442.743,4.792,4.792,0,0,0-1.383.671,2.189,2.189,0,0,0-.481.595,2.642,2.642,0,0,0,2.435,3.935,5.308,5.308,0,0,0,1.8-.538l4.839-2.106a3.8,3.8,0,0,0,2.091-1.574.379.379,0,0,0,.048-.25.411.411,0,0,0-.2-.218,10.839,10.839,0,0,1-2.816-2.657c-.2-.27-.436-.906-.723-1.069C592.048,302.642,589.724,305.149,588.9,305.68Z" transform="translate(-485.073 -258.573)" fill="#ffc0c6"/>
    <path id="Path_1233" data-name="Path 1233" d="M798.04,307l1.784,2.038c.383.436.767.871,1.115,1.341a15.608,15.608,0,0,1,2.043,3.848,6.728,6.728,0,0,1,.575,3.182,7.838,7.838,0,0,1-.446,1.618,20.008,20.008,0,0,1-1.213,2.918,16.619,16.619,0,0,1-1.357,2.041,47.714,47.714,0,0,1-4.523,5.172,5.819,5.819,0,0,0-1.13,2.4,10.012,10.012,0,0,1-2.781,3.789,7.665,7.665,0,0,1-1.2,1.028,3.876,3.876,0,0,1-2.178.618,2.4,2.4,0,0,1-.978-.2,2.529,2.529,0,0,1-1.244-2.106,4.508,4.508,0,0,1,.375-2.256c1.024-2.267,3.652-3.249,5.51-4.9a17.981,17.981,0,0,0,2.746-3.393,11.77,11.77,0,0,0,1.387-2.432c.414-1.108.253-2.419.616-3.543.152-.477.436-.906.59-1.378a1.632,1.632,0,0,0-.083-1.439,2.08,2.08,0,0,0-.808-.592c-1.187-.6-2.515-1.376-2.742-2.689a2.879,2.879,0,0,1,.531-2.054,8.493,8.493,0,0,1,1.5-1.568C796.647,307.965,797.52,307.449,798.04,307Z" transform="translate(-642.486 -261.602)" fill="#ffc0c6"/>
    <path id="Path_1234" data-name="Path 1234" d="M567.13,321.434a3.3,3.3,0,0,0-1.344-1.6,2.474,2.474,0,0,0-1.96,0,7.43,7.43,0,0,0-1.716,1.037L560.573,322a3.782,3.782,0,0,0-.912.843,3.509,3.509,0,0,0-.475,1.307,9.49,9.49,0,0,0-.242,3.225,9.176,9.176,0,0,0,2.439,4.573,4.073,4.073,0,0,0,2.7,1.692,1.239,1.239,0,0,0,1.193-.6,1.487,1.487,0,0,0,.107-.536A11.936,11.936,0,0,0,564,326.924a3.454,3.454,0,0,1-.435-1.5.405.405,0,0,1,.065-.253.422.422,0,0,1,.261-.128c1.1-.218,3.007.64,3.781-.586C568.176,323.646,567.487,322.154,567.13,321.434Z" transform="translate(-464.446 -271.482)" fill="#ffc0c6"/>
    <path id="Path_1235" data-name="Path 1235" d="M686.249,167.092a1.015,1.015,0,0,1,.07-.466c.176-.314.638-.218.986-.139,1.4.353,2.877.033,4.321.115s3.066.8,3.358,2.219a10.569,10.569,0,0,0,2.663-2.735,3.293,3.293,0,0,0,.695-2.006,3.934,3.934,0,0,0-1.742-2.467l-2.4-1.96a3.63,3.63,0,0,0-1.074-.684,5.356,5.356,0,0,0-1.742-.1c-1.742,0-3.611-.795-5.163,0a5.511,5.511,0,0,0-1.609,1.463l-2.143,2.535a1.356,1.356,0,0,0-.342.581,2.559,2.559,0,0,0,.155.926c.1.566-.144,1.172.044,1.714.311.9,1.409,1.032,2.08,1.551.248.192.64.847.939.838C685.863,168.468,686.229,167.51,686.249,167.092Z" transform="translate(-560.84 -145.455)" fill="#3f3d56"/>
    <path id="Path_1236" data-name="Path 1236" d="M621,276.021a2.844,2.844,0,0,0-.719.669c-.25.381-.3.871-.518,1.263-.462.858-1.544,1.165-2.217,1.868a.7.7,0,0,0-.218.366.808.808,0,0,0,.181.527l3.254,5.113c1.089.1,2.121-.584,3.206-.492a3.233,3.233,0,0,0,1.206.052,3.5,3.5,0,0,0,.773-.473c.653-.409,1.507-.457,2.049-1a2.741,2.741,0,0,0,.581-2.062,8.137,8.137,0,0,0-.194-1.895c-.479-1.96-1.979-3.471-2.92-5.209-.459-.847-.708-1.341-1.677-.76S621.918,275.35,621,276.021Z" transform="translate(-510.161 -235.586)" fill="#3f3d56"/>
    <path id="Path_1237" data-name="Path 1237" d="M795.539,266.134a7.637,7.637,0,0,1,1.638,1.433c.494.638.775,1.422,1.252,2.075a22.635,22.635,0,0,0,1.611,1.707,13.015,13.015,0,0,1,1.86,3.029,45.436,45.436,0,0,1-4.207,4.747,1.348,1.348,0,0,1-.64.418,1.026,1.026,0,0,1-.9-.368c-.235-.244-.4-.549-.625-.8a3.212,3.212,0,0,0-1.988-.96,13.658,13.658,0,0,0-2.254-.033.871.871,0,0,1-.481-.081.8.8,0,0,1-.261-.3c-.871-1.5-.6-3.38-.287-5.091l.712-3.92a8.81,8.81,0,0,1,.594-2.178c.27-.577.871-1.557,1.616-1.383S794.909,265.681,795.539,266.134Z" transform="translate(-645.193 -228.284)" fill="#3f3d56"/>
    <path id="Path_1238" data-name="Path 1238" d="M302.748,242.421l-15,3.068-.342-.033-13.184-1.331V227.419l16.139-2.729,11.707,1.365,0,.074v.035Z" transform="translate(-214.503 -175.836)" fill="#ff9981"/>
    <path id="Path_1239" data-name="Path 1239" d="M350.1,247.591l-15,3.068-.342-.033V233.5l14.667-2.2Z" transform="translate(-261.86 -181.007)" opacity="0.1"/>
    <path id="Path_1240" data-name="Path 1240" d="M302.07,226.164l0,0-14.662,2.16-13.184-.91,16.139-2.729,11.707,1.365,0,.074Z" transform="translate(-214.503 -175.836)" opacity="0.05"/>
    <path id="Path_1241" data-name="Path 1241" d="M338.748,166.421l-15,3.071-.342-.035-13.184-1.331V151.419l16.139-2.729,11.707,1.365,0,.074v.035Z" transform="translate(-242.664 -116.387)" fill="#3f3d56"/>
    <path id="Path_1242" data-name="Path 1242" d="M386.1,171.591l-15,3.071-.342-.035V157.5l14.667-2.2Z" transform="translate(-290.02 -121.557)" opacity="0.1"/>
    <path id="Path_1243" data-name="Path 1243" d="M338.07,150.164l0,0-14.662,2.16-13.184-.91,16.139-2.729,11.707,1.365,0,.074Z" transform="translate(-242.664 -116.387)" opacity="0.05"/>
  </g>
</svg>
