<svg xmlns="http://www.w3.org/2000/svg" xmlns:xlink="http://www.w3.org/1999/xlink" width="267.526" height="203.659" viewBox="0 0 267.526 203.659">
  <defs>
    <linearGradient id="linear-gradient" x1="0.5" y1="1" x2="0.5" gradientUnits="objectBoundingBox">
      <stop offset="0" stop-color="gray" stop-opacity="0.251"/>
      <stop offset="0.54" stop-color="gray" stop-opacity="0.122"/>
      <stop offset="1" stop-color="gray" stop-opacity="0.102"/>
    </linearGradient>
  </defs>
  <g id="professionals-illustration" transform="translate(-6.904 -1.773)">
    <path id="Path_1245" data-name="Path 1245" d="M384.983,114.812c-.049.277-.1.554-.151.828a100.354,100.354,0,0,1-8.624,26.822c-.138.277-.275.554-.415.831a76.6,76.6,0,0,1-9.722,14.714,30.817,30.817,0,0,1-6.983,6.431c-3.746,2.347-8.125,3.3-12.429,4.078-4.47.812-9,1.491-13.522,2.222q-2.409.383-4.789.812c-4.366.775-8.7,1.672-12.933,2.861a67.561,67.561,0,0,0-15.09,6.088q-.574.311-1.134.66c-.374.224-.75.451-1.119.682s-.732.461-1.093.7c-.187.121-.374.243-.558.37s-.366.24-.545.364c-.54.361-1.07.731-1.6,1.105l-.021.016c-.35.246-.7.5-1.038.75-1.957,1.426-3.873,2.913-5.789,4.411l-1.2.934-1.866,1.447c-.363.283-.735.566-1.1.847-.26.205-.519.411-.8.623-1.36,1.027-2.739,2.036-4.153,3-.335.23-.672.461-1.012.685a53.425,53.425,0,0,1-8.935,4.831l-.042.019a35.66,35.66,0,0,1-4.745,1.606c-.927.243-1.856.442-2.8.594a25.043,25.043,0,0,1-7.58.128c-4.95-.688-9.589-2.966-14.537-3.735-10.186-1.556-20.079,3.458-29.658,7.386q-3.533,1.447-7.118,2.711c-1.589.563-3.183,1.1-4.789,1.609a153.358,153.358,0,0,1-30.034,6.316,70.609,70.609,0,0,1-12.759.339,39.388,39.388,0,0,1-4.787-.623,27.875,27.875,0,0,1-14.428-6.91,33.681,33.681,0,0,1-7.487-11.517,57.429,57.429,0,0,1-3.87-13.864c-.1-.657-.187-1.317-.26-1.977q-.195-1.693-.291-3.405a57.922,57.922,0,0,1,1.786-18.007c1.713-6.512,4.569-12.762,5.825-19.324q.078-.417.148-.831.257-1.495.382-3.016c.641-8.062-1.817-15.921-3.746-23.806-.067-.274-.135-.551-.2-.828q-.312-1.314-.6-2.624a65.3,65.3,0,0,1-.691-25.58c.049-.277.109-.554.166-.828a40.908,40.908,0,0,1,5.872-14.421,50.264,50.264,0,0,1,11.071-11.492q3.055-2.4,6.318-4.479,2.336-1.494,4.787-2.829a80.9,80.9,0,0,1,42.809-9.883c.779.04,1.558.09,2.336.159s1.63.149,2.445.24c9.516,1.108,18.776,3.782,27.971,6.7,3.081.98,6.157,1.986,9.231,2.973,1.368.436,2.733.872,4.1,1.295,6.7,2.076,13.5,3.956,20.383,5.36q2.391.495,4.787.9a114.936,114.936,0,0,0,16.741,1.7q3.268.078,6.539-.068,1.651-.072,3.3-.215c11.383-.962,22.384-4.18,33.4-7.187q2.391-.654,4.789-1.289c2.1-.554,4.195-1.089,6.3-1.584,13.117-3.091,24.809-1.314,37,5.064,2.772,1.447,5.542,3.2,7.24,5.914s2.123,6.054,2.44,9.276c.449,4.588.742,9.235.854,13.908,0,.274,0,.551.016.828A149.046,149.046,0,0,1,384.983,114.812Z" transform="translate(-116.176 -40.769)" fill="#6c63ff" opacity="0.1"/>
    <path id="Path_1259" data-name="Path 1259" d="M1022.32,444.492c.195-.083.4.075.607.114.119.023.241,0,.361.023.241.031.48.192.711.112" transform="translate(-770.985 -338.36)" fill="#d3dae1"/>
    <path id="Path_1260" data-name="Path 1260" d="M1021.34,445.062c.192-.083.4.073.607.114.119.021.241,0,.361.021.241.034.48.195.711.114" transform="translate(-770.26 -338.781)" fill="#d3dae1"/>
    <path id="Path_1261" data-name="Path 1261" d="M1019.08,446.2c.195-.083.4.073.61.112.117.023.241,0,.358.023.244.034.483.195.711.112" transform="translate(-768.586 -339.625)" fill="#d3dae1"/>
    <path id="Path_1264" data-name="Path 1264" d="M940.32,435.161c.195-.083.4.073.607.114.119.021.241,0,.361.021.241.034.48.195.711.114" transform="translate(-710.271 -331.451)" fill="#d3dae1"/>
    <path id="Path_1265" data-name="Path 1265" d="M939.34,435.731c.192-.083.4.073.607.112.119.023.241,0,.361.023.241.034.48.195.711.112" transform="translate(-709.546 -331.873)" fill="#d3dae1"/>
    <path id="Path_1266" data-name="Path 1266" d="M937.08,436.862c.195-.083.4.075.61.114.117.023.241,0,.358.023.244.031.483.195.711.112" transform="translate(-707.872 -332.711)" fill="#d3dae1"/>
    <path id="Path_1269" data-name="Path 1269" d="M979.65,439.831c.195-.083.4.073.61.112.117.023.239,0,.358.023.241.031.483.195.711.112" transform="translate(-739.392 -334.909)" fill="#d3dae1"/>
    <path id="Path_1270" data-name="Path 1270" d="M978.67,440.392c.195-.083.4.075.61.114.117.023.239,0,.358.023.241.031.483.195.711.112" transform="translate(-738.666 -335.324)" fill="#d3dae1"/>
    <path id="Path_1271" data-name="Path 1271" d="M976.42,441.531c.192-.083.4.073.607.114.119.021.241,0,.361.021.241.034.48.195.711.114" transform="translate(-737 -336.168)" fill="#d3dae1"/>
    <ellipse id="Ellipse_449" data-name="Ellipse 449" cx="52.561" cy="10.82" rx="52.561" ry="10.82" transform="translate(76.796 183.793)" fill="#6c63ff" opacity="0.1"/>
    <path id="Path_1272" data-name="Path 1272" d="M488,282.672a35.213,35.213,0,0,0-2.78-9.628l.169-1.661s.036-.831-.018-2.077a9.449,9.449,0,0,1,.3-2.305,4.746,4.746,0,0,0-.683-3.375c-.114-.164.057-3.323-.966-4.872s-7.834-4.431-7.834-4.431-.366-.766-.883-1.661l.047-.091a9.761,9.761,0,0,0-1.557-2.1c-.418-.447-.82-.7-1.145-.576a9.344,9.344,0,0,1-.3-1.316c.068.018.138.036.205.049a2.119,2.119,0,0,0,.857.021,2.545,2.545,0,0,0,1.407-1.246,19.862,19.862,0,0,0,3.585-8.771,5.576,5.576,0,0,0-.091-1.937,6.532,6.532,0,0,0-.607-1.415,11.37,11.37,0,0,0-1.713-2.526,9.76,9.76,0,0,0-4.6-2.521,15.933,15.933,0,0,0-5.945-.444c-.519.06-1.038.145-1.557.179a16.176,16.176,0,0,1-1.975-.034l-3.4-.2-.016-.052-.566-.034a1.433,1.433,0,0,0,.278,1.386,2.366,2.366,0,0,1,.574,1.339,2.738,2.738,0,0,1-.657,1.3,1.249,1.249,0,0,0-.21,1.358.778.778,0,0,0,.138.151,1.711,1.711,0,0,0,1.249.332h.078a8.455,8.455,0,0,0-1.721,5.119,8.608,8.608,0,0,0,4.7,7.627c.049.169.1.343.145.519a15.9,15.9,0,0,1,.545,5.612l-.06.13-.036-.138s-4,2.715-5.192,3.434a7.5,7.5,0,0,0-2.44,3.821c-.057.665-1.931,10.687-1.931,10.687a24.569,24.569,0,0,0-.94,3.094l-2.391,2.1s-4.932.444-6.36.112l.042.275a21.572,21.572,0,0,0-3.831-.519,4.063,4.063,0,0,0-2.077.278l-.049.023-.039.018a8.229,8.229,0,0,0-2.181.613c-.083.034-.158.068-.231.1l.016-.34-5.337-.275-2.726-.553s-.966-.779-1.534-.665-1.76-.665-1.76-.665a4.757,4.757,0,0,0-.877-.545c-.091-.628-.148-1.01-.148-1.01s-2.121-8.416-3.71-13.364a11.39,11.39,0,0,0-3.5-5.641c-.4-.7-.667-1.153-.667-1.153a5.155,5.155,0,0,0-1.373-2.009c-.039-.062-.068-.093-.083-.093a.3.3,0,0,0-.153.023,16.512,16.512,0,0,1-.023-7.435,8.206,8.206,0,0,0,3-6.324q0-.054,0-.109v-.112a8.169,8.169,0,0,0-1.929-5.27l-.088-.1a.691.691,0,0,0,.068-.055,1.391,1.391,0,0,0,.491-1.339,9.182,9.182,0,0,0-.706-1.363,8.825,8.825,0,0,1-.288-1.111,3.426,3.426,0,0,0-.818-1.425l.039.1a4.933,4.933,0,0,0-4.343-1.459c-1.171.187-2.261.732-3.437.9-.844.119-1.7.042-2.552.127a6.622,6.622,0,0,0-2.264.654,1.3,1.3,0,0,0-.48.353,1.9,1.9,0,0,0-.239.667,8.815,8.815,0,0,1-1.864,2.679,6.269,6.269,0,0,0-1.256,3.463,2.711,2.711,0,0,0,.091.947c.057.184.145.358.187.545a3.741,3.741,0,0,1-.314,1.705,3.32,3.32,0,0,0,.184,2.165c1.025,2.295,4.392,3.061,5.093,5.469a6.7,6.7,0,0,0,1.685.519c.047.239.088.48.122.724a.2.2,0,0,0-.044.026,5.163,5.163,0,0,0-1.134,2.6l-.109.088c-.371.306-1.641,1.334-2.788,2.126-1.363.942-3.634,4.1-5.223,5.041s-2.9,6.749-2.554,8.86,1.76,8.029,1.191,10.189.851,12.016.851,12.016a14.51,14.51,0,0,1,2.783.825l-.029.431-.086,1.3s-2.573,9.3-1.589,16.466-.454,7.9-.454,7.9.3,3.175-.454,4.283a9.217,9.217,0,0,0-.909,3.543s-.075,5.464.075,7.009.226,4.358-.3,5.023-1.513,5.018-1.438,6.347-1.892,4.358-.833,8.27-3.115,3.987-3.115,3.987.532,5.971,1.667,7.679l.166.244c-.029.1-.057.2-.088.314-.428,1.558-1.015,4.016-.607,4.61.6.888.909.737.909.737l.226,3.987s4.543,3.839,8.026,3.694,2.8-3.694,2.8-3.694l-2.967-7.694-.1-.26,3.3-6.23s.909-2.731,1.134-3.691,1.459-4.364,1.459-4.364,3.115-7.383,3.18-8.27.3-5.682.909-6.645a61.49,61.49,0,0,0,2.271-6.49l.042.036a2.188,2.188,0,0,1,.566,2.178,17.4,17.4,0,0,0-.153,4.281,29.123,29.123,0,0,1-.454,3.694c-.3,1.256-.376,11.518.153,13.953a39.5,39.5,0,0,1,.389,6.98c-.356,1.467-.667,3.289-.088,3.5.986.371,5.983.3,5.983.3s2.118-.74,5,1.846,11.733-.737,11.733-.737,2.726-.74-2.65-2.879a45.715,45.715,0,0,1-7.756-3.551c.036-.07.075-.14.109-.215,0,0-2.2-2.077-.379-5.758a16.034,16.034,0,0,0,1.742-6.793l.3-12.406-.909-16.468-.7-17.283.125-.042c.119,3.177.74,10.742,3.987,9.275,4.088-1.846.6-6.645.6-6.645L425.757,297l.548-.187-2.053-6.635a14.964,14.964,0,0,1-.078-3.912,15.5,15.5,0,0,0-.047-2.284,40.957,40.957,0,0,1,5.727-.854c.545.132,3.6.158,4.795.164-.392.306-.706.61-.706.61l4.883,3.286s1.656-.906,2-1.866a2.154,2.154,0,0,0,.914-.488c.052,1.134.353,2.362,1.4,2.391a1.817,1.817,0,0,0,.763-.151l7.985-1.581-.685,4.281.478.849c-.241,3.611-.519,7.445-.763,10.817l-.112.737.057.013c-.379,5.192-.683,9.124-.683,9.124a4.784,4.784,0,0,1,1.991-2l.052,7.7s.4,12.182.4,13.844.055,5.371.055,5.371.854,4.54,1.363,6.035.909,8.307.909,8.307,1.194,1.882.683,2.6,1.988,2.269,1.988,2.269a9.746,9.746,0,0,0-1.705,3.6c-.013.166.151.343.446.519-.093.075-.189.151-.3.223a5.186,5.186,0,0,1-3.442.7c-4.431-.389-7.554,3.71-4.828,4.54s10.9,1,10.9,1,2.476-1.545,4.413-.849c-.029,1.625.052,3.115.065,3.312l-.023.018a18.008,18.008,0,0,1-5.54,3.554c-3.115,1.051-3.806,5.316.226,5.869s9.937-.665,9.937-.665a18.316,18.316,0,0,1,5.394-2.767c2.329-.5,4.317-1.607,3.92-2.936-.26-.849-.927-3.074-1.378-4.569q-.039-.135-.078-.26c.07-.156.14-.317.205-.483,0,0-1.192-6.2-.226-7.751s.454-17.057.454-17.057-1.648-3.93-.794-6.311-1.363-5.76-1.363-5.76a105.227,105.227,0,0,1,.89-10.547l.086-.467a21.268,21.268,0,0,0,3.167-1.223s.569-8.53.909-10.467c.034-.182.081-.475.138-.857l.26-1.368h0l.306-1.557h0l1.038-5.309,1.874-2.425,4.828-4.932S488.566,287.6,488,282.672Zm-74.46-30.457-.036.026a.451.451,0,0,1-.013-.057A.234.234,0,0,0,413.538,252.215Zm47.7,6.046-.187.408.683-.68-.927,1.038.311-.654Zm-4.61,9.527c-.179.475-.371.989-.571,1.524l.366-1.093Z" transform="translate(-301.082 -176.662)" fill="url(#linear-gradient)"/>
    <path id="Path_1273" data-name="Path 1273" d="M595.65,441.923s-.636,4.234,1.272,4.288,3.182-3.266,3.182-3.266l-.779-2.656Z" transform="translate(-454.998 -335.266)" fill="#585b8a"/>
    <path id="Path_1274" data-name="Path 1274" d="M595.65,441.923s-.636,4.234,1.272,4.288,3.182-3.266,3.182-3.266l-.779-2.656Z" transform="translate(-454.998 -335.266)" opacity="0.2"/>
    <path id="Path_1275" data-name="Path 1275" d="M405.457,758.786c-3.4.148-7.824-3.689-7.824-3.689l-.221-3.985s-.293.148-.885-.737c-.4-.594.174-3.058.592-4.608.2-.758.369-1.3.369-1.3l7.45,1.994.356.942,2.892,7.689S408.85,758.638,405.457,758.786Z" transform="translate(-307.541 -560.485)" fill="#636992"/>
    <path id="Path_1276" data-name="Path 1276" d="M499.189,731.975s-8.631,3.32-11.422.737-4.87-1.846-4.87-1.846-4.87.075-5.83-.3c-.566-.215-.26-2.061.093-3.53.239-1.015.5-1.853.5-1.853s8.483-2.879,9.812-1.109a6.362,6.362,0,0,0,1.415,1.35c1.537,1.111,3.938,2.118,7.736,3.668C501.844,731.235,499.189,731.975,499.189,731.975Z" transform="translate(-367.041 -544.961)" fill="#636992"/>
    <path id="Path_1277" data-name="Path 1277" d="M527.239,496.35l2.36,4.722s3.4,4.8-.589,6.64S525.1,497.09,525.1,497.09Z" transform="translate(-402.837 -376.774)" fill="#ffd6d6"/>
    <path id="Path_1278" data-name="Path 1278" d="M495.25,338.61s2.583,1.181,4.133,6.124S503,358.089,503,358.089s1.4,9.516,1.178,11.879a15.316,15.316,0,0,0,.075,3.909l1.991,6.64-3.985,1.4-6.124-23.462Z" transform="translate(-380.736 -259.981)" fill="#dce6f2"/>
    <path id="Path_1279" data-name="Path 1279" d="M495.25,338.61s2.583,1.181,4.133,6.124S503,358.089,503,358.089s1.4,9.516,1.178,11.879a15.316,15.316,0,0,0,.075,3.909l1.991,6.64-3.985,1.4-6.124-23.462Z" transform="translate(-380.736 -259.981)" opacity="0.05"/>
    <path id="Path_1280" data-name="Path 1280" d="M406.987,746.481l.356.942-.436.833c-1.7.737-5.9.148-5.9.148s-.779-.989-1.843-2.617c.2-.758.369-1.3.369-1.3Z" transform="translate(-309.589 -560.5)" opacity="0.1"/>
    <path id="Path_1281" data-name="Path 1281" d="M490.249,725.776c-2.152,4.875-9.467,3.066-11.5,2.456-.335-.1-.519-.169-.519-.169s.013-.4.018-1.023c.239-1.015.5-1.854.5-1.854s8.483-2.879,9.812-1.108a6.366,6.366,0,0,0,1.415,1.35A2.5,2.5,0,0,0,490.249,725.776Z" transform="translate(-368.134 -544.961)" opacity="0.1"/>
    <path id="Path_1282" data-name="Path 1282" d="M426.491,525.083c-1.77,3.686.371,5.755.371,5.755-2.152,4.872-9.467,3.066-11.5,2.453-.335-.1-.519-.166-.519-.166a44.945,44.945,0,0,0-.369-7.528c-.517-2.435-.444-12.689-.148-13.942a29.681,29.681,0,0,0,.441-3.691,17.985,17.985,0,0,1,.148-4.278,2.209,2.209,0,0,0-.55-2.175l-.039-.039a61.429,61.429,0,0,1-2.214,6.49c-.592.955-.81,5.755-.885,6.64s-3.1,8.265-3.1,8.265-1.179,3.393-1.4,4.351-1.108,3.691-1.108,3.691l-3.556,6.864c-1.7.737-5.9.148-5.9.148s-.81-1.038-1.918-2.731-1.622-7.671-1.622-7.671,4.057-.075,3.024-3.985.885-6.936.812-8.265a19.643,19.643,0,0,1,1.4-6.344c.517-.665.441-3.468.293-5.018s-.073-7.009-.073-7.009a9.371,9.371,0,0,1,.885-3.541c.737-1.106.444-4.281.444-4.281s1.4-.737.441-7.894,1.558-16.453,1.558-16.453l.086-1.3.135-2.1s21.1-1.329,22.8.293a5.6,5.6,0,0,1,1.077,1.545,15.368,15.368,0,0,1,1.22,3.928l.885,22.356.885,16.453-.3,12.4A16.478,16.478,0,0,1,426.491,525.083Z" transform="translate(-304.747 -350.464)" fill="#565988"/>
    <path id="Path_1283" data-name="Path 1283" d="M481.488,538.42l-2.214,47.956-2.658,4.371c-.335-.1-.519-.166-.519-.166a44.941,44.941,0,0,0-.369-7.528c-.517-2.435-.444-12.689-.148-13.942a29.689,29.689,0,0,0,.441-3.691,17.989,17.989,0,0,1,.148-4.278,2.209,2.209,0,0,0-.55-2.175l.036-.26Z" transform="translate(-366.001 -407.923)" opacity="0.1"/>
    <path id="Path_1284" data-name="Path 1284" d="M406.725,731.958s5.755-2.287,6.64-1.557-6.786,1.843-6.786,1.843Z" transform="translate(-315.083 -549.961)" opacity="0.1"/>
    <path id="Path_1285" data-name="Path 1285" d="M501.325,713.5c-.221.075-5.828,2.077-5.311,4.205S501.325,713.5,501.325,713.5Z" transform="translate(-381.277 -537.554)" opacity="0.1"/>
    <path id="Path_1286" data-name="Path 1286" d="M449.07,285.246s1.879,4.538.885,6.863,10.734,6.308,10.734,6.308-3.429-8.855-.109-13.836S449.07,285.246,449.07,285.246Z" transform="translate(-346.543 -218.457)" fill="#ffd6d6"/>
    <path id="Path_1287" data-name="Path 1287" d="M663.212,773.447a17.712,17.712,0,0,0-5.257,2.767s-5.755,1.217-9.685.665-3.263-4.815-.221-5.867a17.663,17.663,0,0,0,5.4-3.549c.5-.459.794-.779.794-.779l11.014-2.214s.179.615.428,1.464c.441,1.5,1.093,3.72,1.342,4.566C667.417,771.842,665.481,772.948,663.212,773.447Z" transform="translate(-492.014 -575.293)" fill="#505484"/>
    <path id="Path_1288" data-name="Path 1288" d="M637.4,742.364s-4.649.5-6.586-.607-4.7.664-4.7.664-7.969-.166-10.625-1,.387-4.932,4.7-4.538a4.959,4.959,0,0,0,3.357-.7A3.536,3.536,0,0,0,625.008,734l9.345.553,1.3,3.312Z" transform="translate(-469.024 -552.733)" fill="#505484"/>
    <path id="Path_1289" data-name="Path 1289" d="M661.617,739.376s-10.861-1.776-12.247-3.185A3.536,3.536,0,0,0,650.832,734l9.345.553,1.3,3.312Z" transform="translate(-494.848 -552.733)" opacity="0.1"/>
    <path id="Path_1290" data-name="Path 1290" d="M634.52,513.279l.112,16.211s.387,12.175.387,13.836.055,5.366.055,5.366.831,4.538,1.329,6.033.885,8.307.885,8.307,1.163,1.882.664,2.6,1.937,2.269,1.937,2.269a9.7,9.7,0,0,0-1.659,3.6c-.1,1.438,12.393,3.481,12.393,3.481l-4.867-49.911-3.876-12.5Z" transform="translate(-483.853 -388.776)" fill="#575988"/>
    <path id="Path_1291" data-name="Path 1291" d="M634.52,513.279l.112,16.211s.387,12.175.387,13.836.055,5.366.055,5.366.831,4.538,1.329,6.033.885,8.307.885,8.307,1.163,1.882.664,2.6,1.937,2.269,1.937,2.269a9.7,9.7,0,0,0-1.659,3.6c-.1,1.438,12.393,3.481,12.393,3.481l-4.867-49.911-3.876-12.5Z" transform="translate(-483.853 -388.776)" opacity="0.1"/>
    <path id="Path_1292" data-name="Path 1292" d="M688.247,765.947c-3.616,8.621-12.216,1.968-12.216,1.968s0-.166-.021-.452c.5-.459.794-.779.794-.779l11.014-2.214S688,765.1,688.247,765.947Z" transform="translate(-514.573 -575.293)" opacity="0.1"/>
    <path id="Path_1293" data-name="Path 1293" d="M664.108,573.5c-3.543,9.086-12.341,2.269-12.341,2.269a31.792,31.792,0,0,1,.278-6.861c.555-2.157-.61-8.634-.61-8.634s-.665-5.755-1.272-7.081a12.62,12.62,0,0,1-.553-4.205,8.03,8.03,0,0,0-.278-3.211,21.615,21.615,0,0,1-.779-4.205,44.378,44.378,0,0,0-.5-6.695l-1.716-8.566-3.1-17.543.968-.166,17.348-3.042s3.266,16.614,2.157,18.316a7.146,7.146,0,0,0-.623,2.245c-.633,3.769-.87,10.537-.87,10.537s2.157,3.375,1.329,5.755.779,6.308.779,6.308.5,15.495-.444,17.044S664.108,573.5,664.108,573.5Z" transform="translate(-490.309 -383.593)" fill="#575988"/>
    <path id="Path_1294" data-name="Path 1294" d="M680.372,299.433S664.657,310.5,668.2,304.965c1.908-2.98,1.557-6.775.81-9.641a22.758,22.758,0,0,0-1.558-4.229s13.353-5.68,11.583-.589a9.535,9.535,0,0,0-.519,3.7A9.865,9.865,0,0,0,680.372,299.433Z" transform="translate(-508.235 -222.795)" fill="#d28690"/>
    <path id="Path_1295" data-name="Path 1295" d="M585.041,426.107s-6.64-1.918-7.746-.036.332,6.012,2.336,6.677,6.6-2.251,6.6-2.251Z" transform="translate(-441.198 -324.126)" fill="#d28690"/>
    <path id="Path_1296" data-name="Path 1296" d="M610.359,416l-2.767,2.547s-4.815.441-6.2.109c0,0,1.275,8.522-.553,9.574l11.178-2.269Z" transform="translate(-458.916 -317.282)" fill="#585b8a"/>
    <path id="Path_1297" data-name="Path 1297" d="M610.359,416l-2.767,2.547s-4.815.441-6.2.109c0,0,1.275,8.522-.553,9.574l11.178-2.269Z" transform="translate(-458.916 -317.282)" opacity="0.1"/>
    <path id="Path_1298" data-name="Path 1298" d="M453.245,250.461a8.307,8.307,0,0,1-8.307,8.307c-4.262-2.048-8.307-3.715-8.307-8.307a8.307,8.307,0,1,1,16.6,0Z" transform="translate(-337.329 -188.321)" opacity="0.1"/>
    <path id="Path_1299" data-name="Path 1299" d="M453.349,250.595a8.291,8.291,0,1,1-1.879-5.251A8.291,8.291,0,0,1,453.349,250.595Z" transform="translate(-337.433 -188.678)" fill="#ffd6d6"/>
    <path id="Path_1300" data-name="Path 1300" d="M450.827,463.2a18.782,18.782,0,0,1-2.573,1.334s-4.205-.61-4.813.109-5.971,1-5.971,1-8.19-.387-9.407-1.438a4.984,4.984,0,0,0-1.243-.737l.135-2.1s21.1-1.329,22.8.293a5.594,5.594,0,0,1,1.072,1.545Z" transform="translate(-330.069 -350.486)" opacity="0.1"/>
    <path id="Path_1301" data-name="Path 1301" d="M438.358,348.7c-.166.94-3.6,2.378-3.6,2.378s-4.205-.607-4.813.112-5.97,1-5.97,1-8.19-.389-9.407-1.441a10.562,10.562,0,0,0-3.93-1.557s-1.384-9.849-.828-12.006-.831-8.081-1.163-10.184.94-7.912,2.489-8.852,3.764-4.1,5.091-5.036c1.119-.792,2.354-1.817,2.715-2.126l.106-.088a5.239,5.239,0,0,1,1.108-2.6c.885-.88,9.018,5.589,9.018,5.589s.057.5.61-.441c.125-.21,1.2,1.337,1.384,1.991,0,0,4.426,7.749,4.7,9.345s1.438,6.806,1.659,8.078c.057.327.151,1.474.26,3.011.021.3.039.62.062.953.164,2.549.34,5.8.446,8.265,0,.28.023.55.031.81A27.557,27.557,0,0,1,438.358,348.7Z" transform="translate(-316.575 -237.482)" fill="#dce6f2"/>
    <path id="Path_1302" data-name="Path 1302" d="M415,387.21s3.042,3.707,4.039,3.707S415,387.21,415,387.21Z" transform="translate(-321.318 -295.965)" opacity="0.1"/>
    <path id="Path_1303" data-name="Path 1303" d="M427.2,417.91s-4.981,5.423-4.317,6.42S427.2,417.91,427.2,417.91Z" transform="translate(-327.111 -318.696)" opacity="0.1"/>
    <path id="Path_1304" data-name="Path 1304" d="M425.62,435.491s5.711-6.253,5.97-8.411Z" transform="translate(-329.181 -325.485)" opacity="0.1"/>
    <path id="Path_1305" data-name="Path 1305" d="M453.33,441.839s6.586-3.486,7.139-6.253S453.33,441.839,453.33,441.839Z" transform="translate(-349.698 -331.392)" opacity="0.1"/>
    <path id="Path_1306" data-name="Path 1306" d="M482.914,329.522,482,331.733l1.521.719,1.5,4.179s4.122,8.245,3.956,12.533a75.975,75.975,0,0,0,.748,10.734l2.378-.441-1.121-12.613a18.2,18.2,0,0,0-1.448-5.662c-1.9-4.351-5.436-12.382-5.659-12.382-.3,0-.091.112-.091.112Z" transform="translate(-370.925 -252.718)" opacity="0.1"/>
    <path id="Path_1307" data-name="Path 1307" d="M483.764,328.669l-.914,2.214,1.524.719,1.493,4.179s4.122,8.245,3.956,12.533a75.971,75.971,0,0,0,.748,10.734l2.38-.441-1.124-12.613a18.124,18.124,0,0,0-1.446-5.662c-1.9-4.353-5.436-12.382-5.656-12.382-.306,0-.093.112-.093.112Z" transform="translate(-371.555 -252.088)" fill="#ff9981"/>
    <path id="Path_1308" data-name="Path 1308" d="M574.476,434.026c-1.158-.088-3.935-1.493-5.039-2.077l-.467-.26.057-4.286a7.527,7.527,0,0,1,.846-.428c1.474-.644,4.5-1.519,6.015,1.3C577.934,432.051,575.943,434.125,574.476,434.026Z" transform="translate(-435.319 -324.924)" fill="#ffd6d6"/>
    <path id="Path_1309" data-name="Path 1309" d="M451.342,245.264a1.228,1.228,0,0,1-.387.158c-.963.21-2.059-.618-2.884-.086a2.09,2.09,0,0,0-.688,1.6q-.177,1.558-.353,3.094a3.819,3.819,0,0,1-.228,1.067,2.677,2.677,0,0,1-2.547,1.355,1.519,1.519,0,0,1-1.1-.363c-.179-.182-.275-.436-.472-.6-1.3-1.088-1.692,1.578-1.35,2.336.55,1.238,2.505,2.432,1.685,4.005a1.5,1.5,0,0,1-.6.6,8.307,8.307,0,1,1,8.925-13.171Z" transform="translate(-337.306 -188.598)" opacity="0.1"/>
    <path id="Path_1310" data-name="Path 1310" d="M434.844,240.773c.195.164.293.418.472.6a1.521,1.521,0,0,0,1.1.363,2.663,2.663,0,0,0,2.544-1.358,3.7,3.7,0,0,0,.231-1.064l.353-3.094a2.081,2.081,0,0,1,.688-1.6c.826-.519,1.921.3,2.884.086a1.41,1.41,0,0,0,1.038-1.625,9.146,9.146,0,0,0-.685-1.36,8.892,8.892,0,0,1-.283-1.108c-.537-2.014-2.9-3.146-4.958-2.809-1.142.189-2.2.735-3.349.9-.82.119-1.659.042-2.487.13a6.276,6.276,0,0,0-2.206.652,1.282,1.282,0,0,0-.467.353,1.95,1.95,0,0,0-.234.665,8.874,8.874,0,0,1-1.817,2.679,6.383,6.383,0,0,0-1.23,3.455,2.77,2.77,0,0,0,.088.947c.055.182.14.358.182.545a3.8,3.8,0,0,1-.306,1.7,3.406,3.406,0,0,0,.182,2.165c1,2.292,4.281,3.058,4.963,5.464a5.451,5.451,0,0,0,1.931.519,1.863,1.863,0,0,0,1.7-.87c.818-1.558-1.134-2.767-1.685-4C433.149,242.346,433.536,239.683,434.844,240.773Z" transform="translate(-329.685 -177.893)" fill="#353045"/>
    <path id="Path_1311" data-name="Path 1311" d="M679.075,290.506a9.538,9.538,0,0,0-.519,3.7c-.4.34-.836-.678-1.3-.415-1.267.732-2.731,2.474-4.3,2.474a8.611,8.611,0,0,1-3.912-.937,22.749,22.749,0,0,0-1.557-4.229S680.846,285.415,679.075,290.506Z" transform="translate(-508.264 -222.795)" opacity="0.1"/>
    <path id="Path_1312" data-name="Path 1312" d="M672.528,259.134a8.634,8.634,0,1,1-8.634-8.634A8.634,8.634,0,0,1,672.528,259.134Z" transform="translate(-499.209 -194.743)" fill="#d28690"/>
    <path id="Path_1313" data-name="Path 1313" d="M659.535,324.44s-1.625,1.77-1.846,1.916-4.932,19.988-5.015,20.219-5.61,18.148-5.61,18.148l-8.854,4.353.74-21.914,6.49-18.072s2.142-2.435,2.8-3.32,8.927-6.2,8.927-6.2l1.412,2.91Z" transform="translate(-486.585 -245.884)" fill="#f0f3f7"/>
    <path id="Path_1314" data-name="Path 1314" d="M686.345,324.19l-10.181,7.289-.164-4c.665-.885,8.927-6.2,8.927-6.2Z" transform="translate(-514.565 -247.15)" opacity="0.1"/>
    <path id="Path_1315" data-name="Path 1315" d="M687.209,322.48l-10.181,7.289-.158-4c.664-.888,8.927-6.2,8.927-6.2Z" transform="translate(-515.209 -245.884)" fill="#f0f3f7"/>
    <path id="Path_1316" data-name="Path 1316" d="M639.791,336.59l.34,1.781-2.277,2.313,1.817-4.068s-3.894,2.713-5.062,3.432a7.39,7.39,0,0,0-2.38,3.819c-.044.665-1.882,10.679-1.882,10.679s-1.384,3.707-.994,4.758-2.1,34.2-2.1,34.2a4.932,4.932,0,0,1,3.328-2.552l-.888-19.588s1.08-13.031,1.134-13.2l2.518-7.72Z" transform="translate(-478.47 -258.485)" fill="#585b8a"/>
    <path id="Path_1317" data-name="Path 1317" d="M643.871,344.3l-.177,3.634s-2.464,7.775-3.292,9.047-3.349,8.855-3.349,8.855l-1.42,13.171-2.435,1.108-1.2-2.209,1.994-12.72s3.761-10.734,4.317-11.842l2.775-5.846Z" transform="translate(-481.987 -264.194)" opacity="0.1"/>
    <path id="Path_1318" data-name="Path 1318" d="M642.989,343.45l-.174,3.634s-2.464,7.775-3.294,9.047-3.346,8.855-3.346,8.855l-1.412,13.169-2.435,1.106-1.218-2.212,1.994-12.72s3.761-10.737,4.314-11.842l2.8-5.838Z" transform="translate(-481.328 -263.565)" fill="#663d5c"/>
    <path id="Path_1319" data-name="Path 1319" d="M566.31,446.867l4.758,3.294s3.356-1.882,1.4-3.1a8.667,8.667,0,0,0-4.317-1.4C567.525,445.66,566.31,446.867,566.31,446.867Z" transform="translate(-433.349 -339.242)" fill="#d28690"/>
    <path id="Path_1320" data-name="Path 1320" d="M579.015,425.6a.732.732,0,0,0-.345.626c0,1.01.114,3.684.96,2.476,1.038-1.477.849-2.8,2.435-1.846a9.343,9.343,0,0,1,2.544,2.336l-.441-3.172S580.908,424.412,579.015,425.6Z" transform="translate(-442.501 -324.066)" fill="#d28690"/>
    <path id="Path_1321" data-name="Path 1321" d="M666.1,523.836a7.147,7.147,0,0,0-.623,2.245,18.757,18.757,0,0,1-16.8-3.242,84.665,84.665,0,0,1-2.1-8.852,28.843,28.843,0,0,1,.026-5.425l17.348-3.042S667.213,522.121,666.1,523.836Z" transform="translate(-492.695 -383.563)" opacity="0.1"/>
    <path id="Path_1322" data-name="Path 1322" d="M676.023,336.423a17.2,17.2,0,0,0-.275,4.371l-3.985,18.815s-1.937,14.5-2.269,16.434-.885,10.459-.885,10.459a18.743,18.743,0,0,1-19.988-1.991,84.854,84.854,0,0,1-2.1-8.854c-.555-3.286,1.08-16.453,1.853-22.3.231-1.731.387-2.822.387-2.822l2.9-10.791s3.569-9.1,4.9-11.759,6.666-8.621,6.666-8.621c.662-.421,1.721,1.064,2.508,2.417.594,1.023,1.038,1.973,1.038,1.973s6.64,2.876,7.634,4.413.831,4.7.942,4.87A4.877,4.877,0,0,1,676.023,336.423Z" transform="translate(-492.653 -245.676)" fill="#585b8a"/>
    <path id="Path_1323" data-name="Path 1323" d="M666.632,330.358s.5,2.933-.779,3.819c-1.233.857-10.412,18.906-10.983,20.032.231-1.734.387-2.824.387-2.824l2.9-10.788s3.572-9.1,4.9-11.762,6.669-8.621,6.669-8.621c.662-.421,1.718,1.064,2.505,2.417C671.048,325.093,668.574,329.75,666.632,330.358Z" transform="translate(-498.92 -246.306)" opacity="0.1"/>
    <path id="Path_1324" data-name="Path 1324" d="M665.767,329.508s.5,2.933-.779,3.819-10.409,18.9-10.988,20.03c.231-1.731.387-2.822.387-2.822l2.9-10.791s3.569-9.1,4.9-11.759,6.666-8.621,6.666-8.621c.662-.421,1.721,1.064,2.508,2.417C670.183,324.241,667.706,328.9,665.767,329.508Z" transform="translate(-498.276 -245.676)" fill="#585b8a"/>
    <path id="Path_1325" data-name="Path 1325" d="M606.775,410.686l-3.123,16.248v0l-.3,1.555v0l-.672,3.5-2.868-.607-1.337-.283-18.5-3.92-1.36-.288-3.1-.657.607-4.034.252-1.677,2.24-14.874Z" transform="translate(-426.115 -300.348)" fill="#ff9981"/>
    <path id="Path_1326" data-name="Path 1326" d="M666.483,511.92s-7.359,2.656-5.755,5.81,11.9-2.435,11.9-2.435Z" transform="translate(-503.088 -388.302)" fill="#d28690"/>
    <path id="Path_1327" data-name="Path 1327" d="M703.8,599.1c0,.221.278,3.045,1.384,4.039S703.8,599.1,703.8,599.1Z" transform="translate(-535.149 -452.851)" opacity="0.1"/>
    <path id="Path_1328" data-name="Path 1328" d="M675.24,637.68s1.327,3.652,6.583,5.148S675.24,637.68,675.24,637.68Z" transform="translate(-514.003 -481.416)" opacity="0.1"/>
    <path id="Path_1329" data-name="Path 1329" d="M677.318,259.2a8.631,8.631,0,0,1-4.327,7.484,4.6,4.6,0,0,1-1.3-1.082,1.678,1.678,0,0,1-.444-1.625c.182-.439.662-.716.779-1.171a1.724,1.724,0,0,0-.042-.836c-.1-.428-.187-.857-.28-1.282-.08-.363-.223-.792-.584-.88s-.662.213-.945.436a2.963,2.963,0,0,1-2.855.47c-.833-.449-.6-1.952-.735-2.765a.483.483,0,0,0-.182-.366.758.758,0,0,0-.376-.026,1.084,1.084,0,0,1-.94-.833,7.17,7.17,0,0,1-.151-1.337,1.491,1.491,0,0,0-.6-1.155,1.845,1.845,0,0,0-.984-.161l-1.628.018a8.634,8.634,0,0,1,15.575,5.119Z" transform="translate(-504 -194.807)" opacity="0.1"/>
    <path id="Path_1330" data-name="Path 1330" d="M666.107,253.6c.283-.223.594-.519.945-.434s.5.519.581.877l.28,1.28a1.74,1.74,0,0,1,.044.838c-.132.457-.61.732-.794,1.171a1.677,1.677,0,0,0,.444,1.622,4.673,4.673,0,0,0,2.671,1.6,1.963,1.963,0,0,0,.833.018,2.466,2.466,0,0,0,1.371-1.243,20.137,20.137,0,0,0,3.494-8.766,5.623,5.623,0,0,0-.088-1.934,6.49,6.49,0,0,0-.592-1.415,11.423,11.423,0,0,0-1.669-2.526,9.481,9.481,0,0,0-4.486-2.515,15.191,15.191,0,0,0-5.791-.454c-.519.06-1.018.145-1.529.179a15.386,15.386,0,0,1-1.926-.031l-3.821-.228a1.484,1.484,0,0,0,.26,1.386,2.488,2.488,0,0,1,.561,1.339,2.756,2.756,0,0,1-.641,1.3,1.278,1.278,0,0,0-.205,1.358,1.452,1.452,0,0,0,1.3.426l1.926-.021a1.84,1.84,0,0,1,.979.169,1.5,1.5,0,0,1,.6,1.155,7.629,7.629,0,0,0,.151,1.337,1.08,1.08,0,0,0,.94.833.7.7,0,0,1,.376.029.478.478,0,0,1,.182.363c.135.813-.114,2.313.735,2.765A2.989,2.989,0,0,0,666.107,253.6Z" transform="translate(-499.699 -188.168)" fill="#663d5c"/>
    <path id="Path_1331" data-name="Path 1331" d="M690.791,353.4a4.231,4.231,0,0,0-4.452,2.842c-1.038,2.957-2.77,8.291-2.336,10.4.61,2.988,1.329,7.969,1.329,7.969s3.154,1.817,1.558,3.65a10.338,10.338,0,0,0-2.048,4.429,4.6,4.6,0,0,0-2.49,2.767c-.441,1.882-3.432,4.48-3.432,4.48l-4.481,4.483s7.414,7.528,8.909,7.912l4.592-5.368,5.423-7.193,4.7-4.932s1.106-2.6.553-7.528a36.026,36.026,0,0,0-2.713-9.628l.166-1.661S696.583,354.121,690.791,353.4Z" transform="translate(-513.41 -270.916)" opacity="0.1"/>
    <path id="Path_1332" data-name="Path 1332" d="M692.5,353.4a4.231,4.231,0,0,0-4.447,2.842c-1.038,2.957-2.77,8.291-2.336,10.4.607,2.988,1.326,7.969,1.326,7.969s3.154,1.817,1.557,3.65a10.317,10.317,0,0,0-2.046,4.429,4.611,4.611,0,0,0-2.492,2.767c-.444,1.882-3.429,4.48-3.429,4.48l-4.483,4.483s7.414,7.528,8.909,7.912l4.592-5.368,5.41-7.193,4.7-4.932s1.108-2.6.553-7.528a36.187,36.187,0,0,0-2.71-9.628l.166-1.661S698.29,354.123,692.5,353.4Z" transform="translate(-514.676 -270.917)" fill="#585b8a"/>
    <path id="Path_1333" data-name="Path 1333" d="M721.28,418.34s4.7,5.752,6.7,4.48S721.28,418.34,721.28,418.34Z" transform="translate(-548.091 -319.014)" opacity="0.1"/>
    <path id="Path_1334" data-name="Path 1334" d="M728.1,401.28c.5.166,4.595,5.867,6.7,5.192S728.1,401.28,728.1,401.28Z" transform="translate(-553.141 -306.383)" opacity="0.1"/>
    <path id="Path_1335" data-name="Path 1335" d="M732.58,439a3.081,3.081,0,0,0,3.652,2.822C739.607,441.378,732.58,439,732.58,439Z" transform="translate(-556.458 -334.311)" opacity="0.1"/>
    <path id="Path_1336" data-name="Path 1336" d="M615.815,301.83,613.99,305.9l2.279-2.313Z" transform="translate(-454.606 -223.479)" opacity="0.1"/>
    <path id="Path_1337" data-name="Path 1337" d="M615.815,300.98l-1.825,4.068,2.279-2.313Z" transform="translate(-454.606 -222.849)" fill="#f0f3f7"/>
    <path id="Path_1338" data-name="Path 1338" d="M581.707,469.606l-1.36-.288-2.5-4.691.252-1.677Z" transform="translate(-427.848 -342.774)" opacity="0.3"/>
    <path id="Path_1339" data-name="Path 1339" d="M669.156,487.65l-.3,1.555v0l-3.541,2.889-1.337-.283Z" transform="translate(-491.619 -361.062)" opacity="0.3"/>
    <path id="Path_1340" data-name="Path 1340" d="M446.934,372.5c-.685.114-1.35.218-1.957.3-3.375.444-11.4-3.541-11.4-3.541s-9.794-8.19-12.616-15.936,3.375-8.909,3.375-8.909c2.336-1.329,7.416,2.378,8.135,2.988a4.62,4.62,0,0,1,1.272,3.154c-.057,1,1.661,2.269,1.661,2.269s2.933,5.091,3.652,5.643a2.888,2.888,0,0,1,1.106,1.994c.221.942,2.157,1.716,2.988,1.659s1.817.278,1.817.719c0,.356.813.532,1.48.589C446.643,366.257,446.838,369.975,446.934,372.5Z" transform="translate(-325.185 -264.061)" opacity="0.1"/>
    <path id="Path_1341" data-name="Path 1341" d="M448.169,369.161c-.519.083-1.018.158-1.485.221-3.375.444-11.4-3.541-11.4-3.541s-9.794-8.19-12.616-15.936S426.044,341,426.044,341c2.336-1.329,7.414,2.378,8.133,2.988a4.635,4.635,0,0,1,1.275,3.154c-.055,1,1.659,2.269,1.659,2.269s2.933,5.091,3.652,5.643a2.9,2.9,0,0,1,1.108,1.994c.223.942,2.157,1.713,2.988,1.659s1.817.278,1.817.719c0,.26.462.434.976.519.021.3.039.62.062.953C447.886,363.444,448.062,366.7,448.169,369.161Z" transform="translate(-326.451 -261.536)" opacity="0.1"/>
    <path id="Path_1342" data-name="Path 1342" d="M569.873,428.84l-.21,4.974h-.226l-.467-.26.057-4.286A7.512,7.512,0,0,1,569.873,428.84Z" transform="translate(-435.319 -326.789)" opacity="0.1"/>
    <path id="Path_1343" data-name="Path 1343" d="M424.334,342.7s-6.2,1.163-3.375,8.909,12.616,15.939,12.616,15.939,8.024,3.982,11.4,3.541,8.52-1.6,9.184-1.438,5.148.166,5.148.166l.221-5.192-5.192-.278-2.656-.553s-.942-.779-1.5-.665-1.713-.665-1.713-.665a3.308,3.308,0,0,0-1.557-.719c-.67,0-1.937-.166-1.937-.607s-1-.779-1.817-.719-2.78-.719-3.009-1.672a2.889,2.889,0,0,0-1.106-1.991c-.719-.553-3.652-5.646-3.652-5.646s-1.716-1.272-1.661-2.266a4.644,4.644,0,0,0-1.272-3.157C431.743,345.076,426.655,341.371,424.334,342.7Z" transform="translate(-325.185 -262.797)" fill="#dce6f2"/>
    <path id="Path_1344" data-name="Path 1344" d="M492.12,412.15s-2.38,2.38-1.773,2.822Z" transform="translate(-377.032 -314.431)" opacity="0.1"/>
    <path id="Path_1345" data-name="Path 1345" d="M500.385,419.4s-3.1,2.38-2.269,2.547S500.385,419.4,500.385,419.4Z" transform="translate(-382.753 -319.799)" opacity="0.1"/>
    <path id="Path_1346" data-name="Path 1346" d="M487,433c.444.223,7.027,4.153,9.519,4.1Z" transform="translate(-374.627 -329.869)" opacity="0.1"/>
    <path id="Path_1347" data-name="Path 1347" d="M459.533,315.629s-1.163,3.819-1.607,3.819c-.348,0-6.189-4.73-8.626-6.718l.106-.088a5.225,5.225,0,0,1,1.106-2.6C451.4,309.165,459.533,315.629,459.533,315.629Z" transform="translate(-346.714 -238.77)" opacity="0.1"/>
    <path id="Path_1348" data-name="Path 1348" d="M458.673,313.919s-1.16,3.819-1.6,3.819c-.35,0-6.191-4.73-8.629-6.718l.106-.088a5.239,5.239,0,0,1,1.108-2.6C450.54,307.455,458.673,313.919,458.673,313.919Z" transform="translate(-346.077 -237.504)" fill="#dce6f2"/>
    <g id="Group_888" data-name="Group 888" transform="translate(96.925 51.263)" opacity="0.15">
      <path id="Path_1349" data-name="Path 1349" d="M427.49,282.54h0c.779,1.778,2.923,2.64,4.166,4.057C430.917,284.856,428.754,284,427.49,282.54Z" transform="translate(-427.49 -269.729)"/>
      <path id="Path_1350" data-name="Path 1350" d="M448.331,294.04a1.866,1.866,0,0,1-1.7.87,4.969,4.969,0,0,1-1.708-.436,3.321,3.321,0,0,1,.441.94,5.425,5.425,0,0,0,1.931.519,1.847,1.847,0,0,0,1.7-.87c.5-.948-.021-1.757-.626-2.523A1.648,1.648,0,0,1,448.331,294.04Z" transform="translate(-440.395 -277.134)"/>
      <path id="Path_1351" data-name="Path 1351" d="M462.56,237.086a8.9,8.9,0,0,0-.685-1.36,8.492,8.492,0,0,1-.283-1.111,3.443,3.443,0,0,0-.8-1.425,3.315,3.315,0,0,1,.132.392,8.926,8.926,0,0,0,.291,1.116,8.9,8.9,0,0,1,.685,1.36,1.41,1.41,0,0,1-1.038,1.625c-.96.21-2.056-.62-2.881-.086a2.074,2.074,0,0,0-.69,1.6q-.174,1.558-.353,3.1a3.713,3.713,0,0,1-.228,1.064,2.674,2.674,0,0,1-2.547,1.358,1.529,1.529,0,0,1-1.1-.363,7.24,7.24,0,0,0-.475-.6c-1.3-1.09-1.693,1.576-1.35,2.336a4.7,4.7,0,0,0,.633.953c-.286-.857.114-3.323,1.381-2.266a6.7,6.7,0,0,1,.472.6,1.539,1.539,0,0,0,1.1.363,2.674,2.674,0,0,0,2.547-1.358,3.713,3.713,0,0,0,.228-1.067q.177-1.558.353-3.094a2.08,2.08,0,0,1,.688-1.6c.828-.535,1.924.3,2.884.083a1.407,1.407,0,0,0,1.031-1.617Z" transform="translate(-444.992 -233.19)"/>
    </g>
    <path id="Path_1352" data-name="Path 1352" d="M671.491,259.8a2.007,2.007,0,0,1-.833-.021,4.673,4.673,0,0,1-2.669-1.594,1.671,1.671,0,0,1-.444-1.625c.182-.439.659-.714.779-1.171a1.74,1.74,0,0,0-.044-.838l-.28-1.28c-.08-.363-.221-.792-.581-.877s-.662.21-.945.434a2.957,2.957,0,0,1-2.855.47c-.831-.452-.6-1.952-.735-2.765a.486.486,0,0,0-.182-.363.74.74,0,0,0-.379-.029,1.087,1.087,0,0,1-.94-.833,7.371,7.371,0,0,1-.148-1.337,1.5,1.5,0,0,0-.6-1.155,1.866,1.866,0,0,0-.979-.169l-1.926.021c-.475,0-1.038-.031-1.3-.426a1.293,1.293,0,0,1,.205-1.358,2.688,2.688,0,0,0,.641-1.3,2.442,2.442,0,0,0-.561-1.339,2.4,2.4,0,0,1-.327-.742l-.553-.034a1.494,1.494,0,0,0,.26,1.386,2.477,2.477,0,0,1,.561,1.337,2.756,2.756,0,0,1-.641,1.3,1.271,1.271,0,0,0-.2,1.358,1.451,1.451,0,0,0,1.3.428l1.926-.023a1.864,1.864,0,0,1,.979.171,1.49,1.49,0,0,1,.6,1.155,7.169,7.169,0,0,0,.151,1.337,1.075,1.075,0,0,0,.94.831.76.76,0,0,1,.376.029.488.488,0,0,1,.182.366c.135.81-.114,2.313.735,2.765a2.945,2.945,0,0,0,2.855-.47c.283-.223.6-.519.947-.436s.5.519.579.877l.283,1.282a1.737,1.737,0,0,1,.042.838c-.13.454-.61.732-.792,1.168a1.676,1.676,0,0,0,.444,1.625,4.673,4.673,0,0,0,2.687,1.594,2.007,2.007,0,0,0,.833.021,1.957,1.957,0,0,0,1.08-.82A1.444,1.444,0,0,1,671.491,259.8Z" transform="translate(-499.525 -188.057)" opacity="0.1"/>
    <path id="Path_1384" data-name="Path 1384" d="M1104.848,611.851Z" transform="translate(-830.418 -460.922)" fill="#6c63ff"/>
  </g>
</svg>
