<svg xmlns="http://www.w3.org/2000/svg" xmlns:xlink="http://www.w3.org/1999/xlink" width="229.025" height="173.603" viewBox="0 0 229.025 173.603">
  <defs>
    <linearGradient id="linear-gradient" x1="2.581" y1="1" x2="2.581" gradientUnits="objectBoundingBox">
      <stop offset="0" stop-color="gray" stop-opacity="0.251"/>
      <stop offset="0.54" stop-color="gray" stop-opacity="0.122"/>
      <stop offset="1" stop-color="gray" stop-opacity="0.102"/>
    </linearGradient>
    <linearGradient id="linear-gradient-2" x1="0.5" y1="1" x2="0.5" y2="0" xlink:href="#linear-gradient"/>
  </defs>
  <g id="search-illustration" transform="translate(0 0.006)">
    <path id="Path_1053" data-name="Path 1053" d="M258.536,118.1c-8.052,11.049-5.395,26.819-.74,39.384,1.559,4.206,3.33,8.655,2.521,13.231-.987,5.594-5.627,9.786-10.45,12.069a27.692,27.692,0,0,1-27.043-1.746c-6.787-4.525-11.565-12.044-18.484-16.353-11.579-7.209-26.612-3.988-39.5,1.516-9.117,3.893-19.1,8.908-27.99,5.312-6.252-2.53-10.462-8.969-12.677-15.853-1.069-3.324-1.818-6.931-3.949-9.533a14.577,14.577,0,0,0-4.663-3.525c-15.711-8.227-35.92-3.085-51.152-12.264-10.283-6.2-16.684-18.228-19.343-30.875s-2-26-.942-39.118c.753-9.325,1.944-19.29,7.55-26.618C57.605,25.976,67.543,22.9,76.43,24.11s16.855,6.15,23.825,12.042c8.718,7.351,16.739,16.579,27.582,19.37,7.386,1.9,15.232.555,22.91-.039,12.834-.991,25.622.15,38.333,1.44,12.167,1.234,24.419,2.612,35.943,6.658,8.155,2.863,14.619,8.274,22.3,11.972,5,2.41,10.51,2.97,15.22,6.084,5.812,3.836,11.065,10.631,9.36,18.786C270.288,108.174,262.814,112.234,258.536,118.1Z" transform="translate(-43.2 -23.86)" fill="#6c63ff" opacity="0.1"/>
    <g id="Group_873" data-name="Group 873" transform="translate(162.432 73.585)" opacity="0.98">
      <path id="Path_1054" data-name="Path 1054" d="M898.19,502.265s.679-20.106,11.557-31.467a30.477,30.477,0,0,0,8.358-17.375,51.27,51.27,0,0,0,.255-9.372" transform="translate(-884.776 -431.219)" fill="none" stroke="#535461" stroke-miterlimit="10" stroke-width="2"/>
      <path id="Path_1055" data-name="Path 1055" d="M997.324,387.3c-.745,2.246-6.968,7.4-6.968,7.4s-1.907-7.859-1.162-10.1a4.283,4.283,0,1,1,8.13,2.7Z" transform="translate(-956.926 -381.666)" fill="#8674de"/>
      <path id="Path_1056" data-name="Path 1056" d="M1003.872,450.5c-1.851,1.481-9.872,2.431-9.872,2.431s2.674-7.632,4.525-9.111a4.282,4.282,0,1,1,5.347,6.68Z" transform="translate(-960.881 -430.198)" fill="#8674de"/>
      <path id="Path_1057" data-name="Path 1057" d="M968.661,550.325c-2.341.346-9.751-2.879-9.751-2.879s6.158-5.24,8.5-5.586a4.283,4.283,0,0,1,1.253,8.474Z" transform="translate(-933.008 -508.876)" fill="#8674de"/>
      <path id="Path_1058" data-name="Path 1058" d="M922.788,622.677c-2.248.736-10.1-1.2-10.1-1.2s5.185-6.205,7.433-6.941a4.283,4.283,0,1,1,2.674,8.138Z" transform="translate(-896.294 -566.473)" fill="#8674de"/>
      <path id="Path_1059" data-name="Path 1059" d="M949.951,456.347c1.092,2.1,8.064,6.205,8.064,6.205s.633-8.06-.459-10.16a4.282,4.282,0,1,0-7.6,3.953Z" transform="translate(-925.514 -436.013)" fill="#8674de"/>
      <path id="Path_1060" data-name="Path 1060" d="M895.958,536.861c1.67,1.676,9.543,3.511,9.543,3.511s-1.808-7.881-3.476-9.557a4.282,4.282,0,0,0-6.067,6.045Z" transform="translate(-882.011 -499.138)" fill="#8674de"/>
      <path id="Path_1061" data-name="Path 1061" d="M859.162,627.562c1.362,1.933,8.813,5.074,8.813,5.074s-.448-8.073-1.812-10.008a4.282,4.282,0,1,0-6.993,4.936Z" transform="translate(-853.093 -571.537)" fill="#8674de"/>
      <path id="Path_1062" data-name="Path 1062" d="M871.412,563.678s-6.17-8.975-5.088-17.42A16.5,16.5,0,0,0,864.374,536a27.757,27.757,0,0,0-2.9-4.163" transform="translate(-855.608 -500.954)" fill="none" stroke="#535461" stroke-miterlimit="10" stroke-width="2"/>
      <path id="Path_1063" data-name="Path 1063" d="M847.172,499.772c.4,1.218-.652,5.467-.652,5.467s-3.359-2.809-3.755-4.025a2.318,2.318,0,1,1,4.407-1.44Z" transform="translate(-840.659 -474.212)" fill="#6c63ff"/>
      <path id="Path_1064" data-name="Path 1064" d="M875.549,521.68c-.327,1.234-3.519,4.235-3.519,4.235s-1.292-4.183-.965-5.421a2.319,2.319,0,1,1,4.484,1.187Z" transform="translate(-863.188 -490.569)" fill="#6c63ff"/>
      <path id="Path_1065" data-name="Path 1065" d="M890.625,573.893c-.907.9-5.175,1.88-5.175,1.88s1-4.263,1.9-5.166a2.32,2.32,0,1,1,3.27,3.291Z" transform="translate(-874.656 -531.211)" fill="#6c63ff"/>
      <path id="Path_1066" data-name="Path 1066" d="M895.792,620.6c-.742,1.043-4.792,2.723-4.792,2.723s.261-4.37,1-5.413a2.319,2.319,0,1,1,3.78,2.686Z" transform="translate(-879.065 -568.548)" fill="#6c63ff"/>
      <path id="Path_1067" data-name="Path 1067" d="M848.818,545c1.15.564,5.5.111,5.5.111s-2.318-3.714-3.468-4.276A2.318,2.318,0,0,0,848.818,545Z" transform="translate(-844.525 -507.914)" fill="#6c63ff"/>
      <path id="Path_1068" data-name="Path 1068" d="M851.22,597.473c1.267.193,5.286-1.54,5.286-1.54s-3.324-2.851-4.589-3.036a2.319,2.319,0,0,0-.7,4.584Z" transform="translate(-845.902 -549.432)" fill="#6c63ff"/>
      <path id="Path_1069" data-name="Path 1069" d="M864.635,648.894c1.216.411,5.471-.617,5.471-.617s-2.793-3.371-4.008-3.776a2.319,2.319,0,0,0-1.462,4.4Z" transform="translate(-856.861 -590.349)" fill="#6c63ff"/>
      <path id="Path_1070" data-name="Path 1070" d="M847.172,499.772c.4,1.218-.652,5.467-.652,5.467s-3.359-2.809-3.755-4.025a2.318,2.318,0,1,1,4.407-1.44Z" transform="translate(-840.659 -474.212)" fill="#fff" opacity="0.5"/>
      <path id="Path_1071" data-name="Path 1071" d="M875.549,521.68c-.327,1.234-3.519,4.235-3.519,4.235s-1.292-4.183-.965-5.421a2.319,2.319,0,1,1,4.484,1.187Z" transform="translate(-863.188 -490.569)" fill="#fff" opacity="0.5"/>
      <path id="Path_1072" data-name="Path 1072" d="M890.625,573.893c-.907.9-5.175,1.88-5.175,1.88s1-4.263,1.9-5.166a2.32,2.32,0,1,1,3.27,3.291Z" transform="translate(-874.656 -531.211)" fill="#fff" opacity="0.5"/>
      <path id="Path_1073" data-name="Path 1073" d="M895.792,620.6c-.742,1.043-4.792,2.723-4.792,2.723s.261-4.37,1-5.413a2.319,2.319,0,1,1,3.78,2.686Z" transform="translate(-879.065 -568.548)" fill="#fff" opacity="0.5"/>
      <path id="Path_1074" data-name="Path 1074" d="M848.818,545c1.15.564,5.5.111,5.5.111s-2.318-3.714-3.468-4.276A2.318,2.318,0,0,0,848.818,545Z" transform="translate(-844.525 -507.914)" fill="#fff" opacity="0.5"/>
      <path id="Path_1075" data-name="Path 1075" d="M851.22,597.473c1.267.193,5.286-1.54,5.286-1.54s-3.324-2.851-4.589-3.036a2.319,2.319,0,0,0-.7,4.584Z" transform="translate(-845.902 -549.432)" fill="#fff" opacity="0.5"/>
      <path id="Path_1076" data-name="Path 1076" d="M864.635,648.894c1.216.411,5.471-.617,5.471-.617s-2.793-3.371-4.008-3.776a2.319,2.319,0,0,0-1.462,4.4Z" transform="translate(-856.861 -590.349)" fill="#fff" opacity="0.5"/>
      <path id="Path_1077" data-name="Path 1077" d="M794.157,677.744h17.55L816.1,650.98H789.77Z" transform="translate(-789.77 -590.683)" fill="#474059"/>
      <path id="Path_1078" data-name="Path 1078" d="M793.129,650.98l4.1,25.009h14.767l-.288,1.754h-17.55L789.77,650.98Z" transform="translate(-789.77 -590.683)" opacity="0.1"/>
    </g>
    <path id="Path_1104" data-name="Path 1104" d="M619.648,382h.031a5.54,5.54,0,0,0,.617,2.97c.9.823,4.615-.823,4.36-1.818-.051-.206-.138-.543-.247-.969a2.9,2.9,0,0,0,2.2-1l.646,1.991.045.142h.049c.426,4.035,1.39,12.414,2.162,13.537,1.028,1.487,2.211,7.931,2.211,7.931l2.211,13.218s.852,7.61,1.362,8.432a.956.956,0,0,0,.559.29,8.1,8.1,0,0,1-1.234,2.517c-1.028,1.156-2.382,3.47-3.573,3.305s-1.53,2.314.681,2.643a18.274,18.274,0,0,0,4.675-.274,1.673,1.673,0,0,0,1.619,1.6c2.211.331,6.8-.66,6.8-.66s3.908-1.645,4.083-2.809a36.777,36.777,0,0,0-.808-6c.617-.989-.041-9.527-.041-9.527l-1.191-16.357s.681-9.086,0-10.74c-.426-1.028-.584-5.759-.644-9.142l.823.053a1.522,1.522,0,0,0,.128-.179l.206.014a2.732,2.732,0,0,0,.171-2.974c-.631-1.351-.512-7.451-.411-10.489h0l.121-1.44a.411.411,0,0,0,.1-.156,15.086,15.086,0,0,0,4.593-1.39,4.661,4.661,0,0,0,1.205-.732c.851-.823.339-5.783-1.362-13.218s-3.231-6.775-3.231-6.775-4.083-.331-5.954-2.809-3.128-2.445-3.128-2.445h0c-.047-.325-.08-.631-.1-.917,0-.107-.016-.206-.023-.313a5.438,5.438,0,0,0,1.415-2.145,10.636,10.636,0,0,0,1.22-.533,1.45,1.45,0,0,0,.253-.234,2.08,2.08,0,0,0,.656-1.294,5.291,5.291,0,0,0-.076-1.623,3.933,3.933,0,0,0-2.6-3.562q-2.7-1.417-5.411-2.805a2.987,2.987,0,0,0-1.158-.411,3.086,3.086,0,0,0-1.958.926,8.363,8.363,0,0,0-.668.586,3.753,3.753,0,0,0-.492.529,5.07,5.07,0,0,0-.673,3.782.518.518,0,0,0,.549.463,5.3,5.3,0,0,0-.566,2.386,5.409,5.409,0,0,0,2.511,4.543c0,.115,0,.228.01.337a12.05,12.05,0,0,1-.041,1.265s-4.525,2.445-5.033,3.6a5.38,5.38,0,0,1-2.382,1.983s-3.573,1.818-3.573,8.262l-1.872,9.086L619.14,380s.234-.206.617-.5c-.012.115-.023.234-.033.356a19.579,19.579,0,0,0-.051,1.993Zm22.85,44.9c-.07.265-.173.617-.3,1.028-.058-.341-.115-.679-.173-1C642.171,426.919,642.329,426.911,642.5,426.9Z" transform="translate(-500.687 -262.988)" fill="url(#linear-gradient)"/>
    <path id="Path_1105" data-name="Path 1105" d="M679.587,808.612s-.656,2.949-1.645,4.095-2.285,3.441-3.429,3.276-1.475,2.293.656,2.62,6.542-.654,6.542-.654,3.768-1.645,3.93-2.785-.983-7.044-.983-7.044Z" transform="translate(-543.954 -646.826)" fill="#53526b"/>
    <path id="Path_1106" data-name="Path 1106" d="M679.587,808.612s-.656,2.949-1.645,4.095-2.285,3.441-3.429,3.276-1.475,2.293.656,2.62,6.542-.654,6.542-.654,3.768-1.645,3.93-2.785-.983-7.044-.983-7.044Z" transform="translate(-543.954 -646.826)" opacity="0.05"/>
    <path id="Path_1107" data-name="Path 1107" d="M709.044,814.974a12.548,12.548,0,0,1-1.645,4.095c-.989,1.145-2.291,3.441-3.433,3.276s-1.475,2.293.656,2.62,6.553-.656,6.553-.656,3.768-1.645,3.93-2.785-.983-7.044-.983-7.044Z" transform="translate(-567.35 -651.878)" fill="#53526b"/>
    <path id="Path_1108" data-name="Path 1108" d="M659.66,598.67s1.31,14.086,2.293,15.561,2.129,7.863,2.129,7.863l2.129,13.1s.823,7.536,1.31,8.354,6.567.467,6.567.467l-3.78-43.384Z" transform="translate(-532.873 -480.454)" fill="#5f5d7e"/>
    <path id="Path_1109" data-name="Path 1109" d="M659.66,598.67s1.31,14.086,2.293,15.561,2.129,7.863,2.129,7.863l2.129,13.1s.823,7.536,1.31,8.354,6.567.467,6.567.467l-3.78-43.384Z" transform="translate(-532.873 -480.454)" opacity="0.05"/>
    <path id="Path_1110" data-name="Path 1110" d="M646.92,566l.428,1.359,2.314,7.344.045.14h.012c.311.07,6.867,1.578,8.282,2.04a2.017,2.017,0,0,1,.224.084c.656.327,1.475,12.12,1.475,12.12s.492,11.139.823,11.958,1.645,17.688,2.458,17.2,6.715,0,6.715,0c.656-.656,0-9.5,0-9.5l-1.164-16.213s.656-9.008,0-10.648-.656-12.612-.656-12.612l-13.408-2.1-1.3-.206Z" transform="translate(-522.753 -454.503)" fill="#5f5d7e"/>
    <path id="Path_1111" data-name="Path 1111" d="M649,570.833l2.314,7.344.056.144c.311.07,6.867,1.578,8.282,2.04h.142l-3.663-9.712-.1-.28-1.191.076Z" transform="translate(-524.405 -457.974)" opacity="0.02"/>
    <path id="Path_1112" data-name="Path 1112" d="M665.807,406.73s-6.061,6.553-9.829,1.146l-3.6,2.458.656,3.768L650.9,442.6a33.235,33.235,0,0,1,9.5,1.146,6.1,6.1,0,0,0,6.388-1.475l-.648-25.059,1.475-7.7Z" transform="translate(-525.915 -327.99)" opacity="0.1"/>
    <path id="Path_1113" data-name="Path 1113" d="M665.807,404.34s-6.061,6.553-9.829,1.146l-3.6,2.458.656,3.768-2.131,28.5a33.233,33.233,0,0,1,9.5,1.146,6.1,6.1,0,0,0,6.388-1.475l-.648-25.059,1.475-7.7Z" transform="translate(-525.915 -326.091)" fill="#53526b"/>
    <g id="TESLA" transform="translate(125.882 106.754)">
      <g id="g8">
        <path id="polyline10" d="M614.153,522.36v1.032h-.329v-.687h-1.2v.687h-.331v-1.03l1.863,0" transform="translate(-612.243 -521.685)" fill="#e82127"/>
        <path id="path12" d="M656.877,543.281h-1.271a.469.469,0,0,1-.346-.341h1.96a.471.471,0,0,1-.345.341" transform="translate(-655.26 -542.94)" fill="#e82127"/>
      </g>
      <g id="g30" transform="translate(10.966 0.012)">
        <path id="path32" d="M710.723,543a.475.475,0,0,1-.344.339h-.535l-.027.01V544.7h-.329V543.35l-.031-.01h-.535a.482.482,0,0,1-.344-.339h2.143" transform="translate(-708.58 -543)" fill="#e82127"/>
      </g>
    </g>
    <path id="Path_1114" data-name="Path 1114" d="M632.318,569.2s0,4.259-.983,6.061-6.715.823-6.715.823l1.146-6.061Z" transform="translate(-505.04 -457.045)" fill="#d6dbe6"/>
    <path id="Path_1115" data-name="Path 1115" d="M625.323,587.4c.864.823,4.445-.823,4.2-1.8-.173-.693-.777-3.173-1.121-4.58l-.239-.989s-2.1-.656-2.838,0a4.67,4.67,0,0,0-.547,2.314C624.624,584.32,624.778,586.883,625.323,587.4Z" transform="translate(-505.119 -465.419)" fill="#fdc2cc"/>
    <path id="Path_1116" data-name="Path 1116" d="M666,375.728l5.732,4.422s8.517-.492,6.388-4.586a15.269,15.269,0,0,1-1.645-5.788,12.116,12.116,0,0,1,0-2.24s-7.863-7.2-6.88.983a18.559,18.559,0,0,1,.136,1.892C669.848,376.553,666,375.728,666,375.728Z" transform="translate(-537.909 -294.532)" fill="#fdc2cc"/>
    <path id="Path_1117" data-name="Path 1117" d="M683.231,368.515a18.542,18.542,0,0,1,.136,1.892,5.368,5.368,0,0,0,2.976.893c1.466,0,2.546-1.427,3.521-2.376-.109-1.359.245-1.392.245-1.392S682.248,360.326,683.231,368.515Z" transform="translate(-551.529 -294.526)" opacity="0.1"/>
    <circle id="Ellipse_387" data-name="Ellipse 387" cx="5.405" cy="5.405" r="5.405" transform="translate(129.409 65.637)" fill="#fdc2cc"/>
    <path id="Path_1118" data-name="Path 1118" d="M700.389,394.38s.9.082,2.7,2.538,5.732,2.785,5.732,2.785,1.475-.656,3.112,6.715,2.129,12.285,1.31,13.1a11.924,11.924,0,0,1-5.74,1.968s-.492,10.318.327,12.12a2.792,2.792,0,0,1-.165,2.949l-7.2-.492a17.13,17.13,0,0,1-2.949-8.517c-.492-5.4-2.129-20.8-1.31-22.605s4.422-6.388,4.26-6.88A29.581,29.581,0,0,1,700.389,394.38Z" transform="translate(-561.726 -318.18)" opacity="0.1"/>
    <path id="Path_1119" data-name="Path 1119" d="M701.688,394.14s1.211-.033,3.013,2.425,5.73,2.785,5.73,2.785,1.475-.656,3.112,6.715,2.129,12.285,1.31,13.1a11.921,11.921,0,0,1-5.732,1.966s-.492,10.318.327,12.12a2.792,2.792,0,0,1-.164,2.949l-7.2-.492a17.132,17.132,0,0,1-2.949-8.517c-.492-5.4-2.133-20.8-1.314-22.595s4.422-6.388,4.259-6.88S701.688,394.14,701.688,394.14Z" transform="translate(-563.007 -317.989)" fill="#d6dbe6"/>
    <path id="Path_1120" data-name="Path 1120" d="M625,582.338a5.369,5.369,0,0,1,3.624-1.325l-.239-.989s-2.1-.656-2.838,0A4.6,4.6,0,0,0,625,582.338Z" transform="translate(-505.341 -465.411)" opacity="0.1"/>
    <path id="Path_1121" data-name="Path 1121" d="M636.872,399.16s-4.177,2.7-4.669,3.85a5.211,5.211,0,0,1-2.293,1.966s-3.439,1.8-3.439,8.19l-1.8,9.008,8.19,11.466s.983-11.466,1.475-14.251,1.146-8.021,1.146-8.021,2.458-3.112,2.129-3.93S636.872,399.16,636.872,399.16Z" transform="translate(-505.079 -321.977)" opacity="0.1"/>
    <path id="Path_1122" data-name="Path 1122" d="M634.926,398.92s-4.356,2.425-4.846,3.57a5.215,5.215,0,0,1-2.293,1.966s-3.439,1.8-3.439,8.19l-1.8,9.008-.327,17.2s2.949-2.785,5.078-1.475,3.439-4.259,3.439-4.259.983-11.466,1.475-14.251,1.146-8.021,1.146-8.021,2.458-3.112,2.129-3.93S634.926,398.92,634.926,398.92Z" transform="translate(-503.133 -321.786)" fill="#d6dbe6"/>
    <path id="Path_1123" data-name="Path 1123" d="M672.7,330.14a5.348,5.348,0,0,1,.954-.942,2.924,2.924,0,0,1,1.886-.917,2.821,2.821,0,0,1,1.115.4q2.612,1.376,5.21,2.781a4.844,4.844,0,0,1,1.746,1.333,5.138,5.138,0,0,1,.753,2.2,5.4,5.4,0,0,1,.074,1.608,2.018,2.018,0,0,1-.712,1.351c-.467.339-1.107.341-1.5.786a4.371,4.371,0,0,0-.485.93c-.16.313-.438.617-.755.561a.792.792,0,0,1-.553-.73,4.431,4.431,0,0,1,.06-1.028,2.435,2.435,0,0,0-.374-1.73c-.247-.313-.6-.5-.839-.823-.572-.773-.311-2.057-.938-2.783a1.487,1.487,0,0,0-1.44-.411,6.154,6.154,0,0,0-1.44.617,10.7,10.7,0,0,1-1.972.761c-.572.156-1.234.531-1.429-.23A5.071,5.071,0,0,1,672.7,330.14Z" transform="translate(-542.627 -265.673)" opacity="0.1"/>
    <path id="Path_1124" data-name="Path 1124" d="M673.493,329.35a5.35,5.35,0,0,1,.954-.942,2.924,2.924,0,0,1,1.886-.917,2.822,2.822,0,0,1,1.115.4c1.74.917,3.186.049,5.21,2.781.432.584,1.3.712,1.746,1.333a5.138,5.138,0,0,1,.753,2.2,5.4,5.4,0,0,1,.074,1.608,2.018,2.018,0,0,1-.712,1.351c-.467.339-1.107.341-1.5.786a4.38,4.38,0,0,0-.485.93c-.16.313-.438.617-.755.561a.792.792,0,0,1-.553-.73,4.428,4.428,0,0,1,.06-1.028,2.435,2.435,0,0,0-.374-1.73c-.247-.313-.6-.5-.839-.823-.572-.773-.311-2.057-.938-2.783a1.487,1.487,0,0,0-1.44-.411,6.154,6.154,0,0,0-1.44.617,10.7,10.7,0,0,1-1.972.761c-.572.156-1.234.531-1.429-.23A5.06,5.06,0,0,1,673.493,329.35Z" transform="translate(-543.259 -265.046)" fill="#865a61"/>
    <path id="Path_1125" data-name="Path 1125" d="M736.388,458.09s2.184,5.57.545,7.863l-3.6-.823s3.276.983,2.785-.983S736.388,458.09,736.388,458.09Z" transform="translate(-591.391 -368.787)" opacity="0.1"/>
    <path id="Path_1126" data-name="Path 1126" d="M730.591,522.466s-4.751.327-6.061-.656a12.545,12.545,0,0,0,5.913,2.458Z" transform="translate(-584.401 -419.401)" opacity="0.1"/>
    <path id="Path_1127" data-name="Path 1127" d="M645.6,474s-2.458,7.536-2.293,8.681.492,13.759.492,13.759l.492-.165-.164-13.759Z" transform="translate(-519.879 -381.425)" opacity="0.1"/>
    <path id="Path_1128" data-name="Path 1128" d="M310.889,150.171l-56.148-45.247a3.513,3.513,0,0,0-2.489-1.028h-2.386a30.439,30.439,0,1,0-5.271,5.271v2.384a3.513,3.513,0,0,0,1.028,2.489l56.148,45.247a3.5,3.5,0,0,0,4.965,0l4.138-4.134A3.531,3.531,0,0,0,310.889,150.171ZM225.851,103.9a18.727,18.727,0,1,1,13.259-5.485,18.745,18.745,0,0,1-13.259,5.485Z" transform="translate(-164.121 -48.386)" fill="url(#linear-gradient-2)"/>
    <path id="Path_1129" data-name="Path 1129" d="M312.889,148.171l-56.148-45.247a3.513,3.513,0,0,0-2.489-1.028h-2.386a30.439,30.439,0,1,0-5.271,5.271v2.384a3.513,3.513,0,0,0,1.028,2.489l56.148,45.247a3.5,3.5,0,0,0,4.965,0l4.138-4.134A3.531,3.531,0,0,0,312.889,148.171ZM227.851,101.9a18.727,18.727,0,1,1,13.259-5.485,18.745,18.745,0,0,1-13.259,5.485Z" transform="translate(-165.71 -46.797)" fill="#ff9981"/>
    <path id="Path_1130" data-name="Path 1130" d="M710.876,476.6s-8.2-9.4-7.044-2.949c.823,4.586,3.93,7.044,5.405,7.536S710.876,476.6,710.876,476.6Z" transform="translate(-567.872 -379.349)" fill="#fdc2cc"/>
    <path id="Path_1131" data-name="Path 1131" d="M727.2,454.51s.164,6.061.983,6.88-.491,1.8-.491,1.8l-3.276-.823s.823,5.405-2.62,4.751a10.441,10.441,0,0,0,4.586,2.458c2.293.329,2.129-.492,2.129-.492l3.439-4.095Z" transform="translate(-582.225 -365.943)" fill="#d6dbe6"/>
    <path id="Path_1132" data-name="Path 1132" d="M702.131,490.035l3.324-.73-.444-1.532-2.057-.823-2.674,1.234Z" transform="translate(-556.254 -386.804)" fill="#d6dbe6"/>
  </g>
</svg>
