<svg xmlns="http://www.w3.org/2000/svg" xmlns:xlink="http://www.w3.org/1999/xlink" width="319.263" height="250.005" viewBox="0 0 319.263 250.005">
  <defs>
    <clipPath id="clip-path">
      <path id="Path_694" data-name="Path 694" d="M103.049,116.289,183.425,47.31,110.052,97.759Z" transform="translate(-103.049 -47.31)" fill="#2f2567"/>
    </clipPath>
    <linearGradient id="linear-gradient" x1="0.786" y1="0.229" x2="0.159" y2="0.699" gradientUnits="objectBoundingBox">
      <stop offset="0" stop-color="#b1afee"/>
      <stop offset="1" stop-color="#8674de"/>
    </linearGradient>
    <linearGradient id="linear-gradient-2" x1="0.364" y1="0.294" x2="0.436" y2="0.749" xlink:href="#linear-gradient"/>
    <linearGradient id="linear-gradient-3" x1="-0.529" y1="2.13" x2="-0.724" y2="0.534" gradientUnits="objectBoundingBox">
      <stop offset="0" stop-color="#1c0e65"/>
      <stop offset="1" stop-color="#705ec9"/>
    </linearGradient>
  </defs>
  <g id="success-image" transform="translate(0.156 -130.594)">
    <g id="arrow-path" transform="translate(2139.394 1219.459)">
      <path id="Path_710" data-name="Path 710" d="M233.438,454.84c19.988,3.151,40.4-1.875,59.352-8.955,14.883-5.557,29.5-12.543,41.371-23.1s20.828-25.08,22.107-40.915c.356-4.4.047-9.087-2.359-12.788-4.453-6.848-16.044-7.145-20.841-.534-3.571,4.921-3.077,12,.035,17.224s8.4,8.818,13.944,11.312a55.745,55.745,0,0,0,53.592-4.948c15.875-11.02,24.738-29.5,31.195-47.718s11.365-37.341,22.143-53.38c12.613-18.769,32.1-31.6,51.057-43.928" transform="translate(-2372.832 -1295.615)" fill="none" stroke="#c6c6c6" stroke-miterlimit="10" stroke-width="2" stroke-dasharray="12 12"/>
    </g>
    <g id="email-sent" transform="translate(157.519 83.283)">
      <g id="Group_850" data-name="Group 850" transform="translate(44.481 47.31)">
        <g id="Group_848" data-name="Group 848" transform="translate(35.708)">
          <g id="Group_847" data-name="Group 847">
            <g id="Group_846" data-name="Group 846" clip-path="url(#clip-path)">
              <rect id="Rectangle_1799" data-name="Rectangle 1799" width="80.376" height="68.979" fill="#2f2567"/>
              <path id="Path_563" data-name="Path 563" d="M100.586,105.24V70.364H97.878a90.994,90.994,0,0,1,23.274-28.481v2.864h60.7v69.869H100.586Z" transform="translate(-101.031 -45.192)" fill="#2f2567"/>
              <path id="Path_564" data-name="Path 564" d="M101.075,105.55V70.94H99.131a90.3,90.3,0,0,1,23.1-28.263v2.38h60.114v69.869H101.075Z" transform="translate(-101.52 -45.502)" fill="#2f2567"/>
              <path id="Path_565" data-name="Path 565" d="M101.564,105.86V71.516h-1.18A89.6,89.6,0,0,1,123.3,43.47v1.9H182.83v69.869H101.564Z" transform="translate(-102.009 -45.812)" fill="#2f2567"/>
              <path id="Path_566" data-name="Path 566" d="M102.053,106.169V72.092h-.416a88.9,88.9,0,0,1,22.741-27.829v1.413h58.941v69.869H102.053Z" transform="translate(-102.498 -46.121)" fill="#2f2567"/>
              <path id="Path_567" data-name="Path 567" d="M101.335,106.479V76.612H99.8q.885-2,1.885-3.945a88.214,88.214,0,0,1,22.563-27.611v.929H182.6v69.869H101.335Z" transform="translate(-101.78 -46.431)" fill="#2f2567"/>
              <path id="Path_568" data-name="Path 568" d="M100.782,106.789V81.161h-2.4a76.666,76.666,0,0,1,3.512-7.918A87.514,87.514,0,0,1,124.279,45.85V46.3h57.769v69.869H100.782Z" transform="translate(-101.227 -46.74)" fill="#2f2567"/>
              <path id="Path_569" data-name="Path 569" d="M101.289,105.286V79.862H99.68a75.893,75.893,0,0,1,3.484-7.855,86.822,86.822,0,0,1,22.209-27.176q1.758-1.45,3.6-2.831v2.792h53.584v69.869H101.289Z" transform="translate(-101.734 -45.238)" fill="#2f2567"/>
              <path id="Path_570" data-name="Path 570" d="M101.8,105.61V80.389h-.818a75.455,75.455,0,0,1,3.457-7.792,86.132,86.132,0,0,1,22.031-26.959q1.744-1.439,3.57-2.808v2.286h53.026v69.869H101.8Z" transform="translate(-102.241 -45.562)" fill="#2f2567"/>
              <path id="Path_571" data-name="Path 571" d="M100.694,105.934V88.979H98.156A73.246,73.246,0,0,1,104.1,73.188a85.439,85.439,0,0,1,21.853-26.742q1.729-1.427,3.541-2.785v1.78H181.96V115.31H100.694Z" transform="translate(-101.139 -45.886)" fill="#2f2567"/>
              <path id="Path_572" data-name="Path 572" d="M101.214,106.258V89.441H99.488a72.671,72.671,0,0,1,5.893-15.663,84.729,84.729,0,0,1,21.675-26.524q1.716-1.416,3.512-2.763v1.274H182.48v69.869H101.214Z" transform="translate(-101.659 -46.21)" fill="#2f2567"/>
              <path id="Path_573" data-name="Path 573" d="M97.477,106.582c0-22.854,11.228-43.543,29.381-58.52q1.7-1.4,3.483-2.741v.768H181.7v69.869H100.429v-9.376Z" transform="translate(-100.874 -46.534)" fill="#2f2567"/>
              <path id="Path_574" data-name="Path 574" d="M98.837,105.255c0-22.665,11.135-43.184,29.138-58.037q3.376-2.785,7.064-5.3v2.841h47.187v69.869H100.96v-9.376Z" transform="translate(-101.405 -45.207)" fill="#2f2567"/>
              <path id="Path_575" data-name="Path 575" d="M100.2,105.593c0-22.476,11.042-42.824,28.894-57.553q3.348-2.762,7.006-5.254V45.1h46.66v69.869H101.491v-9.376Z" transform="translate(-101.936 -45.545)" fill="#2f2567"/>
              <path id="Path_576" data-name="Path 576" d="M101.557,105.931c0-22.287,10.949-42.464,28.652-57.069q3.319-2.739,6.947-5.209v1.785h46.132v69.869h-80.6v2.916q-.37-2-.622-4.039A67.48,67.48,0,0,1,101.557,105.931Z" transform="translate(-102.467 -45.883)" fill="#2f2567"/>
              <path id="Path_577" data-name="Path 577" d="M102.916,106.269c0-22.1,10.857-42.1,28.409-56.586q3.291-2.715,6.888-5.165v1.257h45.6v69.869H104.034v2.811q-.368-1.986-.616-4.005A66.95,66.95,0,0,1,102.916,106.269Z" transform="translate(-102.997 -46.221)" fill="#2f2567"/>
              <path id="Path_578" data-name="Path 578" d="M104.276,106.606c0-21.909,10.764-41.744,28.166-56.1q3.263-2.691,6.829-5.121v.73h45.077v69.869H105.384v2.707q-.364-1.97-.612-3.97A66.435,66.435,0,0,1,104.276,106.606Z" transform="translate(-103.528 -46.558)" fill="#2f2567"/>
              <path id="Path_579" data-name="Path 579" d="M105.636,106.944c0-21.72,10.671-41.385,27.923-55.618q3.236-2.67,6.771-5.077v.2h44.55V116.32H106.735v2.6q-.362-1.953-.607-3.936A65.782,65.782,0,0,1,105.636,106.944Z" transform="translate(-104.059 -46.896)" fill="#2f2567"/>
              <path id="Path_580" data-name="Path 580" d="M107,105.8c0-21.531,10.578-41.025,27.681-55.135q3.206-2.646,6.711-5.032,1.75-1.193,3.57-2.315v1.989h40.452v69.869H108.085v2.5q-.359-1.936-.6-3.9A65.244,65.244,0,0,1,107,105.8Z" transform="translate(-104.59 -45.752)" fill="#2f2567"/>
              <path id="Path_581" data-name="Path 581" d="M108.355,106.151c0-21.343,10.485-40.665,27.438-54.651q3.179-2.622,6.653-4.988,1.735-1.181,3.539-2.294v1.441h39.957v69.869H109.435v2.395q-.356-1.92-.6-3.868A64.607,64.607,0,0,1,108.355,106.151Z" transform="translate(-105.12 -46.103)" fill="#2f2567"/>
              <path id="Path_582" data-name="Path 582" d="M109.715,105.135c0-21.154,10.393-40.3,27.2-54.168a91.874,91.874,0,0,1,13.741-9.354v3.028h35.821v69.869H110.785V116.8q-.352-1.9-.591-3.834A64.076,64.076,0,0,1,109.715,105.135Z" transform="translate(-105.651 -45.087)" fill="#2f2567"/>
              <path id="Path_583" data-name="Path 583" d="M111.075,105.5c0-20.965,10.3-39.945,26.952-53.684a91.051,91.051,0,0,1,13.619-9.271V45H187v69.869H112.135v2.186q-.349-1.885-.585-3.8A63.534,63.534,0,0,1,111.075,105.5Z" transform="translate(-106.182 -45.45)" fill="#2f2567"/>
              <path id="Path_584" data-name="Path 584" d="M112.434,105.861c0-20.776,10.207-39.585,26.71-53.2a90.256,90.256,0,0,1,13.5-9.187v1.894h34.893v69.869H113.485v2.082q-.346-1.868-.58-3.765A62.882,62.882,0,0,1,112.434,105.861Z" transform="translate(-106.712 -45.813)" fill="#2f2567"/>
              <path id="Path_585" data-name="Path 585" d="M113.794,106.224c0-20.587,10.114-39.226,26.467-52.717a89.421,89.421,0,0,1,13.374-9.1v1.327h34.43V115.6H114.835v1.978q-.343-1.851-.575-3.731A62.368,62.368,0,0,1,113.794,106.224Z" transform="translate(-107.243 -46.176)" fill="#2f2567"/>
              <path id="Path_586" data-name="Path 586" d="M115.154,106.587c0-20.4,10.021-38.865,26.224-52.233a88.551,88.551,0,0,1,13.25-9.02v.76h33.966v69.869H116.186v1.874q-.339-1.835-.569-3.7A61.835,61.835,0,0,1,115.154,106.587Z" transform="translate(-107.774 -46.539)" fill="#2f2567"/>
              <path id="Path_587" data-name="Path 587" d="M116.514,106.95c0-20.209,9.928-38.506,25.981-51.749a87.7,87.7,0,0,1,13.128-8.937v.193h33.5v69.869h-71.59v1.77q-.337-1.817-.564-3.663A61.175,61.175,0,0,1,116.514,106.95Z" transform="translate(-108.305 -46.902)" fill="#2f2567"/>
              <path id="Path_588" data-name="Path 588" d="M117.873,106.106c0-20.02,9.836-38.146,25.739-51.266a86.9,86.9,0,0,1,13.005-8.853q1.753-.977,3.565-1.886v1.511h29.474v69.869h-70.77v1.666q-.333-1.8-.558-3.628A60.54,60.54,0,0,1,117.873,106.106Z" transform="translate(-108.835 -46.058)" fill="#2f2567"/>
              <path id="Path_589" data-name="Path 589" d="M119.233,105.373c0-19.831,9.743-37.786,25.5-50.782a86.1,86.1,0,0,1,12.883-8.769q3.473-1.936,7.177-3.6V44.88h25.4v69.869H120.236v1.561q-.33-1.783-.554-3.594A60.129,60.129,0,0,1,119.233,105.373Z" transform="translate(-109.366 -45.325)" fill="#2f2567"/>
              <path id="Path_590" data-name="Path 590" d="M120.593,105.758c0-19.643,9.65-37.426,25.253-50.3a85.272,85.272,0,0,1,12.76-8.686q3.44-1.918,7.109-3.563v2.054h25v69.869H121.586v1.457q-.326-1.766-.548-3.56A59.469,59.469,0,0,1,120.593,105.758Z" transform="translate(-109.897 -45.71)" fill="#2f2567"/>
              <path id="Path_591" data-name="Path 591" d="M121.953,106.143c0-19.454,9.557-37.066,25.009-49.815a84.447,84.447,0,0,1,12.638-8.6q3.407-1.9,7.04-3.529V45.65h24.608v69.869H122.936v1.353q-.324-1.749-.543-3.525A58.952,58.952,0,0,1,121.953,106.143Z" transform="translate(-110.428 -46.095)" fill="#2f2567"/>
              <path id="Path_592" data-name="Path 592" d="M123.312,106.529c0-19.265,9.465-36.706,24.767-49.331a83.624,83.624,0,0,1,12.514-8.519q3.374-1.88,6.972-3.494v.851h24.213V115.9H124.286v1.249q-.32-1.732-.538-3.491A58.423,58.423,0,0,1,123.312,106.529Z" transform="translate(-110.958 -46.48)" fill="#2f2567"/>
              <path id="Path_593" data-name="Path 593" d="M124.672,106.913c0-19.076,9.372-36.347,24.524-48.848a82.82,82.82,0,0,1,12.392-8.435q3.341-1.863,6.9-3.461v.25H192.31v69.869H125.637v1.145q-.317-1.716-.532-3.458A57.77,57.77,0,0,1,124.672,106.913Z" transform="translate(-111.489 -46.865)" fill="#2f2567"/>
              <path id="Path_594" data-name="Path 594" d="M126.032,105.455c0-18.887,9.279-35.986,24.282-48.364a85.8,85.8,0,0,1,26.351-14.658v2.528h16.176v69.869H126.987v1.041q-.315-1.7-.527-3.423A57.23,57.23,0,0,1,126.032,105.455Z" transform="translate(-112.02 -45.407)" fill="#2f2567"/>
              <path id="Path_595" data-name="Path 595" d="M127.392,105.858c0-18.7,9.186-35.627,24.038-47.88a84.947,84.947,0,0,1,26.088-14.512v1.9h15.853v69.869H128.338v.936q-.312-1.681-.522-3.389A56.6,56.6,0,0,1,127.392,105.858Z" transform="translate(-112.55 -45.81)" fill="#2f2567"/>
              <path id="Path_596" data-name="Path 596" d="M128.751,106.262c0-18.51,9.094-35.267,23.8-47.4A84.079,84.079,0,0,1,178.371,44.5v1.268H193.9v69.869H129.687v.832q-.308-1.664-.517-3.355A56.064,56.064,0,0,1,128.751,106.262Z" transform="translate(-113.081 -46.214)" fill="#2f2567"/>
              <path id="Path_597" data-name="Path 597" d="M130.111,106.665c0-18.321,9-34.907,23.553-46.913a83.226,83.226,0,0,1,25.561-14.218v.638h15.208v69.869H131.038v.728q-.305-1.647-.512-3.32A55.529,55.529,0,0,1,130.111,106.665Z" transform="translate(-113.612 -46.617)" fill="#2f2567"/>
              <path id="Path_598" data-name="Path 598" d="M131.471,107.068c0-18.132,8.908-34.547,23.31-46.43a82.388,82.388,0,0,1,25.3-14.072v.008h14.886v69.869H132.388v.624q-.3-1.63-.506-3.286A54.887,54.887,0,0,1,131.471,107.068Z" transform="translate(-114.143 -47.02)" fill="#2f2567"/>
              <path id="Path_599" data-name="Path 599" d="M132.83,106.073c0-17.943,8.816-34.187,23.068-45.946A81.51,81.51,0,0,1,180.931,46.2q3.533-1.233,7.236-2.185V45.58h7.327v69.869H133.738v.52q-.3-1.613-.5-3.252A54.356,54.356,0,0,1,132.83,106.073Z" transform="translate(-114.673 -46.025)" fill="#2f2567"/>
              <path id="Path_600" data-name="Path 600" d="M134.19,105.477c0-17.754,8.722-33.827,22.824-45.462a80.645,80.645,0,0,1,24.77-13.778,89.721,89.721,0,0,1,14.628-3.747l-.388,2.494v69.869H135.088v.416q-.3-1.6-.5-3.218A53.825,53.825,0,0,1,134.19,105.477Z" transform="translate(-115.204 -45.429)" fill="#2f2567"/>
              <path id="Path_601" data-name="Path 601" d="M135.55,105.906c0-17.565,8.63-33.468,22.582-44.979A79.8,79.8,0,0,1,182.638,47.3a88.861,88.861,0,0,1,14.472-3.706l-.555,1.824v69.869H136.438v.312q-.293-1.579-.49-3.184A53.164,53.164,0,0,1,135.55,105.906Z" transform="translate(-115.735 -45.858)" fill="#2f2567"/>
              <path id="Path_602" data-name="Path 602" d="M136.91,106.335c0-17.376,8.537-33.107,22.338-44.5a78.951,78.951,0,0,1,24.243-13.485,87.9,87.9,0,0,1,14.317-3.667l-.722,1.154v69.869h-59.3v.207q-.289-1.562-.485-3.149A52.527,52.527,0,0,1,136.91,106.335Z" transform="translate(-116.265 -46.287)" fill="#2f2567"/>
              <path id="Path_603" data-name="Path 603" d="M138.269,106.764c0-17.187,8.444-32.748,22.1-44.011a78.081,78.081,0,0,1,23.98-13.339,86.888,86.888,0,0,1,14.161-3.627l-.889.483V116.14H139.138v.1q-.286-1.546-.48-3.115A52.114,52.114,0,0,1,138.269,106.764Z" transform="translate(-116.796 -46.716)" fill="#2f2567"/>
              <path id="Path_604" data-name="Path 604" d="M139.629,107.193c0-17,8.352-32.388,21.853-43.528A77.217,77.217,0,0,1,185.2,50.473,85.967,85.967,0,0,1,199.2,46.886h-1.056v69.683h-57v3.03A51.438,51.438,0,0,1,139.629,107.193Z" transform="translate(-117.327 -47.145)" fill="#2f2567"/>
              <path id="Path_605" data-name="Path 605" d="M140.989,107.622c0-16.81,8.258-32.028,21.61-43.044a76.362,76.362,0,0,1,23.452-13.046,84.984,84.984,0,0,1,13.85-3.547h-1.223V117h-56.19v2.892A50.837,50.837,0,0,1,140.989,107.622Z" transform="translate(-117.858 -47.574)" fill="#2f2567"/>
              <path id="Path_606" data-name="Path 606" d="M142.349,108.051c0-16.621,8.166-31.668,21.367-42.56a75.494,75.494,0,0,1,23.19-12.9A83.993,83.993,0,0,1,200.6,49.084h-1.39v68.343H143.831v2.755A50.291,50.291,0,0,1,142.349,108.051Z" transform="translate(-118.388 -48.003)" fill="#2f2567"/>
              <path id="Path_607" data-name="Path 607" d="M143.708,108.48c0-16.432,8.073-31.308,21.125-42.077A74.653,74.653,0,0,1,187.759,53.65,83.088,83.088,0,0,1,201.3,50.183H199.74v67.673H145.174v2.617A49.717,49.717,0,0,1,143.708,108.48Z" transform="translate(-118.919 -48.432)" fill="#2f2567"/>
              <path id="Path_608" data-name="Path 608" d="M145.068,108.909c0-16.243,7.98-30.948,20.882-41.593A73.788,73.788,0,0,1,188.612,54.71a82.167,82.167,0,0,1,13.383-3.428h-1.724v67H146.517v2.479A49.145,49.145,0,0,1,145.068,108.909Z" transform="translate(-119.45 -48.861)" fill="#2f2567"/>
              <path id="Path_609" data-name="Path 609" d="M146.428,109.338c0-16.054,7.887-30.589,20.639-41.11a72.925,72.925,0,0,1,22.4-12.459,81.192,81.192,0,0,1,13.228-3.388H200.8v66.332H147.86v2.341A48.573,48.573,0,0,1,146.428,109.338Z" transform="translate(-119.98 -49.29)" fill="#2f2567"/>
              <path id="Path_610" data-name="Path 610" d="M147.788,109.767c0-15.865,7.794-30.228,20.4-40.625a72.079,72.079,0,0,1,22.135-12.313,80.246,80.246,0,0,1,13.072-3.348h-2.059v65.662H149.2v2.2A48.028,48.028,0,0,1,147.788,109.767Z" transform="translate(-120.511 -49.719)" fill="#2f2567"/>
              <path id="Path_611" data-name="Path 611" d="M149.147,110.2c0-15.676,7.7-29.869,20.154-40.142a71.216,71.216,0,0,1,21.871-12.166,79.216,79.216,0,0,1,12.916-3.308h-2.226v64.992H150.545v2.066A47.455,47.455,0,0,1,149.147,110.2Z" transform="translate(-121.042 -50.148)" fill="#2f2567"/>
              <path id="Path_612" data-name="Path 612" d="M150.507,110.625c0-15.487,7.609-29.509,19.911-39.659a70.371,70.371,0,0,1,21.608-12.019,78.232,78.232,0,0,1,12.761-3.268h-2.393V120H151.888v1.928A46.88,46.88,0,0,1,150.507,110.625Z" transform="translate(-121.572 -50.577)" fill="#2f2567"/>
              <path id="Path_613" data-name="Path 613" d="M151.867,111.054c0-15.3,7.516-29.149,19.668-39.175a69.509,69.509,0,0,1,21.344-11.873,77.327,77.327,0,0,1,12.605-3.228h-2.56V120.43H153.231v1.79A46.306,46.306,0,0,1,151.867,111.054Z" transform="translate(-122.103 -51.006)" fill="#2f2567"/>
              <path id="Path_614" data-name="Path 614" d="M153.226,111.483c0-15.11,7.424-28.789,19.425-38.691a68.649,68.649,0,0,1,21.081-11.727,76.322,76.322,0,0,1,12.449-3.188h-2.727v62.982H154.574v1.652A45.722,45.722,0,0,1,153.226,111.483Z" transform="translate(-122.634 -51.435)" fill="#2f2567"/>
              <path id="Path_615" data-name="Path 615" d="M154.586,111.912c0-14.921,7.331-28.429,19.183-38.207a67.774,67.774,0,0,1,20.817-11.58,75.354,75.354,0,0,1,12.294-3.148h-2.894v62.312H155.917V122.8A45.145,45.145,0,0,1,154.586,111.912Z" transform="translate(-123.165 -51.864)" fill="#2f2567"/>
              <path id="Path_616" data-name="Path 616" d="M155.946,112.341c0-14.732,7.238-28.07,18.939-37.724a66.943,66.943,0,0,1,20.554-11.434,74.448,74.448,0,0,1,12.138-3.108h-3.061v61.641H157.26v1.376A44.574,44.574,0,0,1,155.946,112.341Z" transform="translate(-123.695 -52.293)" fill="#2f2567"/>
              <path id="Path_617" data-name="Path 617" d="M157.306,113.146c0-14.543,7.145-27.71,18.7-37.24a66.057,66.057,0,0,1,20.29-11.287q2.863-1,5.865-1.771,1.5-.384,3.029-.71h-.14v60.384H158.6v1.238A44,44,0,0,1,157.306,113.146Z" transform="translate(-124.226 -53.098)" fill="#2f2567"/>
              <path id="Path_618" data-name="Path 618" d="M158.665,113.57c0-14.355,7.052-27.349,18.454-36.756a65.193,65.193,0,0,1,20.027-11.14q2.827-.987,5.788-1.748,1.48-.38,2.99-.7h-.347v59.721H159.945v1.1A43.425,43.425,0,0,1,158.665,113.57Z" transform="translate(-124.757 -53.522)" fill="#2f2567"/>
              <path id="Path_619" data-name="Path 619" d="M160.025,113.994c0-14.166,6.96-26.99,18.211-36.273A64.361,64.361,0,0,1,198,66.727q2.789-.973,5.713-1.725,1.46-.375,2.95-.691h-.554V123.37h-44.82v.963A42.879,42.879,0,0,1,160.025,113.994Z" transform="translate(-125.287 -53.946)" fill="#2f2567"/>
              <path id="Path_620" data-name="Path 620" d="M161.385,114.418c0-13.977,6.866-26.63,17.968-35.789a63.5,63.5,0,0,1,19.5-10.847q2.753-.96,5.637-1.7,1.44-.37,2.911-.682h-.762v58.4H162.631v.825A42.307,42.307,0,0,1,161.385,114.418Z" transform="translate(-125.818 -54.37)" fill="#2f2567"/>
              <path id="Path_621" data-name="Path 621" d="M162.745,114.842c0-13.788,6.774-26.27,17.725-35.306a62.637,62.637,0,0,1,19.237-10.7q2.715-.947,5.56-1.679,1.421-.365,2.872-.673h-.969v57.734h-43.2v.687A41.73,41.73,0,0,1,162.745,114.842Z" transform="translate(-126.349 -54.794)" fill="#2f2567"/>
              <path id="Path_622" data-name="Path 622" d="M164.1,115.266c0-13.6,6.681-25.91,17.483-34.822A61.763,61.763,0,0,1,200.56,69.891q2.678-.935,5.484-1.657,1.4-.359,2.832-.663H207.7v57.071H165.317v.549A41.158,41.158,0,0,1,164.1,115.266Z" transform="translate(-126.88 -55.218)" fill="#2f2567"/>
              <path id="Path_623" data-name="Path 623" d="M165.464,115.69c0-13.41,6.588-25.55,17.24-34.338a60.932,60.932,0,0,1,18.71-10.407q2.641-.921,5.408-1.633,1.383-.355,2.793-.655h-1.383v56.409H166.66v.412A40.552,40.552,0,0,1,165.464,115.69Z" transform="translate(-127.41 -55.642)" fill="#2f2567"/>
              <path id="Path_624" data-name="Path 624" d="M166.824,116.115c0-13.221,6.5-25.191,17-33.855A60.069,60.069,0,0,1,202.267,72q2.6-.909,5.332-1.61,1.364-.349,2.754-.645h-1.59V125.49H168v.274A40.011,40.011,0,0,1,166.824,116.115Z" transform="translate(-127.941 -56.067)" fill="#2f2567"/>
              <path id="Path_625" data-name="Path 625" d="M168.184,116.539c0-13.032,6.4-24.831,16.754-33.371A59.207,59.207,0,0,1,203.12,73.054q2.566-.9,5.256-1.587,1.343-.345,2.714-.636h-1.8v55.084H169.346v.135A39.428,39.428,0,0,1,168.184,116.539Z" transform="translate(-128.472 -56.491)" fill="#2f2567"/>
              <path id="Path_626" data-name="Path 626" d="M169.543,116.963c0-12.843,6.31-24.471,16.512-32.887a58.335,58.335,0,0,1,17.919-9.968q2.53-.883,5.179-1.564,1.324-.339,2.675-.627h-2v54.422H171.318v2.248q-.348-1.115-.629-2.25A38.852,38.852,0,0,1,169.543,116.963Z" transform="translate(-129.002 -56.915)" fill="#2f2567"/>
              <path id="Path_627" data-name="Path 627" d="M170.9,117.387c0-12.654,6.217-24.111,16.268-32.4a57.483,57.483,0,0,1,17.655-9.821q2.492-.87,5.1-1.541,1.305-.335,2.636-.617h-2.212v53.759h-37.7v2.077q-.342-1.1-.62-2.217A38.28,38.28,0,0,1,170.9,117.387Z" transform="translate(-129.533 -57.339)" fill="#2f2567"/>
              <path id="Path_628" data-name="Path 628" d="M172.263,117.811c0-12.466,6.124-23.751,16.026-31.92a56.627,56.627,0,0,1,17.391-9.674q2.456-.857,5.027-1.518,1.285-.33,2.6-.608h-2.419v53.1h-36.9v1.906q-.337-1.082-.611-2.184A37.735,37.735,0,0,1,172.263,117.811Z" transform="translate(-130.064 -57.763)" fill="#2f2567"/>
              <path id="Path_629" data-name="Path 629" d="M173.623,118.618c0-12.277,6.031-23.391,15.782-31.437a55.785,55.785,0,0,1,17.129-9.528q2.417-.843,4.951-1.495h-.069v51.835h-36.1v1.735q-.332-1.065-.6-2.151A37.162,37.162,0,0,1,173.623,118.618Z" transform="translate(-130.595 -58.57)" fill="#2f2567"/>
              <path id="Path_630" data-name="Path 630" d="M174.982,119.037c0-12.088,5.939-23.031,15.54-30.953A54.906,54.906,0,0,1,207.387,78.7q2.381-.83,4.874-1.472h-.315v51.182H176.653v1.564q-.327-1.049-.593-2.118A36.586,36.586,0,0,1,174.982,119.037Z" transform="translate(-131.125 -58.989)" fill="#2f2567"/>
              <path id="Path_631" data-name="Path 631" d="M176.342,119.455c0-11.9,5.846-22.671,15.3-30.469a54.054,54.054,0,0,1,16.6-9.234q2.344-.818,4.8-1.449h-.562v50.529H177.986v1.393q-.322-1.032-.583-2.085A36.014,36.014,0,0,1,176.342,119.455Z" transform="translate(-131.656 -59.407)" fill="#2f2567"/>
              <path id="Path_632" data-name="Path 632" d="M177.7,119.873c0-11.71,5.753-22.312,15.054-29.986A53.207,53.207,0,0,1,209.094,80.8q2.306-.8,4.722-1.426h-.808v49.876H179.32v1.222q-.317-1.016-.574-2.052A35.468,35.468,0,0,1,177.7,119.873Z" transform="translate(-132.187 -59.825)" fill="#2f2567"/>
              <path id="Path_633" data-name="Path 633" d="M179.062,120.291c0-11.521,5.66-21.952,14.811-29.5a52.344,52.344,0,0,1,16.074-8.942q2.269-.792,4.646-1.4h-1.055v49.222h-32.2V132.7a35.749,35.749,0,0,1-1.246-4A34.861,34.861,0,0,1,179.062,120.291Z" transform="translate(-132.718 -60.243)" fill="#2f2567"/>
              <path id="Path_634" data-name="Path 634" d="M180.421,120.709c0-11.332,5.568-21.592,14.569-29.018A51.476,51.476,0,0,1,210.8,82.9q2.231-.779,4.57-1.38h-1.3v48.569H182.657v2.828a35.123,35.123,0,0,1-1.225-3.932A34.289,34.289,0,0,1,180.421,120.709Z" transform="translate(-133.248 -60.661)" fill="#2f2567"/>
              <path id="Path_635" data-name="Path 635" d="M181.781,121.128c0-11.143,5.474-21.232,14.326-28.535a50.631,50.631,0,0,1,15.547-8.648q2.195-.765,4.494-1.357H214.6V130.5H183.98v2.625a34.42,34.42,0,0,1-1.205-3.867A33.713,33.713,0,0,1,181.781,121.128Z" transform="translate(-133.779 -61.08)" fill="#2f2567"/>
              <path id="Path_636" data-name="Path 636" d="M183.141,121.546c0-10.954,5.382-20.872,14.083-28.051a49.764,49.764,0,0,1,15.284-8.5q2.157-.753,4.417-1.334h-1.794v47.263H185.3v2.421a33.885,33.885,0,0,1-1.185-3.8A33.131,33.131,0,0,1,183.141,121.546Z" transform="translate(-134.31 -61.498)" fill="#2f2567"/>
              <path id="Path_637" data-name="Path 637" d="M184.5,121.964c0-10.766,5.289-20.512,13.841-27.567a48.9,48.9,0,0,1,15.02-8.355q2.12-.74,4.342-1.311h-2.041v46.61H186.625v2.217a33.256,33.256,0,0,1-1.165-3.736A32.587,32.587,0,0,1,184.5,121.964Z" transform="translate(-134.84 -61.916)" fill="#2f2567"/>
              <path id="Path_638" data-name="Path 638" d="M185.86,122.382c0-10.577,5.2-20.152,13.6-27.084a48.034,48.034,0,0,1,14.756-8.209q2.083-.726,4.265-1.288h-2.288v45.956H187.947v2.014A32.806,32.806,0,0,1,186.8,130.1,32.014,32.014,0,0,1,185.86,122.382Z" transform="translate(-135.371 -62.334)" fill="#2f2567"/>
              <path id="Path_639" data-name="Path 639" d="M187.22,122.8c0-10.388,5.1-19.792,13.355-26.6a47.188,47.188,0,0,1,14.493-8.062q2.046-.714,4.189-1.265h-2.534v45.3H189.27v1.811a32.173,32.173,0,0,1-1.124-3.605A31.438,31.438,0,0,1,187.22,122.8Z" transform="translate(-135.902 -62.752)" fill="#2f2567"/>
              <path id="Path_640" data-name="Path 640" d="M188.58,123.219c0-10.2,5.01-19.433,13.112-26.117a46.322,46.322,0,0,1,14.23-7.915q2.008-.7,4.113-1.242h-2.781v44.649H190.593V134.2a31.6,31.6,0,0,1-1.1-3.54A30.866,30.866,0,0,1,188.58,123.219Z" transform="translate(-136.433 -63.171)" fill="#2f2567"/>
              <path id="Path_641" data-name="Path 641" d="M189.939,123.637c0-10.01,4.918-19.073,12.869-25.633a45.479,45.479,0,0,1,13.966-7.769q1.972-.688,4.037-1.219h-3.027v44h-25.87v1.4a31.007,31.007,0,0,1-1.082-3.474A30.29,30.29,0,0,1,189.939,123.637Z" transform="translate(-136.963 -63.589)" fill="#2f2567"/>
              <path id="Path_642" data-name="Path 642" d="M191.3,124.413c0-9.822,4.825-18.713,12.626-25.149a44.627,44.627,0,0,1,13.7-7.622q.968-.337,1.958-.637h-1.271v42.784H193.237v1.2a30.392,30.392,0,0,1-1.062-3.409A29.718,29.718,0,0,1,191.3,124.413Z" transform="translate(-137.494 -64.365)" fill="#2f2567"/>
              <path id="Path_643" data-name="Path 643" d="M192.659,124.824c0-9.632,4.732-18.353,12.383-24.666a43.755,43.755,0,0,1,13.439-7.475q.948-.331,1.92-.625h-1.556V134.2H194.56v1a29.8,29.8,0,0,1-1.042-3.343A29.145,29.145,0,0,1,192.659,124.824Z" transform="translate(-138.025 -64.776)" fill="#2f2567"/>
              <path id="Path_644" data-name="Path 644" d="M194.019,125.235c0-9.443,4.639-17.993,12.141-24.182a42.907,42.907,0,0,1,13.175-7.329q.93-.324,1.882-.612h-1.841v41.5H195.882v.794a29.3,29.3,0,0,1-1.021-3.277A28.568,28.568,0,0,1,194.019,125.235Z" transform="translate(-138.556 -65.187)" fill="#2f2567"/>
              <path id="Path_645" data-name="Path 645" d="M195.378,126.031c0-9.254,4.547-17.633,11.9-23.7a42.043,42.043,0,0,1,12.912-7.183h-.281v40.257H197.2V136a28.719,28.719,0,0,1-1-3.212A28,28,0,0,1,195.378,126.031Z" transform="translate(-139.086 -65.983)" fill="#2f2567"/>
              <path id="Path_646" data-name="Path 646" d="M196.738,126.434c0-9.066,4.454-17.274,11.655-23.215a41.2,41.2,0,0,1,12.649-7.036h-.6V135.81H198.527v.387a28.218,28.218,0,0,1-.98-3.146A27.45,27.45,0,0,1,196.738,126.434Z" transform="translate(-139.617 -66.386)" fill="#2f2567"/>
              <path id="Path_647" data-name="Path 647" d="M198.1,126.838c0-8.877,4.361-16.913,11.412-22.731A40.333,40.333,0,0,1,221.9,97.217h-.927v39H199.85v.184a27.561,27.561,0,0,1-.96-3.081A26.87,26.87,0,0,1,198.1,126.838Z" transform="translate(-140.148 -66.789)" fill="#2f2567"/>
              <path id="Path_648" data-name="Path 648" d="M199.458,127.241c0-8.688,4.268-16.554,11.169-22.248a39.474,39.474,0,0,1,12.122-6.743H221.5v38.366H202.455v2.871A26.71,26.71,0,0,1,199.458,127.241Z" transform="translate(-140.679 -67.193)" fill="#2f2567"/>
              <path id="Path_649" data-name="Path 649" d="M200.817,127.645c0-8.5,4.176-16.194,10.927-21.763a38.6,38.6,0,0,1,11.858-6.6H222.03v37.736H203.749v2.6A26.12,26.12,0,0,1,200.817,127.645Z" transform="translate(-141.209 -67.597)" fill="#2f2567"/>
              <path id="Path_650" data-name="Path 650" d="M202.177,128.048c0-8.31,4.083-15.834,10.684-21.28a37.769,37.769,0,0,1,11.594-6.45h-1.894v37.106H205.044v2.339A25.545,25.545,0,0,1,202.177,128.048Z" transform="translate(-141.74 -68)" fill="#2f2567"/>
              <path id="Path_651" data-name="Path 651" d="M203.537,128.451c0-8.122,3.99-15.474,10.441-20.8a36.89,36.89,0,0,1,11.331-6.3h-2.217v36.475H206.338V139.9A24.971,24.971,0,0,1,203.537,128.451Z" transform="translate(-142.271 -68.403)" fill="#2f2567"/>
              <path id="Path_652" data-name="Path 652" d="M204.9,128.855c0-7.933,3.9-15.114,10.2-20.313a36.045,36.045,0,0,1,11.068-6.156h-2.54v35.845h-15.99v1.806A24.391,24.391,0,0,1,204.9,128.855Z" transform="translate(-142.801 -68.807)" fill="#2f2567"/>
              <path id="Path_653" data-name="Path 653" d="M206.256,129.259c0-7.744,3.8-14.754,9.956-19.829a35.171,35.171,0,0,1,10.8-6.01h-2.862v35.214H208.927v1.54A23.807,23.807,0,0,1,206.256,129.259Z" transform="translate(-143.332 -69.211)" fill="#2f2567"/>
              <path id="Path_654" data-name="Path 654" d="M207.616,130.4c0-7.555,3.712-14.395,9.712-19.345a32.771,32.771,0,0,1,4.908-3.34q1.323-.738,2.734-1.371h-.287v33.432H210.222v1.274A23.228,23.228,0,0,1,207.616,130.4Z" transform="translate(-143.863 -70.351)" fill="#2f2567"/>
              <path id="Path_655" data-name="Path 655" d="M208.976,130.784c0-7.366,3.618-14.034,9.47-18.862a31.979,31.979,0,0,1,4.785-3.257q1.29-.72,2.666-1.336h-.682V140.16h-13.7v1.007A22.646,22.646,0,0,1,208.976,130.784Z" transform="translate(-144.394 -70.736)" fill="#2f2567"/>
              <path id="Path_656" data-name="Path 656" d="M210.335,131.17c0-7.177,3.526-13.675,9.227-18.378a31.191,31.191,0,0,1,4.662-3.173q1.257-.7,2.6-1.3h-1.077v32.229H212.811v.741A22.062,22.062,0,0,1,210.335,131.17Z" transform="translate(-144.924 -71.122)" fill="#2f2567"/>
              <path id="Path_657" data-name="Path 657" d="M211.7,131.554c0-6.988,3.433-13.315,8.984-17.894a30.355,30.355,0,0,1,4.539-3.091q1.225-.682,2.53-1.268h-1.472V140.93h-12.17v.475A21.483,21.483,0,0,1,211.7,131.554Z" transform="translate(-145.455 -71.506)" fill="#2f2567"/>
              <path id="Path_658" data-name="Path 658" d="M213.055,131.94c0-6.8,3.34-12.955,8.741-17.411a29.493,29.493,0,0,1,4.417-3.006q1.191-.664,2.461-1.233h-1.867v31.027H215.4v.209A20.9,20.9,0,0,1,213.055,131.94Z" transform="translate(-145.986 -71.892)" fill="#2f2567"/>
              <path id="Path_659" data-name="Path 659" d="M214.415,132.325c0-6.61,3.247-12.595,8.5-16.927a28.7,28.7,0,0,1,4.294-2.923q1.158-.646,2.392-1.2h-2.263V141.7h-9.42v2.035a22.324,22.324,0,0,1-1.222-2.092A20.317,20.317,0,0,1,214.415,132.325Z" transform="translate(-146.516 -72.276)" fill="#2f2567"/>
              <path id="Path_660" data-name="Path 660" d="M215.774,133.455c0-6.421,3.155-12.235,8.256-16.444a27.945,27.945,0,0,1,4.171-2.839h-.333v28.659h-8.692v1.709a21.667,21.667,0,0,1-1.187-2.033A19.743,19.743,0,0,1,215.774,133.455Z" transform="translate(-147.047 -73.407)" fill="#2f2567"/>
              <path id="Path_661" data-name="Path 661" d="M217.134,133.818c0-6.233,3.062-11.876,8.013-15.96A27.077,27.077,0,0,1,229.2,115.1h-.8v28.092h-7.963v1.383a21.091,21.091,0,0,1-1.152-1.974A19.164,19.164,0,0,1,217.134,133.818Z" transform="translate(-147.578 -73.77)" fill="#2f2567"/>
              <path id="Path_662" data-name="Path 662" d="M218.494,134.181c0-6.044,2.969-11.516,7.77-15.476a26.3,26.3,0,0,1,3.926-2.673h-1.261v27.525h-5.9v2.862a21,21,0,0,1-2.446-3.718A18.579,18.579,0,0,1,218.494,134.181Z" transform="translate(-148.108 -74.133)" fill="#2f2567"/>
              <path id="Path_663" data-name="Path 663" d="M219.854,134.545a19.481,19.481,0,0,1,7.527-14.993,25.424,25.424,0,0,1,3.8-2.589H229.46V143.92h-5.218V146.4a20.35,20.35,0,0,1-2.369-3.6A18,18,0,0,1,219.854,134.545Z" transform="translate(-148.639 -74.497)" fill="#2f2567"/>
              <path id="Path_664" data-name="Path 664" d="M221.213,134.908A18.851,18.851,0,0,1,228.5,120.4a24.592,24.592,0,0,1,3.681-2.506h-2.188v26.39h-4.53v2.1a19.651,19.651,0,0,1-2.293-3.486A17.419,17.419,0,0,1,221.213,134.908Z" transform="translate(-149.17 -74.86)" fill="#2f2567"/>
              <path id="Path_665" data-name="Path 665" d="M222.573,135.271a18.224,18.224,0,0,1,7.042-14.025,23.755,23.755,0,0,1,3.558-2.422h-2.651v25.823h-3.843v1.714a19.043,19.043,0,0,1-2.216-3.369A16.836,16.836,0,0,1,222.573,135.271Z" transform="translate(-149.701 -75.223)" fill="#2f2567"/>
              <path id="Path_666" data-name="Path 666" d="M223.933,135.634a17.594,17.594,0,0,1,6.8-13.542,22.941,22.941,0,0,1,3.436-2.339h-3.115v25.256H227.9v1.332a18.367,18.367,0,0,1-2.14-3.253A16.255,16.255,0,0,1,223.933,135.634Z" transform="translate(-150.231 -75.586)" fill="#2f2567"/>
              <path id="Path_667" data-name="Path 667" d="M225.293,137.44a16.969,16.969,0,0,1,6.555-13.058h-.265v22.434h-2.467v.95a17.678,17.678,0,0,1-2.064-3.137A15.674,15.674,0,0,1,225.293,137.44Z" transform="translate(-150.762 -77.392)" fill="#2f2567"/>
              <path id="Path_668" data-name="Path 668" d="M226.652,137.75a16.337,16.337,0,0,1,6.313-12.574h-.852v21.95h-1.78v.567a17,17,0,0,1-1.987-3.02A15.1,15.1,0,0,1,226.652,137.75Z" transform="translate(-151.293 -77.702)" fill="#2f2567"/>
              <path id="Path_669" data-name="Path 669" d="M228.012,138.06a15.711,15.711,0,0,1,6.07-12.091h-1.438v21.467l1.438,2.716A15.712,15.712,0,0,1,228.012,138.06Z" transform="translate(-151.823 -78.012)" fill="#2f2567"/>
              <path id="Path_670" data-name="Path 670" d="M229.372,138.369a15.08,15.08,0,0,1,5.827-11.607h-2.024v20.983l2.024,2.231A15.08,15.08,0,0,1,229.372,138.369Z" transform="translate(-152.354 -78.321)" fill="#2f2567"/>
              <path id="Path_671" data-name="Path 671" d="M230.731,138.679a14.455,14.455,0,0,1,5.585-11.124h-2.61v20.5l2.61,1.748A14.454,14.454,0,0,1,230.731,138.679Z" transform="translate(-152.885 -78.631)" fill="#2f2567"/>
              <path id="Path_672" data-name="Path 672" d="M232.091,140.414a12.77,12.77,0,0,1,1.433-5.857A14.427,14.427,0,0,1,235.206,132h-.969v16.826h.969a14.445,14.445,0,0,1-1.682-2.556A12.772,12.772,0,0,1,232.091,140.414Z" transform="translate(-153.416 -80.366)" fill="#2f2567"/>
              <path id="Path_673" data-name="Path 673" d="M233.451,142.221a12.2,12.2,0,0,1,1.368-5.591h-.052v11.182h.052A12.191,12.191,0,0,1,233.451,142.221Z" transform="translate(-153.946 -82.173)" fill="#2f2567"/>
              <path id="Path_674" data-name="Path 674" d="M234.811,142.391a11.612,11.612,0,0,1,1.3-5.324H235.3v10.649h.816A11.616,11.616,0,0,1,234.811,142.391Z" transform="translate(-154.477 -82.343)" fill="#2f2567"/>
              <path id="Path_675" data-name="Path 675" d="M235.61,137.481v0Z" transform="translate(-154.789 -77.432)" fill="#2f2567"/>
              <path id="Path_676" data-name="Path 676" d="M235.61,137.918v0Z" transform="translate(-154.789 -77.87)" fill="#2f2567"/>
              <path id="Path_677" data-name="Path 677" d="M235.61,138.356v0Z" transform="translate(-154.789 -78.308)" fill="#2f2567"/>
              <path id="Path_678" data-name="Path 678" d="M235.61,138.794v0Z" transform="translate(-154.789 -78.746)" fill="#2f2567"/>
              <path id="Path_679" data-name="Path 679" d="M235.61,139.232v0Z" transform="translate(-154.789 -79.184)" fill="#2f2567"/>
              <path id="Path_680" data-name="Path 680" d="M235.61,139.67v0Z" transform="translate(-154.789 -79.622)" fill="#2f2567"/>
              <path id="Path_681" data-name="Path 681" d="M235.61,140.108v0Z" transform="translate(-154.789 -80.06)" fill="#2f2567"/>
              <path id="Path_682" data-name="Path 682" d="M235.61,140.546v0Z" transform="translate(-154.789 -80.498)" fill="#2f2567"/>
              <path id="Path_683" data-name="Path 683" d="M235.61,140.984v0Z" transform="translate(-154.789 -80.936)" fill="#2f2567"/>
              <path id="Path_684" data-name="Path 684" d="M235.61,141.422v0Z" transform="translate(-154.789 -81.373)" fill="#2f2567"/>
              <path id="Path_685" data-name="Path 685" d="M235.61,141.859v0Z" transform="translate(-154.789 -81.811)" fill="#2f2567"/>
              <path id="Path_686" data-name="Path 686" d="M235.61,142.3v0Z" transform="translate(-154.789 -82.249)" fill="#2f2567"/>
              <path id="Path_687" data-name="Path 687" d="M235.61,142.735v0Z" transform="translate(-154.789 -82.687)" fill="#2f2567"/>
              <path id="Path_688" data-name="Path 688" d="M235.61,143.173v0Z" transform="translate(-154.789 -83.125)" fill="#2f2567"/>
              <path id="Path_689" data-name="Path 689" d="M235.61,143.611v0Z" transform="translate(-154.789 -83.563)" fill="#2f2567"/>
              <path id="Path_690" data-name="Path 690" d="M235.61,144.049v0Z" transform="translate(-154.789 -84.001)" fill="#2f2567"/>
              <path id="Path_691" data-name="Path 691" d="M235.61,144.487v0Z" transform="translate(-154.789 -84.439)" fill="#2f2567"/>
              <path id="Path_692" data-name="Path 692" d="M235.61,144.925v0Z" transform="translate(-154.789 -84.876)" fill="#2f2567"/>
              <path id="Path_693" data-name="Path 693" d="M235.61,145.362v0Z" transform="translate(-154.789 -85.314)" fill="#2f2567"/>
            </g>
          </g>
        </g>
        <g id="Group_849" data-name="Group 849">
          <path id="Path_695" data-name="Path 695" d="M160.566,47.31,73.187,89.673,44.481,73.1Z" transform="translate(-44.481 -47.31)" fill="url(#linear-gradient)"/>
          <path id="Path_696" data-name="Path 696" d="M187.908,47.31,114.535,97.759l28.706,16.573Z" transform="translate(-71.824 -47.31)" fill="url(#linear-gradient-2)"/>
          <path id="Path_697" data-name="Path 697" d="M105.569,97.759,178.942,47.31,91.564,89.673l7,26.616Z" transform="translate(-62.858 -47.31)" fill="url(#linear-gradient-3)"/>
        </g>
        <path id="Path_698" data-name="Path 698" d="M89.469,88.935,178.125,47.31,90.746,89.673Z" transform="translate(-62.04 -47.31)" fill="#6654bd"/>
        <path id="Path_699" data-name="Path 699" d="M114.535,97.759,187.908,47.31,115.682,98.421Z" transform="translate(-71.824 -47.31)" fill="#6654bd"/>
      </g>
      <path id="Path_700" data-name="Path 700" d="M153.873,163.623,74.99,181.147l18.638,10.761h0l.868.5,10.419-.749,5.024,9.666,13.579,7.84Z" transform="translate(-11.908 -45.398)" fill="#0b0244" opacity="0.4"/>
    </g>
    <path id="Path_727" data-name="Path 727" d="M224.912,47.172c31.126,6.154,56.723,33.114,56.326,59.7-.389,26.524-26.776,52.669-48.856,77.83-22.018,25.165-39.6,49.361-61.863,50.643-22.286,1.263-49.21-20.414-71.489-34.793-22.348-14.376-40-21.459-55.206-34.094s-27.9-30.828-24.928-47.118S40.518,88.67,60.022,80.827c19.57-7.9,39.931-9.26,68.477-17.267S193.755,40.973,224.912,47.172Z" transform="translate(37.865 134.275)" fill="#ff9981" opacity="0.1"/>
  </g>
</svg>
