<svg id="iconfinder_Social-30-Google-Outline_1243555" xmlns="http://www.w3.org/2000/svg" width="34.056" height="34.802" viewBox="0 0 34.056 34.802">
  <g id="Google" transform="translate(0 0)">
    <path id="Stroke-94" d="M7.994,35.285a17.126,17.126,0,0,0,2.462,3.7A17.507,17.507,0,0,0,28.3,44.35a16.137,16.137,0,0,0,6.688-3.708,15.848,15.848,0,0,0,3.708-5.228,19.2,19.2,0,0,0,1.571-7.834,14.442,14.442,0,0,0-.4-3.166H23.632V31.14h9.343a7.829,7.829,0,0,1-3.559,5.2,10.766,10.766,0,0,1-5.784,1.524,10.313,10.313,0,0,1-9.777-7.051L7.994,35.285Z" transform="translate(-6.207 -10.178)" fill="#4e4e4e" fill-rule="evenodd"/>
    <path id="Stroke-95" d="M13.2,25.617a10.277,10.277,0,0,1-.5-2.74c-.008-.16-.023-.315-.023-.474s.015-.319.023-.479a10.261,10.261,0,0,1,10.276-9.806A10.083,10.083,0,0,1,29.4,14.413l5.069-5.06a17.375,17.375,0,0,0-28.9,12.572c0,.16-.011.315-.011.479s.007.315.011.474A17.371,17.371,0,0,0,7.34,30.1L13.2,25.617Z" transform="translate(-5.557 -5)" fill="#4e4e4e" fill-rule="evenodd"/>
    <path id="Stroke-96" d="M16.9,12.616c-1.717,1.253-2.365,4.493-3.043,6.554L7.994,14.691a17.409,17.409,0,0,1,27.12-5.338" transform="translate(-6.207 -5)" fill="#4e4e4e" fill-rule="evenodd"/>
    <path id="Stroke-97" d="M10.455,41.315a17.126,17.126,0,0,1-2.462-3.7l5.861-4.475a10.3,10.3,0,0,0,6.07,6.358" transform="translate(-6.207 -12.504)" fill="#4e4e4e" fill-rule="evenodd"/>
    <path id="Stroke-98" d="M29.319,42.2A10.762,10.762,0,0,0,35.1,40.674l5.569,4.3a16.129,16.129,0,0,1-6.688,3.708,17.479,17.479,0,0,1-4.664.63" transform="translate(-11.894 -14.514)" fill="#4e4e4e" fill-rule="evenodd"/>
  </g>
</svg>
