<svg id="iconfinder_Social-02-Twitter-Outline_1243573" xmlns="http://www.w3.org/2000/svg" width="39.917" height="33.264" viewBox="0 0 39.917 33.264">
  <g id="Twitter" transform="translate(0 0)">
    <path id="Stroke-3" d="M43.067,8.974a8.36,8.36,0,0,1-3.6,4.644,16.014,16.014,0,0,0,4.7-1.318,16.8,16.8,0,0,1-4.083,4.345c.013.357.021.723.021,1.089,0,11.1-8.237,23.892-23.3,23.892A22.8,22.8,0,0,1,4.252,37.856a16.8,16.8,0,0,0,1.954.116,16.171,16.171,0,0,0,10.17-3.6,8.225,8.225,0,0,1-7.65-5.829,8.039,8.039,0,0,0,3.7-.146,8.352,8.352,0,0,1-6.573-8.237v-.1a8.028,8.028,0,0,0,3.713,1.044,8.442,8.442,0,0,1-3.642-6.986A8.583,8.583,0,0,1,7.029,9.893,23.055,23.055,0,0,0,23.911,18.67a8.546,8.546,0,0,1-.212-1.912,8.294,8.294,0,0,1,8.187-8.4,8.074,8.074,0,0,1,5.979,2.648,16.054,16.054,0,0,0,5.2-2.037Z" transform="translate(-4.252 -8.363)" fill="#4e4e4e" fill-rule="evenodd"/>
  </g>
</svg>
